<svg width="695" height="218" viewBox="0 0 695 218" fill="none" xmlns="http://www.w3.org/2000/svg">
<path d="M154.03 0.0257187C135.689 0.0257187 120.766 14.9484 120.766 33.2897C120.766 51.631 135.689 66.5537 154.03 66.5537C172.371 66.5537 187.294 51.631 187.294 33.2897C187.294 14.9484 172.371 0.0257187 154.03 0.0257187ZM154.03 16.155C163.493 16.155 171.165 23.827 171.165 33.2897C171.165 42.7524 163.493 50.4244 154.03 50.4244C144.567 50.4244 136.895 42.7524 136.895 33.2897C136.895 23.827 144.567 16.155 154.03 16.155Z" fill="#537EE4"/>
<path d="M81.9638 41.3257C78.8118 47.2457 72.2838 51.1017 64.9585 50.323C56.6625 49.443 50.0998 42.435 49.7158 34.1017C49.2625 24.271 57.0985 16.159 66.8291 16.159C71.9491 16.159 76.5465 18.407 79.6852 21.9737C81.8398 24.423 85.2358 25.363 88.2825 24.1964C88.5465 24.095 88.8105 23.9937 89.0745 23.8924C93.9572 22.0217 95.6265 15.871 92.2558 11.8737C85.3692 3.70303 74.6252 -1.11565 62.8705 0.25235C47.6652 2.02035 35.4598 14.2937 33.7692 29.5084C31.5452 49.527 47.2345 66.5483 66.8291 66.5483C79.5505 66.5483 90.6292 59.3684 96.2158 48.8444C98.9878 43.6204 95.0598 37.323 89.1465 37.2777C89.0878 37.2764 89.0305 37.2764 88.9718 37.2764C86.0732 37.2537 83.3265 38.767 81.9638 41.3257Z" fill="#E17AB3"/>
<path d="M110.101 151.104L77.2356 183.97C76.8423 184.362 76.413 184.706 75.9597 185C75.7997 185.111 75.6396 185.196 75.481 185.283C75.3943 185.344 75.297 185.392 75.2103 185.43C75.0637 185.515 74.9156 185.576 74.769 185.639C74.6463 185.7 74.5237 185.748 74.389 185.798C74.3397 185.823 74.2783 185.835 74.229 185.859C74.229 185.859 74.1796 185.871 74.1063 185.896C74.069 185.908 74.033 185.92 73.9836 185.932C73.861 185.982 73.7263 186.019 73.6023 186.043C73.5543 186.055 73.493 186.068 73.4316 186.08C73.345 186.104 73.2476 186.116 73.149 186.142C72.9276 186.203 72.7076 186.24 72.4863 186.252C72.3636 186.264 72.241 186.276 72.1183 186.288C71.9343 186.302 71.7623 186.314 71.5783 186.314C71.5663 186.314 71.5663 186.314 71.553 186.314C70.4863 186.314 69.4063 186.092 68.4117 185.651C67.5037 185.27 66.657 184.706 65.921 183.97L47.561 165.623L33.0437 151.104C29.9263 147.975 29.9263 142.907 33.0437 139.79L65.921 106.912C67.4797 105.354 69.529 104.568 71.5783 104.568C73.6277 104.568 75.665 105.354 77.2356 106.912L110.101 139.79C112.91 142.587 113.193 146.956 110.936 150.086C110.702 150.442 110.42 150.786 110.101 151.104ZM131.822 118.067L98.957 85.1897C91.6436 77.8763 81.9117 73.851 71.5783 73.851C61.233 73.851 51.513 77.8763 44.1983 85.1897L11.321 118.067C-3.77367 133.163 -3.77367 157.731 11.321 172.826L31.1903 192.683L44.1983 205.691C51.513 213.006 61.233 217.031 71.5783 217.031C72.1063 217.031 72.621 217.019 73.137 216.994C82.893 216.614 92.0116 212.638 98.957 205.691L131.822 172.826C133.086 171.575 134.228 170.248 135.27 168.862C146.806 153.706 145.653 131.911 131.822 118.067Z" fill="#E17AB3"/>
<mask id="mask0_24_283" style="mask-type:luminance" maskUnits="userSpaceOnUse" x="31" y="150" width="105" height="68">
<path d="M135.27 168.862C134.228 170.248 133.086 171.575 131.822 172.826L98.9571 205.691C92.0117 212.638 82.8931 216.614 73.1371 216.994C72.6211 217.019 72.1064 217.031 71.5784 217.031C61.2331 217.031 51.5131 213.006 44.1984 205.691L31.1904 192.683C35.5224 184.435 41.0331 175.306 47.5611 165.623L65.9211 183.97C66.6571 184.706 67.5038 185.27 68.4118 185.651C69.4064 186.092 70.4864 186.314 71.5531 186.314C71.5664 186.314 71.5664 186.314 71.5784 186.314C71.7624 186.314 71.9344 186.302 72.1184 186.288C72.2411 186.276 72.3638 186.264 72.4864 186.252C72.7198 186.215 72.9398 186.179 73.1491 186.142C73.2478 186.116 73.3451 186.104 73.4318 186.08C73.4931 186.068 73.5544 186.055 73.6024 186.043C73.7264 186.019 73.8611 185.982 73.9838 185.932C74.0331 185.92 74.0691 185.908 74.1064 185.896C74.1798 185.871 74.2291 185.859 74.2291 185.859C74.2784 185.835 74.3398 185.823 74.3891 185.798C74.5238 185.748 74.6464 185.7 74.7691 185.639C74.9158 185.576 75.0638 185.515 75.2104 185.43C75.2971 185.392 75.3944 185.344 75.4811 185.283C75.6398 185.196 75.7998 185.111 75.9598 185C76.4131 184.706 76.8424 184.362 77.2358 183.97L110.101 151.104C110.42 150.786 110.702 150.442 110.936 150.086L117.501 151.104L135.27 168.862Z" fill="white"/>
</mask>
<g mask="url(#mask0_24_283)">
<path d="M135.27 168.862C134.228 170.248 133.086 171.575 131.822 172.826L98.9571 205.691C92.0117 212.638 82.8931 216.614 73.1371 216.994C72.6211 217.019 72.1064 217.031 71.5784 217.031C61.2331 217.031 51.5131 213.006 44.1984 205.691L31.1904 192.683C35.5224 184.435 41.0331 175.306 47.5611 165.623L65.9211 183.97C66.6571 184.706 67.5038 185.27 68.4118 185.651C69.4064 186.092 70.4864 186.314 71.5531 186.314C71.5664 186.314 71.5664 186.314 71.5784 186.314C71.7624 186.314 71.9344 186.302 72.1184 186.288C72.2411 186.276 72.3638 186.264 72.4864 186.252C72.7198 186.215 72.9398 186.179 73.1491 186.142C73.2478 186.116 73.3451 186.104 73.4318 186.08C73.4931 186.068 73.5544 186.055 73.6024 186.043C73.7264 186.019 73.8611 185.982 73.9838 185.932C74.0331 185.92 74.0691 185.908 74.1064 185.896C74.1798 185.871 74.2291 185.859 74.2291 185.859C74.2784 185.835 74.3398 185.823 74.3891 185.798C74.5238 185.748 74.6464 185.7 74.7691 185.639C74.9158 185.576 75.0638 185.515 75.2104 185.43C75.2971 185.392 75.3944 185.344 75.4811 185.283C75.6398 185.196 75.7998 185.111 75.9598 185C76.4131 184.706 76.8424 184.362 77.2358 183.97L110.101 151.104C110.42 150.786 110.702 150.442 110.936 150.086L117.501 151.104L135.27 168.862Z" fill="#E17AB3"/>
</g>
<path d="M216.29 118.06L183.414 85.1964C176.099 77.8831 166.381 73.8524 156.035 73.8524C145.69 73.8524 135.97 77.8831 128.657 85.1964L113.811 100.052L131.819 118.06C133.083 119.311 134.226 120.635 135.273 122.018L150.381 106.922C151.945 105.358 153.99 104.576 156.035 104.576C158.079 104.576 160.137 105.358 161.701 106.922L194.565 139.786C197.693 142.914 197.693 147.978 194.565 151.106L161.701 183.97C160.137 185.534 158.079 186.315 156.035 186.315C153.99 186.315 151.945 185.534 150.381 183.97L135.285 168.872C135.273 168.872 135.273 168.86 135.273 168.86L117.505 151.106C115.893 149.482 115.111 147.34 115.183 145.223C113.763 143.719 112.321 142.215 110.913 140.748C110.673 140.411 110.395 140.087 110.095 139.786L106.029 135.732C105.885 135.587 105.741 135.431 105.595 135.287C98.1741 127.732 92.3394 122.018 92.3394 122.018H92.3274C87.2154 128.719 84.4487 136.875 84.4487 145.439C84.4487 154.016 87.2154 162.16 92.3394 168.86C93.3861 170.244 94.5407 171.567 95.7914 172.819L120.367 197.394L128.657 205.695C135.97 213.008 145.69 217.038 156.035 217.038C166.381 217.038 176.099 213.008 183.414 205.695L216.29 172.819C231.387 157.722 231.387 133.158 216.29 118.06Z" fill="#537EE4"/>
<path d="M301.486 118.055L268.621 85.203C264.706 81.287 260.104 78.3056 255.072 76.403C250.716 74.7216 246.04 73.851 241.241 73.851C230.896 73.851 221.177 77.8883 213.862 85.203L198.645 100.408L216.292 118.055C217.678 119.442 218.942 120.915 220.072 122.436L235.584 106.924C237.142 105.354 239.192 104.58 241.241 104.58C243.278 104.58 245.328 105.354 246.9 106.924L279.764 139.79C282.881 142.919 282.881 147.975 279.764 151.104L246.9 183.97C245.328 185.528 243.278 186.314 241.241 186.314C239.192 186.314 237.142 185.528 235.584 183.97L221.656 170.052C221.656 170.04 221.642 170.04 221.642 170.028L220.06 168.458L202.706 151.104C201.284 149.668 200.498 147.828 200.388 145.975C198.742 144.244 197.086 142.538 195.466 140.882C195.221 140.502 194.914 140.132 194.57 139.79L186.286 131.518L184.74 129.959L183.292 128.511C180.544 125.738 178.494 123.7 177.646 122.878L177.217 122.436H177.205C167.142 136.059 167.154 154.835 177.217 168.458C178.346 169.979 179.598 171.439 180.985 172.814L198.645 190.474L206.033 197.862L213.862 205.691C221.177 213.006 230.896 217.043 241.241 217.043C251.588 217.043 261.306 213.006 268.621 205.691L301.486 172.814C316.581 157.719 316.581 133.163 301.486 118.055Z" fill="#FFC866"/>
<mask id="mask1_24_283" style="mask-type:luminance" maskUnits="userSpaceOnUse" x="198" y="73" width="62" height="50">
<path d="M241.241 104.58C239.192 104.58 237.142 105.354 235.584 106.924L220.072 122.436C218.942 120.915 217.678 119.442 216.292 118.055L198.645 100.408L213.862 85.2031C221.177 77.8884 230.896 73.8511 241.241 73.8511C246.04 73.8511 250.716 74.7217 255.072 76.4031C270.081 91.1177 241.241 104.58 241.241 104.58Z" fill="white"/>
</mask>
<g mask="url(#mask1_24_283)">
<path d="M241.241 104.58C239.192 104.58 237.142 105.354 235.584 106.924L220.072 122.436C218.942 120.915 217.678 119.442 216.292 118.055L198.645 100.408L213.862 85.2031C221.177 77.8884 230.896 73.8511 241.241 73.8511C246.04 73.8511 250.716 74.7217 255.072 76.4031C270.081 91.1177 241.241 104.58 241.241 104.58Z" fill="#FFC866"/>
</g>
<path d="M226.092 25.2497C229.244 19.3297 235.772 15.4737 243.097 16.251C251.393 17.1324 257.956 24.1391 258.34 32.4737C258.793 42.3044 250.957 50.415 241.226 50.415C236.106 50.415 231.509 48.167 228.372 44.6004C226.216 42.1511 222.82 41.2111 219.773 42.3791C219.509 42.4804 219.245 42.5817 218.981 42.6817C214.098 44.5524 212.429 50.7031 215.8 54.7017C222.686 62.8724 233.43 67.691 245.185 66.323C260.39 64.5537 272.597 52.2804 274.286 37.0671C276.51 17.0471 260.821 0.0257111 241.226 0.0257111C228.505 0.0257111 217.428 7.20705 211.84 17.731C209.068 22.9537 212.997 29.251 218.91 29.2977C218.968 29.2977 219.025 29.2977 219.084 29.299C221.982 29.3217 224.729 27.8084 226.092 25.2497Z" fill="#FFC866"/>
<path d="M378.768 169.252C371.808 169.252 365.608 167.852 360.168 165.052C354.808 162.172 350.568 158.252 347.448 153.292C344.328 148.252 342.768 142.572 342.768 136.252V84.4122H363.408V135.172C363.408 138.212 364.088 140.932 365.448 143.332C366.808 145.732 368.648 147.652 370.968 149.092C373.368 150.452 375.968 151.132 378.768 151.132C381.728 151.132 384.408 150.452 386.808 149.092C389.208 147.652 391.088 145.732 392.448 143.332C393.888 140.932 394.608 138.212 394.608 135.172V84.4122H414.528V136.252C414.528 142.572 412.968 148.252 409.848 153.292C406.808 158.252 402.608 162.172 397.248 165.052C391.888 167.852 385.728 169.252 378.768 169.252ZM430.568 168.532V104.812H448.928L449.648 117.772L445.688 119.212C446.568 116.332 448.128 113.732 450.368 111.412C452.688 109.012 455.448 107.092 458.648 105.652C461.848 104.212 465.208 103.492 468.728 103.492C473.528 103.492 477.568 104.492 480.848 106.492C484.128 108.412 486.568 111.332 488.168 115.252C489.848 119.092 490.688 123.852 490.688 129.532V168.532H471.368V130.972C471.368 128.412 471.008 126.292 470.288 124.612C469.568 122.932 468.488 121.692 467.048 120.892C465.608 120.092 463.808 119.732 461.648 119.812C459.968 119.812 458.408 120.092 456.968 120.652C455.528 121.132 454.248 121.892 453.128 122.932C452.088 123.892 451.288 125.012 450.728 126.292C450.168 127.572 449.888 129.012 449.888 130.612V168.532H440.168C438.088 168.532 436.208 168.532 434.528 168.532C432.928 168.532 431.608 168.532 430.568 168.532ZM505.537 168.532V104.812H524.857V168.532H505.537ZM515.257 92.2122C511.577 92.2122 508.697 91.3722 506.617 89.6922C504.617 87.9322 503.617 85.4522 503.617 82.2522C503.617 79.2922 504.657 76.8922 506.737 75.0522C508.817 73.2122 511.657 72.2922 515.257 72.2922C518.777 72.2922 521.537 73.1722 523.537 74.9322C525.617 76.6122 526.657 79.0522 526.657 82.2522C526.657 85.2122 525.617 87.6122 523.537 89.4522C521.537 91.2922 518.777 92.2122 515.257 92.2122ZM564.852 169.732C559.412 169.732 554.492 168.332 550.092 165.532C545.772 162.732 542.372 158.852 539.892 153.892C537.412 148.852 536.172 143.132 536.172 136.732C536.172 130.332 537.412 124.652 539.892 119.692C542.372 114.652 545.772 110.692 550.092 107.812C554.492 104.932 559.452 103.492 564.972 103.492C567.852 103.492 570.612 103.932 573.252 104.812C575.972 105.692 578.372 106.892 580.452 108.412C582.612 109.932 584.372 111.652 585.732 113.572C587.092 115.492 587.932 117.532 588.252 119.692L583.572 120.772V79.7322H602.892V168.532H584.892L583.812 154.132L587.652 154.852C587.492 156.772 586.772 158.652 585.492 160.492C584.212 162.252 582.492 163.852 580.332 165.292C578.252 166.652 575.892 167.732 573.252 168.532C570.612 169.332 567.812 169.732 564.852 169.732ZM569.652 153.772C572.612 153.772 575.132 153.092 577.212 151.732C579.372 150.292 581.052 148.292 582.252 145.732C583.452 143.172 584.052 140.172 584.052 136.732C584.052 133.212 583.452 130.172 582.252 127.612C581.052 125.052 579.372 123.092 577.212 121.732C575.132 120.292 572.612 119.572 569.652 119.572C566.772 119.572 564.252 120.292 562.092 121.732C560.012 123.092 558.372 125.052 557.172 127.612C555.972 130.172 555.372 133.212 555.372 136.732C555.372 140.172 555.972 143.172 557.172 145.732C558.372 148.292 560.012 150.292 562.092 151.732C564.252 153.092 566.772 153.772 569.652 153.772ZM624.888 196.132L639.408 162.052L639.648 172.132L608.808 104.812H630.648L644.088 136.972C644.808 138.492 645.488 140.212 646.128 142.132C646.768 144.052 647.248 145.852 647.568 147.532L644.808 149.092C645.288 147.892 645.808 146.372 646.368 144.532C647.008 142.692 647.688 140.732 648.408 138.652L660.168 104.812H682.128L655.128 168.532L644.208 196.132H624.888Z" fill="#537EE4"/>
</svg>
