<svg width="165" height="149" viewBox="0 0 165 149" fill="none" xmlns="http://www.w3.org/2000/svg">
<g clip-path="url(#clip0_214_6057)">
<path d="M211.559 124.808C197.2 161.683 182.839 198.559 168.478 235.434C165.066 244.197 161.654 252.958 158.24 261.72C157.31 264.113 160.907 265.626 161.837 263.239C176.196 226.362 190.557 189.488 204.918 152.612C208.33 143.85 211.743 135.088 215.156 126.326C216.086 123.933 212.489 122.42 211.559 124.808Z" fill="#1391F5"/>
<path d="M54.0098 124.481C68.2164 161.416 82.4246 198.351 96.6327 235.285C100.009 244.062 103.385 252.837 106.761 261.614C107.682 264.01 104.079 265.509 103.158 263.117C88.9515 226.182 74.7434 189.248 60.5352 152.313C57.1596 143.537 53.7841 134.761 50.4077 125.985C49.4861 123.588 53.0897 122.09 54.0098 124.481Z" fill="#1391F5"/>
<path d="M216.84 111.65C216.742 159.257 179.073 197.775 132.705 197.679C86.3376 197.583 48.8277 158.91 48.9263 111.302C49.0248 63.6927 86.6945 25.1766 133.062 25.2726C179.43 25.3686 216.939 64.0403 216.84 111.65Z" fill="#1391F5"/>
<mask id="mask0_214_6057" style="mask-type:luminance" maskUnits="userSpaceOnUse" x="48" y="25" width="169" height="173">
<path d="M216.84 111.65C216.742 159.257 179.073 197.775 132.705 197.679C86.3376 197.583 48.8277 158.91 48.9263 111.302C49.0248 63.6927 86.6945 25.1766 133.062 25.2726C179.43 25.3686 216.939 64.0403 216.84 111.65Z" fill="white"/>
</mask>
<g mask="url(#mask0_214_6057)">
<path d="M78.566 139.415C78.566 139.415 79.2883 142.344 77.8936 143.929C76.4982 145.515 74.019 147.931 74.8714 151.423C75.7239 154.917 78.6594 161.107 81.0111 162.449C83.3644 163.79 86.3821 164.467 86.0436 168.013C85.7036 171.557 83.8398 179.684 83.6126 182.441C83.3854 185.195 80.5699 197.236 81.4413 202.478C82.3135 207.72 86.5771 209.572 87.9371 209.328C89.2963 209.085 86.525 202.423 87.9559 200.228C89.386 198.036 90.8296 197.223 92.0012 193.765C93.1712 190.305 95.2983 189.003 97.496 188.51C99.6953 188.016 99.1164 185.269 101.539 183.21C103.961 181.152 107.35 177.799 107.685 175.531C108.021 173.263 108.617 170.546 111.916 170.774C115.215 171.001 117.256 168.912 117.773 164.94C118.29 160.967 118.984 158.967 120.12 157.539C121.257 156.114 122.217 153.776 119.447 151.73C116.679 149.684 113.269 151.006 110.981 149.133C108.693 147.259 106.171 147.06 105.115 146.991C104.059 146.922 105.547 141.357 101.99 140.474C98.4337 139.591 97.2482 139.274 95.9081 137.738C94.5674 136.201 89.7214 134.809 86.9692 135.428C84.217 136.048 82.5364 136.825 80.2728 136.877C78.0091 136.928 77.576 136.243 75.3553 136.208C73.1339 136.172 71.3785 135.14 71.6904 133.154C72.0031 131.167 70.157 130.429 67.824 129.432C65.491 128.434 66.4147 126.455 64.0716 126.973C61.7285 127.489 58.3929 124.186 58.589 122.199C58.7851 120.213 58.7729 113.732 62.903 114.717C67.0339 115.701 71.6115 116.848 74.1109 118.521C76.6104 120.194 73.7671 113.794 75.3011 112.456C76.8344 111.116 81.6289 110.374 81.7832 108.282C81.936 106.191 83.5009 101.243 87.0442 99.1931C90.5868 97.1437 94.2277 97.148 95.8357 95.7762C97.4444 94.4036 101.277 88.7026 100.222 86.6118C99.1664 84.5218 95.7467 80.2009 94.1162 78.1336C92.4866 76.0664 89.9156 77.8057 87.6877 77.4635C85.4599 77.1221 85.7393 73.5455 83.7198 73.2381C81.7002 72.9306 78.5006 74.1187 78.5856 76.265C78.6721 78.4121 80.5566 81.9852 78.8441 83.1748C77.1323 84.3628 76.106 86.0224 73.4445 83.7534C70.7822 81.4845 65.5906 80.3237 64.0663 78.0714C62.5428 75.8192 61.9927 73.4381 65.9885 70.985C69.9835 68.5319 74.8581 65.5196 74.8777 63.9362C74.8973 62.352 72.6512 59.9546 71.1271 60.2076C69.6046 60.4591 70.0377 63.0307 68.1376 62.8392C66.2374 62.6485 64.4831 57.3566 62.5827 56.5585C60.683 55.7605 62.1402 62.2825 59.6548 62.8216C57.171 63.3616 54.6519 63.6261 50.8191 62.8033C46.9872 61.9813 46.0186 62.3536 43.343 62.7879C40.6682 63.2229 40.1829 62.569 37.2703 61.4776C34.3592 60.3861 33.342 59.8277 27.5339 60.2506C21.7273 60.6744 18.7807 61.6827 15.7177 60.2262C12.654 58.7697 6.8346 60.6404 2.67813 60.4721C-1.47951 60.3039 -6.84701 62.7111 -6.85948 65.8077C-6.88478 72.4328 6.71262 74.3947 11.3617 75.2408C16.0107 76.086 21.6205 79.5957 23.1226 83.5255C24.6256 87.4545 29.9202 88.4065 30.8281 92.9065C31.7353 97.4057 32.2296 104.937 33.6504 107.242C35.0712 109.545 44.4324 114.794 46.2583 118.563C48.0841 122.333 52.0698 125.88 54.9584 128.089C57.8462 130.302 64.6686 131.082 67.1427 132.623C69.6176 134.162 73.2257 140.629 78.566 139.415Z" fill="#86EAC6"/>
</g>
<mask id="mask1_214_6057" style="mask-type:luminance" maskUnits="userSpaceOnUse" x="48" y="25" width="169" height="173">
<path d="M216.84 111.65C216.742 159.257 179.073 197.775 132.705 197.679C86.3376 197.583 48.8277 158.91 48.9263 111.302C49.0248 63.6927 86.6945 25.1766 133.062 25.2726C179.43 25.3686 216.939 64.0403 216.84 111.65Z" fill="white"/>
</mask>
<g mask="url(#mask1_214_6057)">
<path d="M34.0747 49.809C31.9218 50.4367 30.5211 52.3325 30.763 54.4735C31.005 56.6137 33.0411 57.2245 34.8753 56.9777C36.7095 56.7301 40.0357 57.4026 40.9833 59.2961C41.9315 61.1903 46.1258 60.4696 49.3593 60.1849C52.5935 59.9011 55.6663 59.0783 53.7415 57.6975C51.8158 56.3168 52.0229 54.29 50.7877 53.1989C49.5524 52.1061 48.4137 53.2123 45.9771 53.4619C43.5405 53.7114 40.0049 52.3944 38.0582 51.4239C36.1107 50.4541 36.2284 49.1814 34.0747 49.809Z" fill="#86EAC6"/>
</g>
<mask id="mask2_214_6057" style="mask-type:luminance" maskUnits="userSpaceOnUse" x="48" y="25" width="169" height="173">
<path d="M216.84 111.65C216.742 159.257 179.073 197.775 132.705 197.679C86.3376 197.583 48.8277 158.91 48.9263 111.302C49.0248 63.6927 86.6945 25.1766 133.062 25.2726C179.43 25.3686 216.939 64.0403 216.84 111.65Z" fill="white"/>
</mask>
<g mask="url(#mask2_214_6057)">
<path d="M41.5269 46.7972C40.59 47.279 38.969 49.3028 41.0024 50.094C43.0365 50.8859 47.5449 50.9327 49.1511 49.6711C50.7573 48.4086 49.6681 46.2091 48.4469 45.5194C47.2264 44.8289 42.4638 46.3171 41.5269 46.7972Z" fill="#86EAC6"/>
</g>
<mask id="mask3_214_6057" style="mask-type:luminance" maskUnits="userSpaceOnUse" x="48" y="25" width="169" height="173">
<path d="M216.84 111.65C216.742 159.257 179.073 197.775 132.705 197.679C86.3376 197.583 48.8277 158.91 48.9263 111.302C49.0248 63.6927 86.6945 25.1766 133.062 25.2726C179.43 25.3686 216.939 64.0403 216.84 111.65Z" fill="white"/>
</mask>
<g mask="url(#mask3_214_6057)">
<path d="M93.1767 31.4121C89.7733 30.4641 87.795 29.7233 82.7049 30.2323C77.6156 30.7398 71.8158 33.1404 68.3048 33.4724C64.7945 33.8035 61.268 35.2352 60.212 37.3249C59.1552 39.4145 65.9588 41.3776 67.3981 42.9951C68.839 44.6127 74.2146 46.2424 77.3249 44.9942C80.436 43.7468 81.7203 39.8978 84.6236 38.3547C87.5262 36.8092 94.3242 31.7313 93.1767 31.4121Z" fill="#86EAC6"/>
</g>
<mask id="mask4_214_6057" style="mask-type:luminance" maskUnits="userSpaceOnUse" x="48" y="25" width="169" height="173">
<path d="M216.84 111.65C216.742 159.257 179.073 197.775 132.705 197.679C86.3376 197.583 48.8277 158.91 48.9263 111.302C49.0248 63.6927 86.6945 25.1766 133.062 25.2726C179.43 25.3686 216.939 64.0403 216.84 111.65Z" fill="white"/>
</mask>
<g mask="url(#mask4_214_6057)">
<path d="M57.8307 39.4716C55.556 38.8619 53.3446 39.5717 52.3462 40.1323C51.3462 40.6937 52.0951 43.1063 52.0425 44.4869C51.9907 45.8691 51.4045 48.5567 52.8434 50.7673C54.2807 52.9794 53.9454 56.1329 57.0599 56.2071C60.1737 56.2806 62.7205 54.2364 64.9485 53.0047C67.1772 51.773 74.517 51.9782 75.9446 49.8478C77.3715 47.715 75.0507 48.0007 71.2189 47.7949C67.3888 47.5898 65.2264 45.6675 62.8366 43.5882C60.4476 41.5098 59.2469 39.852 57.8307 39.4716Z" fill="#86EAC6"/>
</g>
<mask id="mask5_214_6057" style="mask-type:luminance" maskUnits="userSpaceOnUse" x="48" y="25" width="169" height="173">
<path d="M216.84 111.65C216.742 159.257 179.073 197.775 132.705 197.679C86.3376 197.583 48.8277 158.91 48.9263 111.302C49.0248 63.6927 86.6945 25.1766 133.062 25.2726C179.43 25.3686 216.939 64.0403 216.84 111.65Z" fill="white"/>
</mask>
<g mask="url(#mask5_214_6057)">
<path d="M70.9433 52.8319C66.9555 53.3361 66.618 55.6619 67.2466 57.6409C67.8737 59.6183 72.8611 56.5064 74.4305 57.6557C76.0014 58.8043 79.0761 61.5937 77.7453 63.8567C76.4169 66.1206 79.3326 67.9838 83.0666 68.4225C86.8015 68.8613 90.2647 70.5971 92.0818 68.4771C93.8996 66.3579 94.5535 64.0264 90.991 62.2097C87.4308 60.3915 87.214 57.691 85.0366 56.2651C82.8577 54.8383 80.0511 51.7167 77.5308 51.8471C75.012 51.9776 70.9433 52.8319 70.9433 52.8319Z" fill="#86EAC6"/>
</g>
<mask id="mask6_214_6057" style="mask-type:luminance" maskUnits="userSpaceOnUse" x="48" y="25" width="169" height="173">
<path d="M216.84 111.65C216.742 159.257 179.073 197.775 132.705 197.679C86.3376 197.583 48.8277 158.91 48.9263 111.302C49.0248 63.6927 86.6945 25.1766 133.062 25.2726C179.43 25.3686 216.939 64.0403 216.84 111.65Z" fill="white"/>
</mask>
<g mask="url(#mask6_214_6057)">
<path d="M102.369 32.293C99.4204 33.1856 92.3702 36.2062 91.5416 38.0801C90.7138 39.9547 87.0563 40.4483 86.5499 42.4769C86.0444 44.5046 89.4998 44.748 94.0814 45.7839C98.6639 46.8181 100.336 48.4729 100.748 51.8912C101.159 55.3088 107.36 56.091 105.846 59.9842C104.332 63.8775 103.357 66.1197 105.091 69.2695C106.824 72.4208 111.597 76.3183 112.944 75.9132C114.291 75.5074 116.521 66.9307 120.119 65.1712C123.716 63.4124 133.809 60.3454 134.282 59.257C134.757 58.1677 136.683 46.1171 136.319 43.8912C135.957 41.6653 142.367 38.1693 142.582 35.5847C142.727 33.8579 139.672 33.9426 136.66 34.0265C135.162 34.0689 133.675 34.1113 132.598 33.9303C129.353 33.3857 126.709 30.6099 121.951 30.3136C117.195 30.0172 105.486 31.349 102.369 32.293Z" fill="#86EAC6"/>
</g>
<mask id="mask7_214_6057" style="mask-type:luminance" maskUnits="userSpaceOnUse" x="48" y="25" width="169" height="173">
<path d="M216.84 111.65C216.742 159.257 179.073 197.775 132.705 197.679C86.3376 197.583 48.8277 158.91 48.9263 111.302C49.0248 63.6927 86.6945 25.1766 133.062 25.2726C179.43 25.3686 216.939 64.0403 216.84 111.65Z" fill="white"/>
</mask>
<g mask="url(#mask7_214_6057)">
<path d="M155.035 98.9443C155.035 98.9443 149.169 98.2019 148.469 98.9308C147.768 99.6588 148.054 102.819 147.644 103.84C147.234 104.862 147.282 106.819 148.095 106.966C148.91 107.114 150.302 108.331 150.904 108.091C151.507 107.851 153.645 106.852 154.87 106.572C156.094 106.292 156.148 104.699 157.068 103.38C157.986 102.06 157.988 99.6983 161.277 98.82C164.566 97.9425 166.696 98.5774 167.456 99.3516C168.217 100.124 172.158 101.748 172.149 103.557C172.14 105.366 174.757 103.02 174.573 102.399C174.388 101.779 171.177 99.3082 170.186 98.4921C169.196 97.6751 168.899 96.016 169.766 95.7561C170.631 95.4977 173.473 99.0671 174.189 99.3655C174.906 99.6631 176.177 100.801 176.018 101.75C175.859 102.697 177.723 106.892 178.503 107.029C179.283 107.166 180.743 106.248 180.421 105.414C180.097 104.581 178.706 103.189 179.688 102.575C180.671 101.962 183.248 102.463 184.421 101.767C185.595 101.071 183.82 100.163 184.841 98.4426C185.86 96.7224 186.531 94.1395 187.827 94.4973C189.122 94.8552 189.115 98.2016 190.032 98.0471C190.949 97.8918 193.776 96.714 195.846 98.7671C197.918 100.821 197.308 101.551 195.169 101.79C194.342 101.881 193.226 101.835 192.109 101.789C190.337 101.715 188.561 101.642 187.935 102.122C186.915 102.904 183.123 103.394 183.098 104.278C183.072 105.162 184.054 107.705 185.337 107.467C186.618 107.228 191.792 106.6 192.277 106.876C192.764 107.153 190.941 113.121 189.579 113.374C188.217 113.627 187.096 113.686 185.822 113.914C184.549 114.142 181.342 113.613 179.968 112.668C178.596 111.725 176.455 112.752 174.187 113.539C171.918 114.326 169.119 112.489 168.103 111.703C167.086 110.917 168.261 109.068 168.11 108.241C167.958 107.414 164.14 106.331 162.611 106.996C161.083 107.662 156.523 108.489 155.058 108.826C154.236 109.015 153.233 108.876 152.458 108.739C151.852 108.631 151.385 108.524 151.251 108.573C150.945 108.687 150.369 110.803 148.954 111.297C147.537 111.79 147.522 113.647 146.702 115.58C145.884 117.513 142.058 120.278 141.489 124.356C140.922 128.434 141.472 132.462 143.504 135.708C145.534 138.955 148.384 140.32 151.949 140.224C155.514 140.126 161.985 139 163.968 140.253C165.952 141.507 166.151 144.332 165.586 146.474C165.021 148.617 166.189 150.293 168.372 153.801C170.555 157.309 171.622 158.986 170.292 161.65C168.962 164.314 168.804 165.868 170.073 168.753C171.34 171.639 171.032 172.789 171.231 175.458C171.429 178.124 173.148 184.457 175.337 184.774C177.526 185.094 181.859 183.011 183.596 180.763C185.332 178.519 187.939 173.923 189.878 172.515C191.817 171.108 190.872 167.44 191.919 166.264C192.966 165.089 196.499 163.063 196.261 159.873C196.022 156.682 194.758 152.496 196.292 149.728C197.826 146.959 204.081 142.519 204.884 140.381C205.686 138.242 207.323 135.422 205.845 135.524C204.368 135.625 203.196 136.285 200.395 136.027C197.594 135.767 195.968 130.605 195.108 129.627C194.247 128.648 191.076 123.556 191.104 122.105C191.129 120.654 188.823 116.348 189.995 116.297C191.166 116.248 194.131 121.587 195.084 123.212C196.038 124.835 197.958 128.271 198.696 130.322C199.434 132.373 200.555 133.159 201.658 132.966C202.762 132.774 212.198 128.236 213.503 126.701C214.81 125.167 215.485 122.505 214.092 121.857C212.7 121.209 211.981 119.317 211.611 119.894C211.24 120.468 209.998 121.716 208.981 121.671C207.961 121.628 205.088 117.818 204.612 116.526C204.135 115.235 205.43 114.186 205.991 114.239C206.551 114.293 208.25 118.302 210.483 118.275C212.718 118.248 212.942 119.119 214.528 119.905C215.182 120.231 216.697 120.152 218.302 120.073C220.587 119.961 223.055 119.849 223.482 120.903C224.207 122.697 226.273 125.682 227.666 125.219C229.058 124.757 228.765 126.973 229.786 129.706C230.808 132.439 232.68 138.743 233.545 138.966C234.411 139.191 236.958 135.588 237.016 133.6C237.075 131.614 237.058 130.323 239.057 128.853C241.056 127.386 243.532 124.481 245.241 123.782C246.948 123.084 249.373 126.505 249.458 128.292C249.544 130.079 251.69 129.552 252.199 131.383C252.708 133.215 254.069 139.37 254.983 141.233C255.898 143.097 259.203 143.651 258.19 142.116C257.177 140.582 254.64 134.944 255.662 133.743C256.188 133.123 257.317 134.247 258.529 135.37C259.662 136.421 260.87 137.472 261.726 137.098C263.498 136.322 263.509 131.427 262.205 129.455C260.9 127.483 261.742 124.336 263.423 123.82C265.105 123.305 271.269 122.69 272.801 120.81C274.333 118.93 277.424 115.276 276.556 113.165C275.687 111.053 272.002 106.517 273.801 104.914C275.601 103.312 279.753 104.148 280.44 106.317C281.129 108.486 283.183 110.043 284.016 109.096C284.846 108.147 283.716 103.129 285.828 101.488C287.94 99.8452 294.041 95.3334 294.81 93.0348C295.578 90.7355 295.503 86.3162 293.881 85.3766C292.259 84.4371 291.315 83.3521 292.031 82.4653C292.745 81.5777 296.169 76.6165 300.955 77.1492C305.742 77.6827 306.86 78.5294 308.95 77.8761C311.039 77.2228 311.249 74.0332 314.102 74.1436C315.321 74.1908 316.621 73.7306 317.734 73.2692C319.225 72.6522 320.378 72.0344 320.54 72.6366C320.826 73.6867 318.06 75.5796 316.397 77.2083C314.734 78.8362 311.734 81.8141 311.838 84.9541C311.943 88.0941 312.9 88.4089 313.895 88.1276C314.888 87.8464 318.187 81.5513 318.611 79.7876C319.034 78.0238 321.212 75.5965 323.408 75.8517C325.605 76.1052 333.201 73.737 334.377 72.4202C335.55 71.1017 332.98 68.6438 334.589 68.4859C335.304 68.4156 336.621 68.8868 338.039 69.3574C339.808 69.9453 341.733 70.5335 342.836 70.0713C344.824 69.239 341.061 65.8847 339.28 65.462C337.498 65.0409 330.322 62.3069 328.946 62.826C327.571 63.346 324.158 62.6597 322.684 61.8194C321.209 60.98 316.678 59.8724 313.723 60.1807C310.768 60.4875 309.551 58.2885 307.412 57.8132C305.275 57.3387 298.709 55.7561 296.184 56.7445C293.661 57.7337 289.636 58.1428 288.11 57.9313C286.581 57.719 284.497 55.674 283.175 54.5211C281.854 53.3675 276.096 53.5184 274.39 53.5644C273.745 53.5822 272.739 53.4644 271.613 53.3455C269.764 53.1518 267.592 52.9573 266.167 53.3614C263.873 54.0111 259.134 54.0308 260.768 53.3502C262.402 52.668 268.426 50.4897 268.518 48.8434C268.61 47.1963 266.437 46.2763 263.838 46.3228C262.882 46.34 261.822 46.1423 260.792 45.9446C259.023 45.6049 257.345 45.2655 256.442 46.0178C255.017 47.208 249.219 47.6909 246.464 49.2686C243.709 50.8448 244.627 52.229 242.435 52.7033C240.242 53.1776 236.828 54.3206 237.13 56.4131C237.43 58.5056 234.081 57.3342 232.337 58.5996C230.592 59.865 232.124 62.8355 230.338 64.191C228.553 65.5473 225.996 65.3847 226.818 64.6546C227.639 63.9244 229.799 62.1307 229.566 59.8125C229.333 57.4952 230.461 54.4248 228.221 54.0738C225.981 53.7228 224.345 56.073 224.444 57.5904C224.543 59.1062 225.84 61.9853 225.239 62.4549C224.636 62.9245 223.007 60.8621 219.396 60.1275C215.786 59.3945 216.134 61.8606 214.504 62.1182C212.872 62.3766 208.901 62.0556 206.096 63.6188C203.291 65.1805 202.441 65.0255 200.751 65.5168C199.063 66.009 197.57 68.0315 195.87 68.4932C194.168 68.9558 192.843 69.8095 192.03 68.2435C191.215 66.6767 188.338 64.298 189.669 64.679C191 65.0601 197.223 65.7538 197.61 64.6508C197.998 63.5486 191.595 60.5959 190.57 60.0894C189.545 59.5836 186.202 56.9166 182.845 57.4149C179.488 57.9115 173.678 60.3369 171.994 62.6783C170.308 65.018 167.055 69.7457 165.257 70.7516C163.461 71.7575 161.787 73.9711 162.165 75.9313C162.542 77.8906 164.248 79.2525 165.166 78.8203C166.083 78.3864 167.68 76.1941 168.053 76.8214C168.429 77.4503 169.037 79.9656 169.644 81.168C170.252 82.3696 170.896 82.4324 172.161 81.676C173.424 80.9212 174.008 77.6669 173.932 76.0426C173.856 74.4191 173.85 71.0128 175.931 69.7784C178.013 68.5441 179.133 65.7339 180.539 66.3505C181.947 66.9672 180.189 68.8463 179.382 70.5701C178.575 72.294 177.868 75.3469 179.007 75.3915C179.402 75.4067 180.236 75.2943 181.164 75.1829C182.911 74.9718 184.989 74.7614 185.087 75.4041C185.239 76.3869 179.961 76.3863 180.166 78.3118C180.373 80.2373 178.67 80.8076 177.593 81.8301C176.515 82.8535 171.671 85.7198 169.125 85.2955C166.578 84.8729 162.936 85.0704 161.304 86.8724C159.671 88.6743 158.57 90.7655 156.429 91.9638C154.287 93.1621 155.337 98.1357 155.035 98.9443Z" fill="#86EAC6"/>
</g>
<mask id="mask8_214_6057" style="mask-type:luminance" maskUnits="userSpaceOnUse" x="48" y="25" width="169" height="173">
<path d="M216.84 111.65C216.742 159.257 179.073 197.775 132.705 197.679C86.3376 197.583 48.8277 158.91 48.9263 111.302C49.0248 63.6927 86.6945 25.1766 133.062 25.2726C179.43 25.3686 216.939 64.0403 216.84 111.65Z" fill="white"/>
</mask>
<g mask="url(#mask8_214_6057)">
<path d="M152.154 90.2829C154.134 90.9263 157.965 87.9924 158.07 86.6853C158.175 85.3775 155.795 83.9519 155.333 82.5965C154.873 81.2396 155.117 79.4396 154.368 78.5194C153.619 77.6 150.126 78.5633 150.183 79.6345C150.238 80.7072 150.859 81.6567 151.817 83.0937C152.777 84.5299 151.188 89.9689 152.154 90.2829Z" fill="#86EAC6"/>
</g>
<mask id="mask9_214_6057" style="mask-type:luminance" maskUnits="userSpaceOnUse" x="48" y="25" width="169" height="173">
<path d="M216.84 111.65C216.742 159.257 179.073 197.775 132.705 197.679C86.3376 197.583 48.8277 158.91 48.9263 111.302C49.0248 63.6927 86.6945 25.1766 133.062 25.2726C179.43 25.3686 216.939 64.0403 216.84 111.65Z" fill="white"/>
</mask>
<g mask="url(#mask9_214_6057)">
<path d="M147.115 88.5454C148.808 89.5098 150.547 87.3801 150.567 85.744C150.589 84.1071 150.693 82.4337 149.318 82.4835C147.943 82.5333 145.183 87.4424 147.115 88.5454Z" fill="#86EAC6"/>
</g>
<path d="M132.705 197.679C149.117 197.713 164.44 192.908 177.393 184.577C179.88 182.976 182.276 181.249 184.58 179.397C187.76 176.843 190.759 174.054 193.546 171.063C178.221 187.506 156.619 197.729 132.705 197.679ZM201.714 160.843C209.726 149.087 214.956 135.188 216.42 120.142C216.691 117.349 216.834 114.515 216.84 111.65C216.802 129.95 211.214 146.906 201.714 160.843Z" fill="#9CC6DF"/>
<path d="M132.705 197.679L132.989 60.113C133.715 59.7674 134.189 59.473 134.282 59.2569C134.757 58.1677 136.683 46.1171 136.319 43.8912C135.957 41.6653 142.366 38.1693 142.582 35.5847C142.695 34.2433 140.877 33.9945 138.649 33.9899C138.008 33.9885 137.333 34.0079 136.66 34.0265C135.988 34.0458 135.316 34.0644 134.684 34.0631C134.094 34.0618 133.538 34.0432 133.043 33.9903L133.062 25.2726C162.625 25.3338 188.586 41.0759 203.496 64.8178C202.48 65.1597 201.768 65.2213 200.751 65.5169C199.063 66.009 197.57 68.0315 195.87 68.4932C194.901 68.757 194.055 69.1464 193.356 69.1449C192.826 69.1438 192.38 68.9186 192.03 68.2435C191.274 66.7894 188.742 64.6364 189.445 64.6379C189.499 64.638 189.573 64.6509 189.669 64.679C190.461 64.9057 192.982 65.243 194.977 65.2471C196.337 65.2499 197.453 65.0974 197.609 64.6508C197.998 63.5486 191.594 60.5959 190.57 60.0894C189.633 59.6269 186.76 57.3592 183.709 57.3528C183.422 57.3522 183.134 57.3716 182.845 57.4149C179.488 57.9115 173.678 60.3369 171.993 62.6783C170.308 65.018 167.055 69.7457 165.257 70.7516C163.461 71.7575 161.787 73.9712 162.165 75.9313C162.494 77.6423 163.838 78.8981 164.784 78.9001C164.921 78.9004 165.05 78.8751 165.166 78.8203C165.97 78.4397 167.296 76.7081 167.862 76.7093C167.942 76.7094 168.007 76.7439 168.053 76.8214C168.428 77.4503 169.037 79.9656 169.644 81.168C169.993 81.8567 170.353 82.1711 170.834 82.1721C171.194 82.1728 171.621 81.9989 172.161 81.676C173.424 80.9212 174.007 77.667 173.932 76.0426C173.856 74.4191 173.85 71.0128 175.931 69.7784C177.812 68.6626 178.908 66.261 180.139 66.2635C180.271 66.2638 180.403 66.2912 180.539 66.3505C181.947 66.9672 180.189 68.8463 179.382 70.5701C178.574 72.294 177.868 75.3469 179.007 75.3915C179.03 75.3924 179.054 75.3924 179.079 75.3925C179.498 75.3933 180.29 75.288 181.164 75.1829C182.038 75.077 182.995 74.972 183.745 74.9735C184.494 74.9751 185.037 75.0832 185.086 75.4041C185.238 76.3869 179.961 76.3863 180.166 78.3118C180.373 80.2373 178.669 80.8076 177.592 81.8301C176.587 82.785 172.303 85.3436 169.666 85.3382C169.476 85.3378 169.296 85.3246 169.125 85.2955C168.423 85.1792 167.637 85.1097 166.834 85.108C164.723 85.1037 162.486 85.5675 161.304 86.8724C159.671 88.6743 158.57 90.7655 156.429 91.9638C154.287 93.1621 155.337 98.1357 155.035 98.9444C155.035 98.9444 152.428 98.6141 150.482 98.6101C149.51 98.6081 148.703 98.6878 148.469 98.9308C147.767 99.6588 148.054 102.819 147.644 103.84C147.234 104.862 147.281 106.819 148.095 106.966C148.836 107.101 150.056 108.121 150.723 108.122C150.789 108.123 150.85 108.112 150.904 108.091C151.506 107.851 153.645 106.852 154.87 106.572C156.094 106.292 156.148 104.699 157.068 103.38C157.986 102.06 157.987 99.6983 161.277 98.82C162.416 98.5159 163.416 98.3935 164.268 98.3952C165.877 98.3986 166.959 98.8453 167.456 99.3516C168.217 100.124 172.157 101.748 172.149 103.557C172.146 104.043 172.333 104.229 172.604 104.229C173.343 104.231 174.708 102.853 174.573 102.399C174.387 101.779 171.177 99.3082 170.186 98.4921C169.196 97.6751 168.899 96.0161 169.766 95.7561C169.796 95.7466 169.829 95.7426 169.864 95.7427C170.829 95.7447 173.498 99.0776 174.189 99.3655C174.906 99.6631 176.177 100.801 176.018 101.75C175.859 102.697 177.722 106.892 178.503 107.029C178.554 107.039 178.609 107.043 178.666 107.043C179.469 107.045 180.721 106.192 180.42 105.414C180.097 104.581 178.706 103.189 179.688 102.575C180.671 101.962 183.248 102.463 184.421 101.767C185.595 101.071 183.82 100.163 184.841 98.4426C185.795 96.8308 186.445 94.461 187.589 94.4633C187.666 94.4635 187.744 94.4748 187.827 94.4973C189.091 94.8471 189.114 98.0508 189.971 98.0526C189.991 98.0526 190.011 98.0511 190.032 98.0471C190.536 97.962 191.616 97.5675 192.829 97.57C193.826 97.5721 194.913 97.8417 195.846 98.7671C197.918 100.821 197.308 101.551 195.169 101.79C194.81 101.83 194.395 101.843 193.951 101.842C193.372 101.841 192.74 101.815 192.109 101.789C191.478 101.763 190.846 101.737 190.266 101.736C189.218 101.733 188.339 101.812 187.935 102.122C186.915 102.904 183.123 103.394 183.097 104.278C183.073 105.122 183.968 107.48 185.165 107.483C185.222 107.483 185.279 107.477 185.337 107.467C186.398 107.269 190.129 106.804 191.656 106.807C191.972 106.808 192.194 106.829 192.277 106.876C192.764 107.153 190.941 113.121 189.578 113.374C188.217 113.627 187.096 113.686 185.822 113.914C185.62 113.951 185.37 113.968 185.085 113.967C183.577 113.964 181.123 113.462 179.968 112.668C179.579 112.401 179.127 112.292 178.63 112.29C177.371 112.288 175.812 112.975 174.187 113.539C173.798 113.674 173.393 113.732 172.984 113.731C171.01 113.727 168.945 112.354 168.103 111.703C167.086 110.917 168.261 109.068 168.11 108.241C167.991 107.596 165.637 106.794 163.883 106.791C163.391 106.79 162.947 106.851 162.611 106.996C161.082 107.662 156.523 108.489 155.057 108.826C154.766 108.893 154.452 108.919 154.133 108.918C153.553 108.917 152.959 108.828 152.458 108.739C151.958 108.65 151.552 108.561 151.351 108.56C151.307 108.56 151.274 108.564 151.251 108.573C150.945 108.687 150.368 110.803 148.954 111.297C147.537 111.79 147.522 113.647 146.702 115.58C145.884 117.513 142.058 120.278 141.488 124.356C140.922 128.434 141.472 132.462 143.504 135.708C145.462 138.84 148.183 140.222 151.572 140.229C151.697 140.229 151.823 140.227 151.948 140.224C154.271 140.16 157.827 139.66 160.572 139.666C162.041 139.669 163.277 139.817 163.968 140.253C165.952 141.507 166.151 144.332 165.586 146.474C165.021 148.617 166.189 150.293 168.372 153.801C170.555 157.309 171.621 158.986 170.291 161.65C168.961 164.314 168.804 165.868 170.073 168.753C171.34 171.64 171.032 172.789 171.231 175.458C171.429 178.124 173.147 184.457 175.336 184.774C175.484 184.796 175.642 184.807 175.807 184.807C176.28 184.808 176.82 184.725 177.393 184.577C164.44 192.908 149.117 197.713 132.705 197.679ZM153.23 78.1507C151.939 78.148 150.142 78.8634 150.183 79.6344C150.238 80.7072 150.859 81.6567 151.817 83.0936C152.777 84.5298 151.187 89.9689 152.154 90.2829C152.344 90.3448 152.551 90.3739 152.77 90.3744C154.834 90.3786 157.975 87.8671 158.07 86.6853C158.175 85.3774 155.795 83.9519 155.333 82.5965C154.873 81.2396 155.117 79.4396 154.368 78.5194C154.158 78.262 153.732 78.1517 153.23 78.1507ZM149.38 82.482C149.36 82.482 149.34 82.4827 149.318 82.4835C147.943 82.5333 145.182 87.4424 147.115 88.5454C147.407 88.712 147.7 88.786 147.986 88.7866C149.356 88.7902 150.55 87.0975 150.567 85.744C150.589 84.1318 150.69 82.4848 149.38 82.482ZM184.58 179.397C186.225 177.006 188.278 173.676 189.878 172.515C191.817 171.108 190.872 167.44 191.919 166.264C192.965 165.089 196.499 163.063 196.261 159.873C196.022 156.682 194.758 152.496 196.291 149.728C197.825 146.959 204.081 142.519 204.884 140.381C205.672 138.281 207.264 135.524 205.922 135.522C205.897 135.522 205.872 135.522 205.845 135.524C204.601 135.609 203.574 136.091 201.609 136.087C201.24 136.086 200.838 136.068 200.395 136.027C197.594 135.767 195.968 130.605 195.108 129.627C194.246 128.648 191.075 123.556 191.103 122.105C191.129 120.654 188.823 116.348 189.995 116.297C190.001 116.297 190.006 116.297 190.012 116.297C191.195 116.3 194.135 121.594 195.084 123.212C196.038 124.835 197.957 128.271 198.696 130.322C199.362 132.171 200.339 132.992 201.333 132.994C201.442 132.994 201.55 132.985 201.658 132.966C202.762 132.774 212.198 128.236 213.503 126.702C214.81 125.167 215.484 122.505 214.092 121.857C212.88 121.293 212.179 119.786 211.773 119.785C211.712 119.785 211.659 119.819 211.611 119.894C211.246 120.459 210.04 121.674 209.031 121.672C209.014 121.672 208.997 121.672 208.981 121.671C207.961 121.628 205.088 117.818 204.611 116.526C204.147 115.266 205.369 114.237 205.949 114.238C205.963 114.238 205.977 114.239 205.991 114.239C206.548 114.292 208.235 118.271 210.455 118.275C210.465 118.275 210.473 118.275 210.483 118.275C210.522 118.274 210.562 118.275 210.6 118.275C212.727 118.279 212.97 119.133 214.528 119.905C214.887 120.084 215.508 120.141 216.26 120.143C216.313 120.143 216.366 120.142 216.42 120.142C214.956 135.188 209.726 149.087 201.714 160.843C199.245 164.463 196.514 167.88 193.546 171.063C190.759 174.054 187.76 176.843 184.58 179.397Z" fill="#107CE1"/>
<path d="M132.99 60.1131L133.044 33.9903C133.538 34.0432 134.094 34.0619 134.684 34.0631C135.316 34.0644 135.988 34.0459 136.66 34.0265C137.334 34.008 138.008 33.9886 138.65 33.9899C140.877 33.9945 142.695 34.2433 142.582 35.5847C142.367 38.1693 135.957 41.6653 136.319 43.8912C136.683 46.1171 134.757 58.1677 134.282 59.257C134.189 59.4731 133.715 59.7674 132.99 60.1131Z" fill="#6CC3BB"/>
<path d="M175.808 184.807C175.642 184.807 175.484 184.796 175.337 184.774C173.148 184.457 171.429 178.124 171.231 175.458C171.032 172.789 171.34 171.64 170.073 168.753C168.804 165.868 168.962 164.314 170.292 161.65C171.622 158.986 170.555 157.309 168.372 153.801C166.189 150.293 165.021 148.617 165.586 146.474C166.151 144.332 165.952 141.507 163.968 140.253C163.277 139.817 162.041 139.669 160.572 139.666C157.827 139.66 154.271 140.16 151.949 140.224C151.823 140.227 151.698 140.229 151.572 140.229C148.183 140.222 145.462 138.84 143.504 135.708C141.472 132.462 140.922 128.434 141.489 124.356C142.058 120.278 145.884 117.513 146.702 115.58C147.522 113.647 147.537 111.79 148.954 111.297C150.369 110.803 150.945 108.687 151.251 108.573C151.274 108.564 151.308 108.56 151.351 108.56C151.552 108.561 151.958 108.65 152.458 108.739C152.959 108.828 153.553 108.917 154.133 108.918C154.452 108.919 154.766 108.893 155.058 108.826C156.523 108.489 161.083 107.662 162.611 106.996C162.947 106.851 163.391 106.79 163.884 106.791C165.637 106.794 167.991 107.596 168.11 108.241C168.261 109.068 167.086 110.917 168.103 111.703C168.946 112.354 171.01 113.727 172.985 113.731C173.393 113.732 173.798 113.674 174.187 113.539C175.812 112.975 177.371 112.288 178.63 112.291C179.128 112.292 179.579 112.401 179.968 112.668C181.124 113.463 183.577 113.964 185.085 113.967C185.37 113.968 185.62 113.951 185.822 113.914C187.096 113.686 188.217 113.627 189.579 113.374C190.941 113.121 192.764 107.153 192.277 106.876C192.194 106.829 191.972 106.808 191.656 106.807C190.129 106.804 186.398 107.269 185.337 107.467C185.279 107.477 185.222 107.483 185.166 107.483C183.969 107.48 183.073 105.122 183.098 104.278C183.123 103.394 186.915 102.904 187.935 102.122C188.339 101.812 189.218 101.734 190.267 101.736C190.846 101.737 191.478 101.763 192.109 101.789C192.741 101.815 193.372 101.841 193.951 101.842C194.395 101.843 194.81 101.83 195.169 101.79C197.308 101.551 197.918 100.821 195.846 98.7671C194.913 97.8418 193.826 97.5722 192.829 97.5701C191.616 97.5676 190.536 97.962 190.032 98.0472C190.011 98.0511 189.991 98.0527 189.971 98.0526C189.114 98.0508 189.092 94.8472 187.827 94.4974C187.744 94.4749 187.666 94.4635 187.589 94.4634C186.445 94.461 185.796 96.8308 184.841 98.4426C183.82 100.163 185.595 101.071 184.421 101.768C183.248 102.463 180.671 101.962 179.688 102.575C178.706 103.189 180.097 104.581 180.421 105.415C180.721 106.193 179.469 107.045 178.667 107.043C178.609 107.043 178.554 107.039 178.503 107.029C177.723 106.892 175.859 102.697 176.018 101.75C176.177 100.801 174.906 99.6631 174.189 99.3656C173.498 99.0776 170.829 95.7448 169.864 95.7428C169.829 95.7427 169.796 95.7466 169.766 95.7561C168.899 96.0161 169.196 97.6752 170.186 98.4921C171.177 99.3082 174.388 101.779 174.573 102.399C174.708 102.853 173.343 104.231 172.604 104.229C172.334 104.229 172.147 104.043 172.149 103.557C172.158 101.748 168.217 100.124 167.456 99.3516C166.959 98.8454 165.877 98.3986 164.268 98.3953C163.416 98.3935 162.416 98.5159 161.277 98.8201C157.988 99.6983 157.986 102.06 157.068 103.38C156.148 104.699 156.094 106.292 154.87 106.572C153.645 106.852 151.507 107.851 150.904 108.091C150.85 108.112 150.789 108.123 150.723 108.123C150.056 108.121 148.836 107.101 148.095 106.966C147.282 106.819 147.234 104.862 147.644 103.84C148.054 102.819 147.768 99.6588 148.469 98.9308C148.703 98.6879 149.51 98.6081 150.483 98.6101C152.428 98.6142 155.035 98.9444 155.035 98.9444C155.337 98.1357 154.287 93.1622 156.429 91.9638C158.57 90.7655 159.671 88.6744 161.304 86.8724C162.486 85.5676 164.723 85.1037 166.834 85.1081C167.637 85.1097 168.423 85.1792 169.125 85.2956C169.296 85.3247 169.476 85.3378 169.666 85.3382C172.303 85.3437 176.587 82.785 177.593 81.8302C178.67 80.8076 180.373 80.2373 180.166 78.3119C179.961 76.3864 185.239 76.3869 185.087 75.4042C185.038 75.0832 184.494 74.9751 183.745 74.9736C182.995 74.972 182.038 75.077 181.164 75.1829C180.29 75.2881 179.499 75.3934 179.08 75.3925C179.054 75.3925 179.03 75.3924 179.007 75.3916C177.868 75.3469 178.575 72.294 179.382 70.5702C180.189 68.8463 181.947 66.9672 180.539 66.3506C180.404 66.2912 180.271 66.2638 180.139 66.2636C178.908 66.261 177.813 68.6626 175.931 69.7785C173.85 71.0128 173.856 74.4192 173.932 76.0427C174.008 77.667 173.424 80.9213 172.161 81.6761C171.621 81.999 171.194 82.1729 170.835 82.1721C170.353 82.1711 169.993 81.8568 169.644 81.1681C169.037 79.9656 168.429 77.4503 168.053 76.8214C168.007 76.7439 167.942 76.7095 167.863 76.7093C167.296 76.7082 165.97 78.4397 165.166 78.8203C165.05 78.8752 164.921 78.9004 164.785 78.9001C163.838 78.8982 162.494 77.6424 162.165 75.9313C161.787 73.9712 163.461 71.7575 165.257 70.7516C167.055 69.7457 170.308 65.0181 171.994 62.6783C173.678 60.337 179.488 57.9116 182.845 57.4149C183.134 57.3716 183.422 57.3523 183.709 57.3529C186.76 57.3592 189.633 59.627 190.57 60.0894C191.595 60.596 197.998 63.5486 197.61 64.6508C197.453 65.0974 196.338 65.25 194.977 65.2472C192.983 65.243 190.461 64.9058 189.669 64.6791C189.573 64.651 189.499 64.638 189.445 64.6379C188.742 64.6365 191.274 66.7894 192.03 68.2435C192.38 68.9187 192.826 69.1439 193.356 69.145C194.055 69.1464 194.902 68.7571 195.87 68.4933C197.57 68.0315 199.063 66.009 200.751 65.5169C201.768 65.2213 202.48 65.1597 203.497 64.8178C211.972 78.3138 216.876 94.3947 216.84 111.65C216.834 114.515 216.692 117.35 216.42 120.142C216.366 120.142 216.313 120.143 216.261 120.143C215.508 120.141 214.887 120.084 214.528 119.905C212.97 119.133 212.727 118.279 210.6 118.275C210.562 118.275 210.522 118.275 210.483 118.275C210.473 118.275 210.465 118.275 210.456 118.275C208.236 118.271 206.549 114.293 205.991 114.24C205.977 114.239 205.963 114.238 205.949 114.238C205.369 114.237 204.147 115.266 204.612 116.526C205.088 117.818 207.961 121.628 208.981 121.671C208.997 121.672 209.014 121.672 209.032 121.672C210.04 121.674 211.246 120.459 211.611 119.894C211.659 119.819 211.713 119.785 211.773 119.786C212.179 119.786 212.88 121.293 214.092 121.857C215.485 122.505 214.81 125.167 213.503 126.702C212.198 128.236 202.762 132.774 201.658 132.966C201.55 132.985 201.442 132.994 201.333 132.994C200.339 132.992 199.362 132.171 198.696 130.322C197.958 128.271 196.038 124.835 195.084 123.212C194.135 121.594 191.195 116.3 190.013 116.297C190.006 116.297 190.001 116.297 189.995 116.297C188.823 116.348 191.129 120.654 191.104 122.105C191.076 123.556 194.247 128.648 195.108 129.627C195.968 130.605 197.594 135.767 200.395 136.027C200.838 136.068 201.24 136.086 201.609 136.087C203.575 136.091 204.602 135.609 205.845 135.524C205.872 135.522 205.898 135.522 205.922 135.522C207.264 135.524 205.672 138.281 204.884 140.381C204.081 142.519 197.826 146.959 196.292 149.728C194.758 152.496 196.022 156.682 196.261 159.873C196.499 163.063 192.966 165.089 191.919 166.264C190.872 167.44 191.817 171.108 189.878 172.515C188.279 173.676 186.225 177.007 184.581 179.397C182.276 181.249 179.881 182.976 177.393 184.577C176.82 184.726 176.28 184.808 175.808 184.807Z" fill="#6CC3BB"/>
<path d="M152.77 90.3744C152.551 90.3739 152.344 90.3448 152.154 90.2829C151.188 89.9689 152.777 84.5299 151.817 83.0937C150.859 81.6567 150.238 80.7072 150.183 79.6345C150.142 78.8634 151.94 78.148 153.23 78.1507C153.732 78.1518 154.158 78.262 154.368 78.5194C155.117 79.4396 154.873 81.2396 155.333 82.5965C155.795 83.9519 158.175 85.3775 158.07 86.6853C157.975 87.8671 154.835 90.3787 152.77 90.3744Z" fill="#6CC3BB"/>
<path d="M147.986 88.7866C147.701 88.786 147.407 88.712 147.115 88.5454C145.183 87.4424 147.943 82.5333 149.318 82.4835C149.34 82.4828 149.36 82.482 149.38 82.4821C150.69 82.4848 150.589 84.1318 150.567 85.744C150.551 87.0975 149.356 88.7902 147.986 88.7866Z" fill="#6CC3BB"/>
<path d="M99.2431 140.129C97.6477 135.436 93.3158 132.06 88.2011 132.05C86.8291 132.047 85.5181 132.299 84.2937 132.74C83.1747 123.165 75.253 115.732 65.6214 115.712C61.9354 115.704 58.4974 116.788 55.588 118.661C52.0957 111.455 44.8622 106.495 36.4898 106.478C24.6848 106.454 15.0936 116.261 15.0685 128.382C15.0679 128.65 15.078 128.915 15.0866 129.18L15.0668 129.18C8.47402 129.166 2.92105 133.716 1.21094 139.926L99.2431 140.129Z" fill="white"/>
<path d="M200.884 43.3297C200.434 38.9081 196.8 35.4575 192.373 35.4484C190.511 35.4445 188.79 36.0571 187.382 37.0893C187.438 36.494 187.47 35.8915 187.471 35.281C187.493 24.9439 179.35 16.5485 169.283 16.5277C159.215 16.5068 151.038 24.8684 151.016 35.2055C151.016 35.3835 151.024 35.5599 151.028 35.7363C150.248 35.4944 149.422 35.3594 148.565 35.3577C144.138 35.3485 140.489 38.784 140.022 43.2037L200.884 43.3297Z" fill="white"/>
<path d="M132.131 13.2695C126.629 9.07045 125.11 6.51494 125.11 6.51494C124.668 5.86756 124.408 5.08007 124.41 4.22929C124.415 2.0353 126.151 0.25993 128.288 0.264356C130.341 0.268604 132.014 1.91138 132.139 3.98513L132.15 3.98356L132.158 3.98517C132.294 1.91196 133.974 0.276127 136.027 0.280375C138.164 0.284801 139.893 2.06735 139.889 4.26134C139.887 5.11212 139.624 5.89852 139.177 6.54406C139.177 6.54406 137.648 9.09326 132.131 13.2695Z" fill="#A6DFF2"/>
<path d="M16.7704 104.152C5.89655 95.8495 2.8919 90.796 2.8919 90.796C2.01611 89.5164 1.50343 87.959 1.50691 86.2774C1.51589 81.9397 4.94822 78.4296 9.17328 78.4383C13.2311 78.4467 16.5402 81.6947 16.7913 85.7951L16.8084 85.7911L16.8294 85.7952C17.0944 81.6958 20.4171 78.4616 24.4739 78.47C28.7001 78.4788 32.1176 82.0031 32.1086 86.3408C32.1052 88.0224 31.5858 89.5776 30.7079 90.8536C30.7079 90.8536 27.6823 95.8946 16.7704 104.152Z" fill="#A6DFF2"/>
<path d="M62.9203 25.5959C58.0907 21.909 56.756 19.6644 56.756 19.6644C56.367 19.0961 56.1391 18.4044 56.1407 17.6574C56.1447 15.7308 57.6699 14.1721 59.5463 14.1759C61.3481 14.1797 62.8173 15.6225 62.9294 17.4432L62.9372 17.4416L62.9457 17.4433C63.0637 15.623 64.5389 14.1863 66.3415 14.19C68.2179 14.1939 69.7359 15.7589 69.7319 17.6856C69.7303 18.4326 69.4996 19.1233 69.1098 19.6899C69.1098 19.6899 67.7658 21.929 62.9203 25.5959Z" fill="#7CC9F3"/>
<path d="M36.6625 61.0374C33.4627 58.5942 32.5789 57.107 32.5789 57.107C32.3216 56.7306 32.171 56.2722 32.172 55.7765C32.1746 54.5012 33.1834 53.4689 34.4271 53.4715C35.6218 53.474 36.5946 54.4289 36.6675 55.6358L36.6737 55.635L36.6799 55.6358C36.757 54.4292 37.7353 53.4783 38.93 53.4808C40.1714 53.4834 41.1774 54.5198 41.1748 55.7952C41.1737 56.2908 41.0212 56.7486 40.7624 57.124C40.7624 57.124 39.8724 58.6074 36.6625 61.0374Z" fill="#7CC9F3"/>
</g>
<defs>
<clipPath id="clip0_214_6057">
<rect width="265" height="296.457" fill="white" transform="translate(0.61377) rotate(0.118618)"/>
</clipPath>
</defs>
</svg>
