<svg width="350" height="350" viewBox="0 0 350 350" fill="none" xmlns="http://www.w3.org/2000/svg">
<path d="M174.785 93.8525C121.258 91.2415 92.5416 61.1534 54.8881 91.8708C17.235 122.588 -5.5552 265.77 92.046 310.855C193.643 357.785 274.863 313.332 309.544 267.256C344.224 221.18 339.27 133.488 302.607 99.3027C265.945 65.1175 215.41 95.8342 174.785 93.8525Z" fill="#CAD7F7"/>
<path d="M274.486 191.577C257.791 186.393 244.659 173.748 229.87 164.426C191.53 140.262 139.503 139.83 100.767 163.354C91.6596 168.885 83.1609 175.659 73.1572 179.33C56.5457 185.426 36.8851 181.26 23.5377 169.809C18.3791 221.892 33.6979 283.902 92.046 310.855C193.643 357.785 274.863 313.332 309.544 267.256C326.018 245.369 333.542 214.09 332.979 183.617C314.015 192.499 294.004 197.639 274.486 191.577Z" fill="#B0C4F3"/>
<path d="M312.846 230.264L319.232 199.546L294.79 195.142L289.065 225.97L278.496 223.988L279.817 212.097L266.275 210.115L269.028 183.032L240.512 179.398L236.549 215.731L121.277 222.006L115.001 173.123L66.4484 181.49L74.3751 226.3L54.9706 230.346L48.2823 199.216L23.2983 204.625C27.0431 247.131 46.348 289.745 92.0459 310.855C193.643 357.785 274.863 313.332 309.544 267.256C316.967 257.393 322.568 245.621 326.438 232.877L312.846 230.264Z" fill="#8CA9ED"/>
<path d="M82.5727 193.299L74.4051 194.72L72.9834 186.553L81.1517 185.131L82.5727 193.299Z" fill="#C4ECF6"/>
<path d="M98.5097 190.492L90.3421 191.913L88.9204 183.745L97.088 182.324L98.5097 190.492Z" fill="#C4ECF6"/>
<path d="M85.4633 208.244L77.2957 209.666L75.874 201.499L84.0416 200.077L85.4633 208.244Z" fill="#C4ECF6"/>
<path d="M304.409 199.993L303.231 206.639L296.585 205.461L297.763 198.815L304.409 199.993Z" fill="#C4ECF6"/>
<path d="M265.108 186.164L264.433 192.88L258.73 192.308L259.405 185.592L265.108 186.164Z" fill="#C4ECF6"/>
<path d="M257.706 185.301L257.032 192.016L242.078 190.514L242.752 183.798L257.706 185.301Z" fill="#C4ECF6"/>
<path d="M264.116 201.688L263.442 208.404L257.739 207.831L258.413 201.115L264.116 201.688Z" fill="#C4ECF6"/>
<path d="M256.716 200.824L256.041 207.54L241.087 206.038L241.762 199.322L256.716 200.824Z" fill="#C4ECF6"/>
<path d="M262.355 217.652L261.68 224.368L255.978 223.795L256.652 217.079L262.355 217.652Z" fill="#C4ECF6"/>
<path d="M254.954 216.788L254.28 223.504L239.326 222.002L240 215.286L254.954 216.788Z" fill="#C4ECF6"/>
<path d="M260.704 232.075L260.029 238.791L254.326 238.218L255.001 231.502L260.704 232.075Z" fill="#C4ECF6"/>
<path d="M253.303 231.211L252.628 237.927L237.674 236.425L238.349 229.709L253.303 231.211Z" fill="#C4ECF6"/>
<path d="M315.419 201.975L314.241 208.62L307.595 207.443L308.772 200.797L315.419 201.975Z" fill="#C4ECF6"/>
<path d="M302.427 210.011L301.249 216.658L294.604 215.48L295.781 208.834L302.427 210.011Z" fill="#C4ECF6"/>
<path d="M313.437 211.993L312.26 218.639L305.613 217.462L306.791 210.816L313.437 211.993Z" fill="#C4ECF6"/>
<path d="M300.335 220.581L299.158 227.227L292.511 226.05L293.689 219.403L300.335 220.581Z" fill="#C4ECF6"/>
<path d="M311.345 222.562L310.167 229.209L303.521 228.031L304.699 221.385L311.345 222.562Z" fill="#C4ECF6"/>
<path d="M298.354 231.15L297.176 237.796L290.53 236.619L291.707 229.972L298.354 231.15Z" fill="#C4ECF6"/>
<path d="M309.363 233.132L308.186 239.778L301.54 238.601L302.717 231.955L309.363 233.132Z" fill="#C4ECF6"/>
<path d="M296.041 242.491L294.864 249.136L288.217 247.959L289.395 241.312L296.041 242.491Z" fill="#C4ECF6"/>
<path d="M307.051 244.472L305.874 251.118L299.228 249.941L300.405 243.295L307.051 244.472Z" fill="#C4ECF6"/>
<path d="M46.8147 212.132L28.7028 216.217L26.8789 208.129L44.9912 204.044L46.8147 212.132Z" fill="#C4ECF6"/>
<path d="M49.3745 224.601L31.2623 228.685L29.4385 220.597L47.5507 216.514L49.3745 224.601Z" fill="#C4ECF6"/>
<path d="M52.1819 237.317L34.0699 241.401L32.2461 233.314L50.358 229.23L52.1819 237.317Z" fill="#C4ECF6"/>
<path d="M101.4 205.437L93.232 206.858L91.811 198.691L99.9786 197.27L101.4 205.437Z" fill="#C4ECF6"/>
<path d="M88.4353 225.007L80.2677 226.428L78.8467 218.261L87.0143 216.84L88.4353 225.007Z" fill="#C4ECF6"/>
<path d="M104.373 222.2L96.2049 223.621L94.7832 215.453L102.951 214.032L104.373 222.2Z" fill="#C4ECF6"/>
<path d="M91.5737 242.265L83.4061 243.686L81.9844 235.519L90.152 234.097L91.5737 242.265Z" fill="#C4ECF6"/>
<path d="M107.509 239.457L99.3419 240.878L97.9209 232.711L106.089 231.29L107.509 239.457Z" fill="#C4ECF6"/>
<path d="M313.302 258.405C313.366 258.222 313.43 258.037 313.5 257.856C313.689 257.372 313.855 256.883 314.037 256.397C314.222 255.902 314.434 255.454 314.703 254.999C314.906 254.656 314.41 254.246 314.137 254.563C313.404 255.415 312.569 256.171 311.894 257.072C311.825 257.164 311.757 257.257 311.688 257.349C311.596 257.116 311.5 256.884 311.395 256.656C311.166 256.154 310.92 255.66 310.682 255.161C310.551 254.887 310.43 254.619 310.231 254.386C310.026 254.145 309.659 254.03 309.403 254.276C308.985 254.677 309.301 255.443 309.419 255.926C309.548 256.448 309.659 256.982 309.815 257.498L309.84 257.577C308.129 257.181 306.4 256.791 304.656 256.409C304.918 256.207 305.184 256.011 305.466 255.822C305.693 255.67 305.933 255.537 306.134 255.351C306.348 255.153 306.602 255.044 306.863 254.92C307.212 254.754 306.962 254.218 306.606 254.31C306.394 254.365 306.176 254.451 305.959 254.481C305.684 254.519 305.437 254.535 305.168 254.617C304.706 254.758 304.25 254.92 303.803 255.103C303.391 255.271 302.972 255.448 302.578 255.662C302.702 255.454 302.825 255.245 302.963 255.046C303.061 254.902 303.163 254.761 303.269 254.622L303.34 254.533C303.398 254.46 303.457 254.389 303.518 254.318C303.965 253.788 304.475 253.324 304.924 252.797C305.394 252.245 305.882 251.765 306.511 251.399L306.48 251.326C305.781 251.507 305.069 251.646 304.379 251.863C303.588 252.111 302.938 252.582 302.291 253.091C301.882 253.41 301.483 253.761 301.111 254.138C301.064 253.732 301.019 253.326 300.985 252.923C300.895 251.852 300.847 250.778 300.758 249.707C300.662 248.538 300.342 247.397 300.296 246.224C300.279 245.82 299.726 245.839 299.681 246.224C299.544 247.397 299.158 248.529 299.05 249.707C298.947 250.82 298.898 251.941 298.847 253.058C298.833 253.385 298.815 253.716 298.798 254.048C297.962 252.803 297.031 251.616 296.047 250.475C295.871 250.272 295.578 250.531 295.69 250.75C296.39 252.118 297.029 253.514 297.659 254.915C291.63 253.689 285.414 252.552 279.031 251.506C278.997 251.222 278.97 250.935 278.927 250.656C278.778 249.692 278.589 248.713 278.327 247.774C278.05 246.778 277.616 245.848 277.285 244.87C277.221 244.681 276.905 244.699 276.918 244.92C276.979 245.94 276.867 246.954 276.846 247.975C276.827 248.929 276.818 249.882 276.788 250.835C276.785 250.936 276.782 251.036 276.778 251.136C276.682 251.121 276.587 251.105 276.49 251.089L276.406 250.982C276.03 250.538 275.653 250.095 275.261 249.665C274.848 249.215 274.463 248.723 273.899 248.464C273.518 248.289 273.174 248.576 273.232 248.977C273.32 249.578 273.668 250.083 273.952 250.61L274.001 250.702C268.61 249.871 263.108 249.104 257.498 248.407C257.876 247.806 258.254 247.207 258.579 246.574C258.781 246.181 258.899 245.764 259.057 245.352C259.217 244.936 259.292 244.511 259.507 244.12C259.627 243.902 259.328 243.646 259.15 243.845C258.602 244.46 257.807 244.842 257.238 245.445C256.815 245.893 256.429 246.37 256.047 246.851C256.069 246.656 256.098 246.463 256.116 246.268C256.199 245.398 256.287 244.527 256.38 243.659C256.426 243.223 256.487 242.794 256.473 242.356C256.466 242.143 256.48 241.917 256.453 241.705C256.429 241.516 256.323 241.334 256.333 241.148C256.358 240.706 255.732 240.669 255.599 241.048C255.538 241.221 255.342 241.396 255.255 241.565C255.173 241.724 255.109 241.895 255.038 242.059C254.858 242.472 254.743 242.893 254.625 243.326C254.385 244.207 254.151 245.088 253.921 245.97C253.797 246.447 253.685 246.922 253.578 247.4L253.442 247.218C252.949 246.577 252.442 245.972 251.87 245.4C251.308 244.84 250.759 244.296 250.075 243.888C249.685 243.655 249.315 244.105 249.491 244.472C249.811 245.14 250.239 245.729 250.629 246.357C250.903 246.798 251.176 247.24 251.449 247.681C227.536 244.959 201.836 243.475 175.066 243.475C146.089 243.475 118.38 245.223 92.824 248.393C92.7246 247.891 92.614 247.391 92.5125 246.891C92.4432 246.545 92.362 246.217 92.2493 245.883C92.1492 245.584 92.026 245.345 91.9658 245.036C91.8923 244.657 91.3687 244.787 91.3365 245.122C91.3071 245.433 91.1944 245.714 91.1279 246.023C91.0516 246.38 91.0215 246.732 90.997 247.096C90.9718 247.467 90.9438 247.839 90.9221 248.212C90.4881 247.955 90.0513 247.711 89.5893 247.503C89.0468 247.26 88.498 247.028 87.9443 246.809C87.5383 246.648 86.6248 246.193 86.405 246.843C86.2167 247.402 86.8992 247.782 87.2548 248.08C87.5999 248.37 87.9359 248.672 88.2691 248.976C83.108 249.658 78.0295 250.391 73.0602 251.187C73.0812 251.008 73.1036 250.828 73.1204 250.648C73.2324 249.469 73.4214 248.312 73.7511 247.174C73.8491 246.835 73.3122 246.588 73.1652 246.927C72.6787 248.053 72.1859 249.182 71.7785 250.34C71.7274 250.485 71.6889 250.633 71.6441 250.778C71.3935 250.113 71.1289 249.453 70.8412 248.802C70.0957 247.12 69.239 245.407 67.8217 244.196C67.769 244.151 67.6992 244.195 67.7102 244.261C68.0058 246.056 68.7345 247.733 69.2409 249.476C69.3273 249.775 69.4039 250.076 69.4821 250.377C68.9316 249.959 68.3736 249.559 67.7711 249.206C67.3821 248.977 66.9866 248.774 66.5784 248.581C66.1855 248.396 65.7477 248.191 65.3072 248.34C65.1932 248.378 65.0827 248.489 65.0934 248.62C65.1273 249.042 65.3895 249.355 65.6799 249.638C65.9985 249.949 66.3135 250.26 66.6394 250.564C67.1521 251.041 67.6719 251.508 68.1904 251.978C60.3979 253.301 52.8907 254.776 45.6523 256.371C45.7217 255.653 45.8557 254.95 46.0816 254.251C46.1989 253.888 45.6922 253.718 45.4962 254.004C45.2044 254.429 44.9378 254.883 44.704 255.353C44.4891 254.863 44.273 254.374 44.0616 253.882C43.8998 253.507 43.7306 253.121 43.526 252.766C43.4104 252.565 43.2709 252.364 43.1281 252.182C43.0259 252.052 42.8326 251.931 42.7609 251.784C42.6061 251.467 42.1667 251.703 42.2241 252.011L42.2376 252.082C41.9871 252.762 42.2699 253.725 42.4328 254.376C42.6362 255.188 42.8673 255.995 43.0926 256.801L43.1271 256.925C42.8591 256.986 42.5835 257.043 42.3166 257.104C42.0355 256.962 41.7566 256.816 41.4728 256.679C40.9199 256.413 40.4011 256.196 39.7851 256.155C39.5581 256.14 39.4939 256.419 39.6153 256.566C39.9279 256.943 40.3057 257.214 40.7091 257.474C39.7354 257.701 38.7633 257.928 37.8008 258.159C48.7166 280.01 66.1403 298.888 92.0463 310.855C193.644 357.785 274.863 313.332 309.544 267.256C311.551 264.589 313.419 261.778 315.163 258.851C314.55 258.699 313.924 258.553 313.302 258.405Z" fill="#4AC1A6"/>
<path d="M144.494 124.398C144.494 124.398 137.901 121.236 134.335 123.792C130.77 126.349 137.855 141.378 148.732 139.467C153.71 138.593 157.68 124.667 152.903 120.227C148.126 115.786 144.494 124.398 144.494 124.398Z" fill="#F14A64"/>
<path d="M204.151 134.08C204.151 134.08 203.021 130.703 200.918 130.324C198.816 129.945 195.965 137.516 200.32 140.67C202.314 142.114 208.527 138.781 208.46 135.605C208.392 132.431 204.151 134.08 204.151 134.08Z" fill="#F14A64"/>
<path d="M90.5159 160.917C90.5159 160.917 86.2781 161.576 85.4017 163.996C84.526 166.416 92.9407 171.333 97.567 166.8C99.6845 164.725 96.9825 156.672 93.199 156.11C89.4155 155.547 90.5159 160.917 90.5159 160.917Z" fill="#F14A64"/>
<path d="M241.785 160.183C241.785 160.183 239.929 155.964 237.174 155.723C234.42 155.483 231.64 165.581 237.627 169.131C240.367 170.756 247.982 165.724 247.52 161.639C247.058 157.555 241.785 160.183 241.785 160.183Z" fill="#F14A64"/>
<path d="M270.32 82.4705C270.32 82.4705 288.786 79.9043 316.411 97.9202C316.411 97.9202 327.961 70.9632 302.395 62.3924C277.523 54.0554 270.32 82.4705 270.32 82.4705Z" fill="#537EE4"/>
<path d="M310.423 93.2582C309.934 92.9019 309.435 92.5596 308.936 92.2159C309.023 91.945 309.107 91.6776 309.192 91.4207C309.576 90.2741 309.909 89.1121 310.193 87.9375C310.723 85.736 311.085 83.4932 311.271 81.2364C311.652 76.622 311.288 71.9341 310.204 67.4324C310.09 66.9592 309.958 66.4909 309.826 66.0226C309.545 65.8287 309.257 65.6376 308.961 65.4507C309.265 66.5126 309.543 67.5822 309.768 68.6623C310.369 71.5456 310.674 74.4884 310.676 77.4333C310.68 80.374 310.403 83.3203 309.817 86.2029C309.539 87.5686 309.194 88.9217 308.783 90.2538C308.63 90.7473 308.438 91.2415 308.243 91.7371C306.903 90.839 305.532 89.9913 304.145 89.1709C301.427 87.5651 298.602 86.1483 295.685 84.9443C295.568 84.896 295.45 84.8533 295.333 84.8064C295.92 83.307 296.401 81.7488 296.954 80.2571C297.797 77.987 298.655 75.7218 299.528 73.4629C300.89 69.9398 302.165 66.3313 303.677 62.8516C303.526 62.7942 303.37 62.7396 303.215 62.6836C302.687 63.7686 302.233 64.8935 301.767 66.0275C300.845 68.2682 299.938 70.5145 299.063 72.7734C298.188 75.0309 297.328 77.2954 296.483 79.5648C295.878 81.1916 295.163 82.845 294.613 84.5236C291.967 83.4827 289.261 82.5958 286.506 81.8916C284.971 81.4989 283.423 81.1587 281.863 80.8857C281.316 80.7905 280.754 80.6785 280.186 80.5805C282.154 75.0477 284.848 69.7914 288.949 65.5025C290.664 63.7084 292.609 62.1425 294.751 60.8874C294.245 60.8643 293.75 60.8601 293.264 60.8699C292.591 61.3186 291.944 61.7918 291.329 62.279C287.497 65.3149 284.619 69.3854 282.466 73.7429C281.849 74.991 281.283 76.2657 280.775 77.5614C280.412 78.4826 279.995 79.5018 279.827 80.5224C278.95 80.3824 278.066 80.2886 277.21 80.3551L277.205 80.458C278.026 80.7296 278.897 80.878 279.77 81.0117C279.753 81.2364 279.745 81.4604 279.76 81.6823L279.802 81.6907C279.874 81.4765 279.949 81.2637 280.023 81.0509C280.614 81.1398 281.202 81.2266 281.775 81.3449C283.303 81.6592 284.823 82.0127 286.329 82.4187C289.079 83.1607 291.778 84.0847 294.413 85.162C294.275 85.6268 294.147 86.0923 294.044 86.5606C294.191 86.6138 294.34 86.6691 294.488 86.723C294.7 86.3023 294.896 85.8704 295.08 85.4322C295.161 85.4665 295.243 85.4966 295.324 85.5309C298.263 86.7818 301.124 88.2252 303.868 89.8611C305.209 90.6605 306.507 91.5306 307.777 92.4385L307.929 92.5512C307.897 92.6373 307.871 92.7234 307.84 92.8088C308.088 92.9432 308.332 93.072 308.581 93.2099L308.637 93.0769C308.94 93.3016 309.245 93.5235 309.545 93.751C310.305 94.1801 311.073 94.6239 311.85 95.0852C311.997 94.983 312.085 94.7919 311.975 94.6267C311.584 94.038 310.989 93.6712 310.423 93.2582Z" fill="white"/>
<path d="M285.032 115.617L284.937 115.599C284.758 115.539 284.662 115.346 284.722 115.167L295.586 82.754C295.647 82.5748 295.841 82.4769 296.019 82.5385C296.198 82.5987 296.295 82.7919 296.235 82.9711L285.37 115.384C285.32 115.532 285.18 115.623 285.032 115.617Z" fill="#1A203F"/>
<path d="M288.525 119.226C288.428 119.222 288.335 119.178 288.271 119.097C288.154 118.949 288.179 118.734 288.327 118.616L315.101 97.4582C315.249 97.3427 315.464 97.3658 315.581 97.5142C315.697 97.6626 315.672 97.8768 315.525 97.9944L288.751 119.153C288.684 119.206 288.604 119.23 288.525 119.226Z" fill="#1A203F"/>
<path d="M281.321 116.811C281.178 116.805 281.048 116.708 281.007 116.561L271.767 83.3323C271.717 83.1503 271.822 82.962 272.004 82.9116C272.19 82.8619 272.375 82.9676 272.425 83.1489L281.665 116.378C281.715 116.56 281.61 116.749 281.428 116.799L281.321 116.811Z" fill="#1A203F"/>
<path d="M283.206 114.308C283.019 114.3 282.873 114.143 282.879 113.956L283.707 87.584C283.712 87.3957 283.87 87.2473 284.059 87.2529L284.062 87.2536C284.249 87.2613 284.395 87.4181 284.39 87.605L283.562 113.977C283.556 114.166 283.398 114.314 283.21 114.308H283.206Z" fill="#1A203F"/>
<path d="M287.641 116.143C287.573 116.141 287.505 116.117 287.447 116.071C287.298 115.956 287.27 115.742 287.387 115.592L303.035 95.4087C303.151 95.2589 303.366 95.233 303.515 95.3478C303.664 95.4633 303.691 95.6782 303.575 95.8273L287.926 116.011C287.856 116.102 287.748 116.148 287.641 116.143Z" fill="#1A203F"/>
<path d="M296.676 149.593L263.498 143.744L269.346 110.566L302.525 116.415L296.676 149.593Z" fill="#CE7E5A"/>
<path d="M290.067 131.91C289.339 136.042 285.399 138.802 281.267 138.073C277.135 137.345 274.376 133.405 275.105 129.273C275.833 125.141 279.773 122.382 283.905 123.11C288.036 123.838 290.796 127.779 290.067 131.91Z" fill="white"/>
<path d="M288.646 131.66C288.056 135.007 284.864 137.242 281.518 136.652C278.17 136.062 275.935 132.871 276.525 129.523C277.115 126.176 280.307 123.941 283.654 124.531C287.001 125.122 289.236 128.313 288.646 131.66Z" fill="#F14A64"/>
<path d="M286.857 129.786L284.363 129.347L284.803 126.853C284.845 126.613 284.685 126.385 284.446 126.343L282.291 125.963C282.051 125.92 281.823 126.081 281.78 126.32L281.341 128.814L278.847 128.374C278.607 128.332 278.379 128.492 278.337 128.731L277.957 130.887C277.915 131.126 278.074 131.354 278.314 131.397L280.808 131.837L280.368 134.331C280.326 134.57 280.486 134.798 280.725 134.84L282.881 135.22C283.12 135.262 283.349 135.103 283.391 134.863L283.831 132.369L286.325 132.809C286.564 132.851 286.792 132.691 286.834 132.452L287.214 130.297C287.256 130.057 287.097 129.828 286.857 129.786Z" fill="white"/>
<path d="M287.925 120.178L281.128 118.98L282.212 112.834L289.008 114.032L287.925 120.178Z" fill="#F9A86F"/>
<path d="M270.32 82.4705C267.855 89.6567 314.6 106.161 316.672 97.3112C317.881 92.1431 305.411 85.176 293.355 81.1349C281.298 77.0931 272.52 76.0557 270.32 82.4705Z" fill="#1A203F"/>
<path d="M85.3525 86.1077C85.3525 86.1077 70.7974 83.4554 48.2928 96.8163C48.2928 96.8163 40.0358 75.0561 60.5933 69.1166C80.5918 63.3381 85.3525 86.1077 85.3525 86.1077Z" fill="#537EE4"/>
<path d="M53.196 93.3205C53.5958 93.0538 54.003 92.799 54.4098 92.5435C54.35 92.3258 54.2923 92.1102 54.233 91.9037C53.9674 90.9825 53.7421 90.0494 53.5568 89.1086C53.2092 87.346 52.9975 85.5554 52.9256 83.7599C52.7786 80.0884 53.2237 76.384 54.2335 72.8511C54.3396 72.4794 54.4602 72.1126 54.5802 71.7458C54.8091 71.6016 55.044 71.4602 55.2854 71.3216C55.0087 72.1532 54.7525 72.9918 54.5375 73.8409C53.9647 76.1068 53.6251 78.4294 53.5239 80.7646C53.4231 83.0963 53.5444 85.4413 53.9125 87.7464C54.0869 88.8384 54.3156 89.9227 54.5969 90.9923C54.701 91.3892 54.8375 91.7875 54.9756 92.1872C56.0672 91.5201 57.1828 90.8936 58.3105 90.2895C60.5182 89.1072 62.8058 88.0782 65.1592 87.2207C65.253 87.1864 65.3485 87.157 65.4425 87.1234C65.0269 85.9152 64.6982 84.6636 64.3091 83.4624C63.7171 81.634 63.1125 79.8098 62.496 77.9898C61.5343 75.1506 60.644 72.247 59.5611 69.4372C59.6831 69.3973 59.8089 69.3588 59.9331 69.3196C60.3153 70.1974 60.6379 71.1046 60.9699 72.0195C61.6256 73.8269 62.2693 75.6378 62.8878 77.4578C63.5063 79.2778 64.1123 81.1013 64.7064 82.929C65.1319 84.2394 65.6429 85.5743 66.0233 86.9232C68.1558 86.1868 70.3313 85.5743 72.5391 85.1074C73.769 84.8477 75.0073 84.6293 76.254 84.4655C76.6901 84.4081 77.1402 84.3388 77.5938 84.28C76.2183 79.8273 74.2576 75.5692 71.1503 72.0314C69.8503 70.5523 68.3604 69.2454 66.7044 68.1786C67.1058 68.1772 67.4982 68.1905 67.8838 68.215C68.4025 68.593 68.8998 68.9899 69.3705 69.3959C72.3081 71.932 74.4529 75.2549 76.0146 78.7822C76.4619 79.7923 76.8672 80.822 77.2277 81.8664C77.4846 82.6084 77.7807 83.4309 77.8794 84.2457C78.5794 84.1638 79.2843 84.119 79.9605 84.2002L79.9619 84.2821C79.3011 84.4697 78.6053 84.5586 77.9088 84.6356C77.9151 84.8141 77.9137 84.9919 77.8941 85.1676L77.8612 85.1725C77.8115 85.0003 77.7583 84.8295 77.7072 84.658C77.2361 84.7084 76.7664 84.7581 76.3079 84.8323C75.0864 85.0304 73.8691 85.26 72.6616 85.5316C70.4566 86.0279 68.286 86.6698 66.16 87.4363C66.2546 87.8094 66.3399 88.1832 66.4055 88.5577C66.2877 88.5948 66.168 88.6333 66.0493 88.6718C65.895 88.3302 65.754 87.9816 65.6227 87.6281C65.5573 87.6526 65.4909 87.6736 65.4255 87.6981C63.0535 88.592 60.7369 89.6406 58.5068 90.846C57.4171 91.4347 56.3581 92.0815 55.3212 92.7584L55.1971 92.8431C55.2195 92.9117 55.237 92.981 55.2586 93.0503C55.0582 93.1483 54.8602 93.2421 54.6578 93.3429L54.618 93.2358C54.3702 93.4038 54.1211 93.5697 53.8755 93.7398C53.2584 94.0548 52.635 94.381 52.0033 94.7205C51.8901 94.6351 51.827 94.4804 51.9197 94.353C52.2491 93.8994 52.7334 93.6285 53.196 93.3205Z" fill="white"/>
<path d="M72.5796 111.896L72.6552 111.886C72.7987 111.844 72.882 111.694 72.84 111.55L65.3101 85.4875C65.2688 85.344 65.1173 85.2593 64.9743 85.3027C64.8303 85.344 64.7477 85.4938 64.789 85.638L72.3192 111.7C72.3535 111.819 72.462 111.896 72.5796 111.896Z" fill="#1A203F"/>
<path d="M69.6897 114.641C69.766 114.641 69.8418 114.61 69.8951 114.547C69.9928 114.433 69.9799 114.262 69.8667 114.164L49.3463 96.4936C49.2325 96.397 49.0614 96.4082 48.964 96.5223C48.8664 96.6357 48.8792 96.8065 48.9925 96.9045L69.5129 114.575C69.5642 114.619 69.6266 114.641 69.6897 114.641Z" fill="#1A203F"/>
<path d="M75.4821 112.967C75.5962 112.967 75.7026 112.894 75.7397 112.78L84.1768 86.7426C84.223 86.5998 84.1453 86.4472 84.0025 86.401C83.8576 86.3555 83.7071 86.4332 83.6609 86.5753L75.2238 112.613C75.1776 112.755 75.2553 112.908 75.3981 112.954L75.4821 112.967Z" fill="#1A203F"/>
<path d="M74.0707 110.919C74.2191 110.919 74.3409 110.8 74.3423 110.651L74.5677 89.7148C74.5691 89.565 74.4494 89.4418 74.2996 89.4404H74.2968C74.1484 89.4404 74.0273 89.5602 74.0252 89.7085L73.7998 110.645C73.7984 110.795 73.9181 110.918 74.0679 110.919H74.0707Z" fill="#1A203F"/>
<path d="M70.493 112.226L70.6498 112.176C70.7723 112.09 70.8003 111.92 70.7135 111.798L58.9812 95.2721C58.8949 95.1489 58.725 95.1216 58.6036 95.2077C58.4811 95.2945 58.4527 95.4639 58.5396 95.5857L70.2718 112.112C70.3243 112.186 70.4083 112.226 70.493 112.226Z" fill="#1A203F"/>
<path d="M62.211 138.445L88.7118 134.917L85.1845 108.417L58.6836 111.944L62.211 138.445Z" fill="#CE7E5A"/>
<path d="M68.0426 124.646C68.4821 127.947 71.5138 130.266 74.8136 129.826C78.1141 129.387 80.4332 126.356 79.9943 123.055C79.5547 119.755 76.5237 117.436 73.2232 117.875C69.9228 118.314 67.6035 121.346 68.0426 124.646Z" fill="white"/>
<path d="M69.1775 124.495C69.5332 127.168 71.9887 129.047 74.6627 128.692C77.336 128.335 79.2148 125.88 78.8585 123.206C78.5029 120.533 76.0473 118.654 73.374 119.011C70.7007 119.366 68.8218 121.822 69.1775 124.495Z" fill="#F14A64"/>
<path d="M70.6583 123.07L72.6505 122.805L72.3859 120.812C72.36 120.621 72.4944 120.445 72.6855 120.42L74.4075 120.191C74.5986 120.165 74.7743 120.3 74.7995 120.491L75.0648 122.483L77.057 122.218C77.2481 122.193 77.4238 122.327 77.449 122.518L77.6786 124.24C77.7038 124.431 77.5694 124.606 77.3783 124.632L75.3861 124.897L75.6514 126.89C75.6766 127.081 75.5422 127.256 75.3511 127.282L73.6298 127.511C73.438 127.536 73.2623 127.402 73.2371 127.211L72.9718 125.218L70.9796 125.483C70.7885 125.509 70.6128 125.375 70.5876 125.184L70.358 123.462C70.3328 123.271 70.4672 123.095 70.6583 123.07Z" fill="white"/>
<path d="M70.1334 115.416L75.5619 114.694L74.9088 109.785L69.48 110.507L70.1334 115.416Z" fill="#F9A86F"/>
<path d="M85.3526 86.1077C87.0662 91.8876 49.4527 103.41 48.1061 96.3242C47.3196 92.1865 57.4396 87.0793 67.134 84.2786C76.8287 81.4772 83.8224 80.948 85.3526 86.1077Z" fill="#1A203F"/>
<path d="M56.5954 156.405C56.5954 156.405 50.1584 155.231 40.2061 161.14C40.2061 161.14 36.5544 151.517 45.6459 148.89C54.49 146.335 56.5954 156.405 56.5954 156.405Z" fill="#8CA9ED"/>
<path d="M42.3745 159.594C42.5511 159.476 42.7313 159.363 42.9112 159.251C42.8847 159.154 42.8592 159.059 42.833 158.968C42.7154 158.56 42.6159 158.147 42.5339 157.732C42.3802 156.952 42.2867 156.16 42.255 155.366C42.1899 153.742 42.3867 152.104 42.8332 150.542C42.8803 150.378 42.9336 150.215 42.9867 150.053C43.0878 149.989 43.1917 149.927 43.2984 149.866C43.1762 150.233 43.0627 150.604 42.9678 150.98C42.7143 151.982 42.5642 153.009 42.5194 154.041C42.4748 155.072 42.5284 156.11 42.6914 157.129C42.7685 157.612 42.8696 158.091 42.994 158.565C43.04 158.74 43.1004 158.916 43.1614 159.093C43.6443 158.798 44.1376 158.521 44.6363 158.254C45.6125 157.731 46.6242 157.276 47.6649 156.897L47.7902 156.854C47.6067 156.319 47.4612 155.765 47.2892 155.235C47.0272 154.426 46.7598 153.619 46.4872 152.814C46.062 151.559 45.6683 150.275 45.1892 149.032L45.3538 148.98C45.5228 149.368 45.6655 149.77 45.8124 150.174C46.1023 150.973 46.3869 151.774 46.6606 152.579C46.934 153.384 47.202 154.19 47.4647 154.999C47.6529 155.578 47.879 156.169 48.0472 156.765C48.9902 156.439 49.9523 156.169 50.9284 155.962C51.4725 155.847 52.02 155.751 52.5715 155.678C52.7642 155.653 52.9633 155.622 53.164 155.596C52.5556 153.627 51.6888 151.744 50.3142 150.179C49.7395 149.525 49.0807 148.947 48.3483 148.476C48.526 148.475 48.6993 148.481 48.87 148.492C49.0994 148.659 49.3192 148.834 49.5273 149.014C50.8264 150.135 51.775 151.605 52.4657 153.165C52.6634 153.611 52.8428 154.066 53.0022 154.528C53.1156 154.857 53.2466 155.221 53.2903 155.581C53.5999 155.545 53.9116 155.525 54.2105 155.561L54.211 155.597C53.919 155.68 53.6114 155.719 53.3035 155.753C53.3062 155.833 53.3057 155.911 53.2969 155.989L53.2822 155.991C53.26 155.914 53.2367 155.839 53.214 155.763C53.0057 155.786 52.7979 155.807 52.5952 155.84C52.0553 155.928 51.5165 156.029 50.9825 156.15C50.0078 156.369 49.0477 156.653 48.1076 156.992C48.1495 157.157 48.1872 157.322 48.2162 157.488L48.0587 157.538C47.9903 157.387 47.928 157.233 47.87 157.076L47.7827 157.108C46.7339 157.503 45.7093 157.967 44.723 158.5C44.2412 158.76 43.7728 159.046 43.3142 159.346L43.2593 159.383L43.2866 159.475C43.1977 159.518 43.1102 159.559 43.0211 159.604L43.0031 159.557C42.8937 159.631 42.7835 159.704 42.675 159.78C42.402 159.919 42.1265 160.063 41.847 160.213L41.8101 160.051C41.9558 159.85 42.1699 159.73 42.3745 159.594Z" fill="#8CA9ED"/>
<path d="M50.9469 167.809L50.98 167.804C51.0437 167.786 51.0803 167.719 51.062 167.656L47.7318 156.13C47.7135 156.066 47.6465 156.029 47.5833 156.048C47.5196 156.067 47.483 156.133 47.5013 156.197L50.8315 167.722L50.9469 167.809Z" fill="#8CA9ED"/>
<path d="M49.6689 169.023L49.7597 168.981L49.7471 168.812L40.6722 160.997L40.5029 161.01L40.5158 161.179L49.5904 168.994L49.6689 169.023Z" fill="#8CA9ED"/>
<path d="M52.2303 168.283L52.3443 168.2L56.0753 156.685C56.0958 156.622 56.0614 156.554 55.9985 156.534C55.9343 156.514 55.8678 156.549 55.8473 156.611L52.1163 168.126C52.0958 168.189 52.1302 168.256 52.1931 168.277L52.2303 168.283Z" fill="#8CA9ED"/>
<path d="M51.6061 167.377C51.6717 167.377 51.7253 167.324 51.7261 167.259L51.8259 158C51.8267 157.933 51.7734 157.879 51.7073 157.878H51.7059C51.6403 157.878 51.5866 157.931 51.5861 157.997L51.4863 167.256C51.4855 167.322 51.5388 167.376 51.6047 167.377H51.6061Z" fill="#8CA9ED"/>
<path d="M50.0239 167.955L50.0934 167.933L50.1218 167.765L44.9333 160.457L44.7663 160.429L44.7378 160.596L49.9263 167.904L50.0239 167.955Z" fill="#8CA9ED"/>
<path d="M46.3612 179.55L58.081 177.99L56.521 166.27L44.8013 167.83L46.3612 179.55Z" fill="#8CA9ED"/>
<path d="M48.9401 173.447C49.1345 174.907 50.4751 175.932 51.9348 175.739C53.3941 175.544 54.4198 174.203 54.2256 172.744C54.0315 171.284 52.6906 170.259 51.2312 170.453C49.7716 170.647 48.7459 171.988 48.9401 173.447Z" fill="#8CA9ED"/>
<path d="M49.442 173.381C49.5995 174.563 50.6852 175.394 51.8676 175.237C53.0499 175.079 53.8807 173.993 53.7234 172.811C53.5659 171.629 52.4801 170.798 51.2977 170.955C50.1154 171.112 49.2847 172.199 49.442 173.381Z" fill="#8CA9ED"/>
<path d="M50.097 172.75L50.978 172.633L50.8607 171.752C50.8495 171.667 50.9091 171.59 50.9936 171.578L51.7548 171.477C51.8393 171.466 51.9172 171.525 51.9282 171.61L52.0458 172.491L52.9268 172.374C53.0113 172.362 53.0889 172.422 53.1001 172.507L53.2016 173.268C53.2128 173.352 53.1532 173.43 53.0687 173.441L52.1876 173.559L52.305 174.439C52.3162 174.524 52.2568 174.602 52.1721 174.613L51.4109 174.714C51.3263 174.726 51.2487 174.666 51.2375 174.581L51.1201 173.701L50.2391 173.818C50.1544 173.829 50.0767 173.769 50.0655 173.685L49.9643 172.924C49.9528 172.839 50.0125 172.761 50.097 172.75Z" fill="#8CA9ED"/>
<path d="M49.8647 169.366L52.2652 169.046L51.9765 166.875L49.5757 167.194L49.8647 169.366Z" fill="#8CA9ED"/>
<path d="M56.5955 156.405C57.3531 158.961 40.7191 164.056 40.1235 160.922C39.7758 159.093 44.2511 156.834 48.5383 155.595C52.8255 154.357 55.9187 154.123 56.5955 156.405Z" fill="#8CA9ED"/>
<path d="M223.962 101.995C223.962 101.995 230.399 100.822 240.352 106.73C240.352 106.73 244.003 97.1075 234.912 94.4804C226.068 91.9254 223.962 101.995 223.962 101.995Z" fill="#8CA9ED"/>
<path d="M238.183 105.184C238.007 105.067 237.827 104.954 237.647 104.841C237.673 104.745 237.699 104.649 237.725 104.558C237.842 104.151 237.942 103.738 238.024 103.322C238.177 102.542 238.271 101.751 238.303 100.957C238.368 99.3329 238.171 97.6949 237.724 96.1325C237.678 95.968 237.624 95.8056 237.571 95.6439C237.47 95.5795 237.366 95.5171 237.26 95.4562C237.381 95.8237 237.495 96.1948 237.59 96.57C237.843 97.5724 237.993 98.5993 238.038 99.6318C238.083 100.663 238.029 101.7 237.867 102.719C237.79 103.202 237.688 103.682 237.563 104.155C237.518 104.331 237.457 104.507 237.396 104.684C236.914 104.388 236.42 104.111 235.921 103.844C234.945 103.321 233.933 102.866 232.893 102.487L232.768 102.444C232.951 101.91 233.097 101.356 233.269 100.825C233.531 100.017 233.798 99.2097 234.07 98.4047C234.496 97.1496 234.889 95.8651 235.368 94.6226L235.204 94.5708C235.035 94.9586 234.892 95.3604 234.745 95.7643C234.455 96.5637 234.171 97.3644 233.898 98.1694C233.624 98.9744 233.356 99.7809 233.093 100.589C232.905 101.169 232.679 101.759 232.511 102.355C231.567 102.03 230.605 101.759 229.629 101.553C229.085 101.438 228.538 101.341 227.986 101.268C227.794 101.243 227.595 101.212 227.394 101.186C228.002 99.2174 228.869 97.3343 230.244 95.7698C230.818 95.1153 231.477 94.5379 232.209 94.0661C232.032 94.0654 231.858 94.0717 231.688 94.0822C231.459 94.2495 231.238 94.4245 231.03 94.6044C229.731 95.7258 228.783 97.1958 228.092 98.7554C227.894 99.202 227.715 99.6577 227.556 100.119C227.442 100.447 227.311 100.811 227.267 101.172C226.958 101.135 226.646 101.116 226.347 101.151L226.347 101.188C226.639 101.27 226.947 101.31 227.255 101.344C227.252 101.423 227.252 101.501 227.261 101.579L227.276 101.581C227.298 101.505 227.321 101.429 227.343 101.354C227.552 101.376 227.76 101.398 227.962 101.431C228.503 101.518 229.041 101.62 229.575 101.74C230.55 101.96 231.51 102.243 232.45 102.582C232.409 102.747 232.371 102.913 232.341 103.079L232.499 103.129C232.568 102.978 232.63 102.824 232.688 102.667L232.775 102.698C233.824 103.093 234.848 103.557 235.834 104.09C236.317 104.35 236.785 104.637 237.244 104.936L237.298 104.973L237.271 105.065C237.36 105.109 237.447 105.15 237.537 105.195L237.554 105.147C237.664 105.221 237.774 105.295 237.883 105.37C238.156 105.51 238.431 105.654 238.711 105.804L238.748 105.641C238.602 105.44 238.388 105.321 238.183 105.184Z" fill="#8CA9ED"/>
<path d="M229.611 113.399L229.578 113.394C229.514 113.376 229.478 113.31 229.496 113.246L232.826 101.72C232.844 101.657 232.911 101.62 232.974 101.639C233.038 101.657 233.075 101.723 233.057 101.787L229.726 113.312L229.611 113.399Z" fill="#8CA9ED"/>
<path d="M230.889 114.613L230.798 114.572L230.811 114.402L239.885 106.588L240.054 106.6L240.042 106.77L230.967 114.584L230.889 114.613Z" fill="#8CA9ED"/>
<path d="M228.328 113.873L228.213 113.79L224.482 102.276C224.462 102.213 224.496 102.145 224.559 102.124C224.624 102.104 224.69 102.139 224.711 102.201L228.442 113.716C228.462 113.779 228.428 113.847 228.365 113.867L228.328 113.873Z" fill="#8CA9ED"/>
<path d="M228.952 112.967C228.886 112.967 228.833 112.914 228.832 112.849L228.732 103.59C228.732 103.524 228.785 103.469 228.851 103.468H228.852C228.918 103.468 228.971 103.522 228.972 103.587L229.072 112.846C229.073 112.912 229.019 112.967 228.953 112.967H228.952Z" fill="#8CA9ED"/>
<path d="M230.534 113.546L230.465 113.523L230.436 113.356L235.625 106.048L235.792 106.019L235.82 106.187L230.632 113.495L230.534 113.546Z" fill="#8CA9ED"/>
<path d="M234.196 125.14L222.477 123.58L224.037 111.861L235.757 113.42L234.196 125.14Z" fill="#8CA9ED"/>
<path d="M231.618 119.038C231.424 120.497 230.083 121.523 228.623 121.329C227.164 121.134 226.138 119.794 226.332 118.334C226.527 116.875 227.867 115.849 229.327 116.043C230.786 116.238 231.812 117.578 231.618 119.038Z" fill="#8CA9ED"/>
<path d="M231.116 118.971C230.958 120.154 229.873 120.985 228.69 120.827C227.508 120.67 226.677 119.584 226.835 118.402C226.991 117.219 228.078 116.388 229.26 116.546C230.442 116.703 231.273 117.789 231.116 118.971Z" fill="#8CA9ED"/>
<path d="M230.46 118.341L229.58 118.224L229.697 117.342C229.708 117.258 229.648 117.18 229.564 117.169L228.803 117.067C228.718 117.056 228.64 117.116 228.629 117.2L228.512 118.082L227.631 117.964C227.546 117.953 227.469 118.012 227.457 118.097L227.356 118.858C227.345 118.943 227.404 119.02 227.489 119.032L228.37 119.149L228.253 120.03C228.241 120.114 228.301 120.192 228.386 120.203L229.146 120.305C229.231 120.316 229.309 120.257 229.32 120.172L229.438 119.291L230.318 119.408C230.403 119.419 230.481 119.36 230.492 119.276L230.593 118.514C230.605 118.43 230.545 118.352 230.46 118.341Z" fill="#8CA9ED"/>
<path d="M230.693 114.956L228.292 114.636L228.582 112.466L230.982 112.785L230.693 114.956Z" fill="#8CA9ED"/>
<path d="M223.963 101.995C223.205 104.551 239.839 109.647 240.434 106.513C240.782 104.683 236.307 102.425 232.02 101.186C227.732 99.9474 224.64 99.7129 223.963 101.995Z" fill="#8CA9ED"/>
<path d="M302.652 163.891C302.652 163.891 308.196 162.88 316.769 167.97C316.769 167.97 319.914 159.681 312.083 157.418C304.466 155.217 302.652 163.891 302.652 163.891Z" fill="#8CA9ED"/>
<path d="M314.902 166.638C314.749 166.536 314.594 166.44 314.439 166.342C314.462 166.259 314.484 166.177 314.507 166.099C314.608 165.747 314.694 165.392 314.764 165.034C314.897 164.362 314.977 163.68 315.004 162.996C315.06 161.598 314.891 160.187 314.506 158.841C314.465 158.7 314.42 158.56 314.374 158.42C314.287 158.365 314.197 158.311 314.106 158.258C314.211 158.575 314.309 158.894 314.391 159.218C314.609 160.081 314.738 160.966 314.776 161.855C314.815 162.744 314.769 163.637 314.629 164.515C314.562 164.931 314.475 165.344 314.367 165.752C314.328 165.903 314.276 166.054 314.223 166.207C313.807 165.952 313.383 165.714 312.953 165.483C312.112 165.033 311.241 164.641 310.345 164.314L310.237 164.277C310.395 163.817 310.52 163.341 310.668 162.883C310.893 162.186 311.124 161.491 311.359 160.798C311.725 159.717 312.064 158.611 312.477 157.541L312.335 157.496C312.19 157.83 312.067 158.175 311.94 158.524C311.691 159.213 311.445 159.902 311.21 160.596C310.974 161.289 310.743 161.983 310.517 162.68C310.354 163.179 310.16 163.687 310.015 164.201C309.203 163.92 308.374 163.687 307.533 163.509C307.064 163.411 306.593 163.327 306.118 163.265C305.952 163.243 305.781 163.217 305.608 163.194C306.132 161.498 306.878 159.876 308.063 158.529C308.557 157.965 309.125 157.468 309.756 157.061C309.603 157.06 309.453 157.066 309.306 157.075C309.109 157.219 308.919 157.37 308.74 157.525C307.622 158.49 306.804 159.757 306.209 161.1C306.039 161.485 305.884 161.877 305.747 162.275C305.65 162.558 305.536 162.871 305.499 163.181C305.232 163.15 304.964 163.133 304.706 163.164V163.195C304.957 163.267 305.222 163.301 305.487 163.33C305.485 163.398 305.486 163.465 305.493 163.533L305.506 163.535C305.525 163.469 305.545 163.404 305.564 163.339C305.744 163.358 305.923 163.376 306.098 163.405C306.563 163.48 307.027 163.568 307.486 163.671C308.326 163.86 309.153 164.105 309.963 164.397C309.927 164.538 309.894 164.681 309.869 164.824L310.005 164.867C310.064 164.737 310.118 164.604 310.167 164.47L310.243 164.496C311.147 164.837 312.029 165.236 312.879 165.696C313.294 165.92 313.697 166.166 314.092 166.424L314.139 166.456L314.115 166.536C314.192 166.573 314.267 166.608 314.344 166.647L314.36 166.606C314.454 166.67 314.549 166.733 314.643 166.798C314.878 166.918 315.115 167.042 315.356 167.172L315.387 167.031C315.262 166.859 315.077 166.755 314.902 166.638Z" fill="#8CA9ED"/>
<path d="M307.518 173.714L307.489 173.71L307.418 173.583L310.286 163.654L310.414 163.584L310.485 163.712L307.617 173.639L307.518 173.714Z" fill="#8CA9ED"/>
<path d="M308.618 174.76L308.54 174.723L308.551 174.578L316.368 167.847L316.514 167.858L316.503 168.003L308.686 174.735L308.618 174.76Z" fill="#8CA9ED"/>
<path d="M306.412 174.122L306.314 174.051L303.1 164.132L303.167 164.002L303.297 164.069L306.511 173.987L306.444 174.117L306.412 174.122Z" fill="#8CA9ED"/>
<path d="M306.949 173.342L306.846 173.24L306.76 165.264L306.862 165.16H306.863L306.967 165.262L307.053 173.237L306.951 173.342H306.949Z" fill="#8CA9ED"/>
<path d="M308.313 173.84L308.253 173.82L308.229 173.677L312.698 167.382L312.842 167.357L312.866 167.501L308.397 173.796L308.313 173.84Z" fill="#8CA9ED"/>
<path d="M311.467 183.827L301.373 182.484L302.716 172.388L312.811 173.732L311.467 183.827Z" fill="#8CA9ED"/>
<path d="M309.246 178.571C309.079 179.828 307.924 180.711 306.667 180.544C305.409 180.377 304.526 179.222 304.693 177.965C304.86 176.708 306.015 175.825 307.273 175.992C308.53 176.159 309.413 177.314 309.246 178.571Z" fill="#8CA9ED"/>
<path d="M308.814 178.513C308.678 179.532 307.743 180.247 306.724 180.112C305.706 179.976 304.99 179.041 305.126 178.023C305.261 177.004 306.197 176.289 307.215 176.424C308.233 176.56 308.949 177.495 308.814 178.513Z" fill="#8CA9ED"/>
<path d="M308.249 177.97L307.491 177.869L307.591 177.11C307.601 177.038 307.55 176.97 307.477 176.961L306.821 176.874C306.749 176.864 306.681 176.915 306.672 176.988L306.571 177.747L305.812 177.646C305.739 177.636 305.673 177.687 305.663 177.76L305.575 178.416C305.566 178.489 305.617 178.556 305.69 178.566L306.449 178.667L306.348 179.425C306.338 179.498 306.39 179.565 306.462 179.575L307.118 179.662C307.19 179.672 307.258 179.621 307.267 179.548L307.368 178.789L308.127 178.89C308.2 178.9 308.267 178.849 308.277 178.776L308.364 178.12C308.373 178.047 308.322 177.98 308.249 177.97Z" fill="#8CA9ED"/>
<path d="M308.45 175.055L306.382 174.78L306.63 172.91L308.698 173.185L308.45 175.055Z" fill="#8CA9ED"/>
<path d="M302.652 163.891C301.999 166.093 316.327 170.482 316.84 167.782C317.14 166.206 313.285 164.261 309.592 163.194C305.899 162.127 303.234 161.925 302.652 163.891Z" fill="#8CA9ED"/>
<path d="M256.038 278.541C256.038 290.453 216.801 300.109 168.399 300.109C119.997 300.109 80.7593 290.453 80.7593 278.541C80.7593 266.629 119.997 256.973 168.399 256.973C216.801 256.973 256.038 266.629 256.038 278.541Z" fill="#149B8E"/>
<path d="M163.948 172.199C163.948 172.199 150.715 179.825 149.258 196.309C147.8 212.794 187.721 222.887 196.02 213.242C204.318 203.598 199.945 181.171 195.908 176.461C191.871 171.751 163.948 172.199 163.948 172.199Z" fill="#985F47"/>
<path d="M195.908 176.461C191.871 171.751 163.948 172.199 163.948 172.199C163.948 172.199 161.997 173.327 159.513 175.643C161.256 179.488 168.442 185.259 176.395 186.329C186.601 187.703 195.459 184.759 198.006 180.458C197.344 178.687 196.621 177.293 195.908 176.461Z" fill="#713D34"/>
<path d="M190.499 144.822L190.508 144.82C190.95 144.692 191.414 144.593 191.8 144.334C192.304 143.996 192.069 143.327 191.509 143.259C190.373 143.12 189.246 143.007 188.108 142.973C188.448 142.834 188.787 142.696 189.13 142.566C189.504 142.424 189.605 141.797 189.13 141.701C187.491 141.371 185.872 141.528 184.244 141.845C182.609 142.162 180.974 142.524 179.364 142.951C178.707 143.126 178.055 143.32 177.413 143.537C165.714 146.063 159.688 159.09 161.368 170.293C163.387 183.75 191.871 189.132 200.505 177.246C208.233 166.608 204.541 150.236 190.499 144.822Z" fill="#985F47"/>
<path d="M173.285 144.999C173.285 144.999 168.69 138.506 163.556 142.999C158.424 147.491 164.918 154.155 167.487 154.386C170.056 154.617 173.285 144.999 173.285 144.999Z" fill="#985F47"/>
<path d="M196.569 150.332C196.569 150.332 201.728 144.276 206.438 149.211C211.148 154.145 204.082 160.201 201.504 160.201C198.924 160.201 196.569 150.332 196.569 150.332Z" fill="#985F47"/>
<path d="M178.222 156.51C178.066 156.225 177.864 155.974 177.617 155.781C177.532 155.715 177.441 155.656 177.337 155.611C174.626 154.469 173.475 161.514 176.856 160.608C178.621 160.135 178.982 157.905 178.222 156.51Z" fill="#1A203F"/>
<path d="M191.118 158.865C190.962 158.579 190.76 158.329 190.513 158.136C190.428 158.07 190.337 158.01 190.233 157.966C187.522 156.824 186.371 163.869 189.752 162.963C191.517 162.49 191.878 160.259 191.118 158.865Z" fill="#1A203F"/>
<path d="M187.02 168.739C186.898 168.596 186.635 168.534 186.509 168.721C186.38 168.912 186.378 169.123 186.315 169.34C186.267 169.508 186.199 169.665 186.107 169.814C185.896 170.151 185.597 170.414 185.246 170.598C184.832 170.817 184.374 170.926 183.917 171.005C183.501 171.076 183.114 171.098 182.754 170.842C182.104 170.38 181.863 169.42 181.764 168.676C181.75 168.569 181.748 168.46 181.739 168.352C182.006 167.584 182.118 166.736 182.079 165.942C182.059 165.538 181.488 165.554 181.4 165.915C181.187 166.788 181.165 167.698 180.769 168.523C180.41 169.275 179.738 169.896 178.928 170.124C178.147 170.344 177.249 170.138 176.664 169.571C176.056 168.981 175.889 168.036 176.209 167.261C176.334 166.956 175.902 166.758 175.746 167.046C174.947 168.53 175.912 170.302 177.431 170.794C178.917 171.275 180.449 170.569 181.275 169.319C181.373 169.779 181.523 170.228 181.753 170.633C182.136 171.307 182.755 171.797 183.548 171.825C184.408 171.857 185.381 171.576 186.083 171.076C186.45 170.816 186.766 170.467 186.954 170.057C187.116 169.705 187.308 169.072 187.02 168.739Z" fill="#713D34"/>
<path d="M178.852 156.031C178.808 155.875 178.729 155.74 178.615 155.625L178.43 155.482C178.286 155.399 178.131 155.357 177.966 155.357C177.839 155.352 177.721 155.378 177.611 155.436C177.497 155.473 177.399 155.536 177.315 155.625C177.226 155.709 177.163 155.807 177.126 155.922C177.068 156.031 177.042 156.149 177.046 156.276C177.057 156.357 177.068 156.438 177.079 156.52C177.123 156.675 177.202 156.811 177.315 156.925L177.501 157.07C177.645 157.152 177.8 157.194 177.966 157.195C178.092 157.2 178.21 157.173 178.32 157.116C178.434 157.079 178.532 157.015 178.615 156.925C178.705 156.842 178.768 156.743 178.806 156.63C178.863 156.52 178.89 156.402 178.885 156.276C178.873 156.194 178.863 156.113 178.852 156.031Z" fill="white"/>
<path d="M191.748 158.61C191.704 158.455 191.625 158.32 191.511 158.205L191.326 158.061C191.182 157.978 191.027 157.936 190.862 157.935C190.735 157.931 190.617 157.957 190.507 158.015C190.393 158.052 190.295 158.115 190.211 158.205C190.122 158.288 190.059 158.387 190.022 158.5C189.964 158.61 189.938 158.729 189.942 158.855C189.953 158.936 189.964 159.018 189.975 159.099C190.019 159.255 190.098 159.39 190.211 159.505L190.397 159.648C190.541 159.732 190.696 159.774 190.862 159.774C190.988 159.779 191.106 159.753 191.216 159.695C191.33 159.657 191.428 159.594 191.511 159.505C191.601 159.422 191.664 159.323 191.702 159.209C191.759 159.1 191.786 158.981 191.781 158.855C191.769 158.773 191.759 158.692 191.748 158.61Z" fill="white"/>
<path d="M170.896 146.77C170.8 146.532 170.613 146.321 170.41 146.134C170.301 145.926 170.144 145.736 169.99 145.561C169.742 145.279 169.471 145.011 169.174 144.78C168.599 144.332 167.918 144.055 167.181 144.094C165.923 144.16 164.758 145.214 164.442 146.413C164.1 147.711 164.694 149.097 165.675 149.959C166.145 150.372 166.885 150.891 167.508 150.522C167.839 150.326 168.126 150.031 168.411 149.773C168.741 149.475 169.07 149.177 169.4 148.879C169.757 148.556 170.114 148.234 170.471 147.91C170.804 147.607 171.085 147.242 170.896 146.77Z" fill="#CE7E5A"/>
<path d="M202.515 156.131C202.743 156.09 202.965 155.962 203.168 155.815C203.373 155.756 203.571 155.652 203.754 155.547C204.05 155.378 204.337 155.186 204.597 154.965C205.1 154.535 205.47 153.98 205.57 153.32C205.741 152.188 205.017 150.962 204.01 150.462C202.918 149.922 201.579 150.196 200.634 150.91C200.182 151.253 199.586 151.816 199.799 152.436C199.913 152.767 200.122 153.075 200.3 153.376C200.505 153.723 200.709 154.069 200.914 154.417C201.136 154.793 201.357 155.17 201.579 155.545C201.788 155.896 202.061 156.213 202.515 156.131Z" fill="#CE7E5A"/>
<path d="M177.405 188.796C161.774 185.244 151.276 206.402 162.939 215.149C174.601 223.896 189.179 219.186 190.862 209.542C192.544 199.898 187.273 191.039 177.405 188.796Z" fill="#CE7E5A"/>
<path d="M184.172 152.186L184.18 152.132L184.155 151.957L184.127 151.836C184.081 151.719 184.02 151.634 183.901 151.584C183.778 151.532 183.673 151.551 183.555 151.603C183.49 151.632 183.405 151.705 183.358 151.746C183.294 151.801 183.248 151.871 183.208 151.945C183.14 152.07 183.059 152.216 183.023 152.352C182.983 152.5 182.966 152.657 182.947 152.809C182.935 152.907 182.931 152.987 182.959 153.089C182.982 153.174 183.033 153.26 183.077 153.339C183.161 153.488 183.33 153.581 183.5 153.581C183.68 153.581 183.827 153.485 183.923 153.339C183.983 153.249 184.039 153.175 184.067 153.064C184.091 152.972 184.093 152.867 184.103 152.769C184.121 152.669 184.142 152.568 184.149 152.466C184.155 152.373 184.16 152.279 184.172 152.186Z" fill="#CE7E5A"/>
<path d="M185.882 153.515C185.835 153.446 185.75 153.401 185.666 153.427C185.591 153.45 185.515 153.481 185.457 153.535L185.31 153.732L185.194 153.892L185.093 154.076C185.017 154.223 184.941 154.366 184.886 154.523C184.865 154.586 184.843 154.649 184.821 154.712C184.774 154.844 184.784 154.97 184.816 155.105C184.851 155.251 184.978 155.369 185.12 155.408C185.283 155.453 185.418 155.397 185.543 155.296C185.651 155.212 185.703 155.11 185.75 154.983L185.815 154.794C185.859 154.667 185.88 154.536 185.907 154.404C185.938 154.248 185.955 154.095 185.962 153.936L185.969 153.747C185.964 153.662 185.929 153.584 185.882 153.515Z" fill="#CE7E5A"/>
<path d="M183.937 155.091L183.94 155.123L183.949 155.182L183.937 155.091Z" fill="#CE7E5A"/>
<path d="M183.94 155.123L183.924 155.028C183.896 154.959 183.862 154.894 183.793 154.858C183.723 154.82 183.652 154.812 183.574 154.829L183.404 154.905C183.334 154.942 183.281 154.976 183.217 155.028L183.105 155.123L182.973 155.266C182.903 155.357 182.812 155.451 182.764 155.556L182.738 155.617C182.678 155.757 182.659 155.806 182.648 155.962C182.642 156.052 182.648 156.14 182.675 156.227C182.779 156.565 183.15 156.713 183.46 156.547C183.602 156.47 183.738 156.323 183.802 156.176C183.84 156.088 183.878 156.008 183.896 155.915L183.923 155.787C183.949 155.665 183.961 155.544 183.966 155.419C183.97 155.319 183.954 155.222 183.94 155.123Z" fill="#CE7E5A"/>
<path d="M185.03 157.404L185.023 157.342C185.012 157.234 184.999 157.186 184.954 157.088C184.912 156.997 184.785 156.906 184.69 156.885C184.576 156.859 184.45 156.865 184.349 156.93C184.252 156.991 184.195 157.071 184.125 157.158C184.073 157.224 184.05 157.245 184.023 157.305L183.997 157.363L183.941 157.487C183.899 157.579 183.875 157.639 183.859 157.73C183.847 157.793 183.836 157.856 183.827 157.921C183.804 158.094 183.85 158.271 183.941 158.418C183.995 158.508 184.093 158.593 184.197 158.617C184.315 158.643 184.421 158.626 184.529 158.573C184.662 158.508 184.772 158.399 184.852 158.275C184.891 158.214 184.919 158.114 184.949 158.042L184.993 157.908L185.012 157.779C185.023 157.7 185.049 157.602 185.043 157.529L185.03 157.404Z" fill="#CE7E5A"/>
<path d="M183.085 158.845L183.076 158.794C183.063 158.724 183.051 158.664 183.011 158.598C182.92 158.451 182.754 158.365 182.579 158.41C182.444 158.444 182.36 158.53 182.275 158.632C182.195 158.728 182.185 158.745 182.14 158.864L182.119 158.92L182.073 159.042C182.042 159.127 182.032 159.185 182.021 159.283L182.007 159.399C181.991 159.55 182.062 159.671 182.135 159.792C182.239 159.962 182.453 160.014 182.627 159.921L182.714 159.874C182.817 159.819 182.893 159.736 182.939 159.631C182.973 159.557 183.016 159.479 183.038 159.401L183.06 159.272L183.083 159.144C183.104 159.02 183.106 158.967 183.085 158.845Z" fill="#CE7E5A"/>
<path d="M183.975 163.805C183.429 163.682 182.96 163.874 182.458 164.042C182.29 164.099 182.125 164.163 181.961 164.226C181.814 164.113 181.664 164.002 181.504 163.9C181.1 163.643 180.729 163.343 180.223 163.346C179.649 163.349 179.233 163.811 179.203 164.366C179.177 164.837 179.468 165.228 179.696 165.616C179.898 165.96 180.118 166.271 180.379 166.575C180.803 167.068 181.394 167.341 182.05 167.252C182.423 167.202 182.764 167.092 183.115 166.957C183.494 166.811 183.903 166.688 184.263 166.502C184.746 166.253 185.072 165.701 185.063 165.161C185.054 164.527 184.603 163.946 183.975 163.805Z" fill="#1A203F"/>
<path d="M198.016 166.471C197.767 167.606 196.095 168.203 194.28 167.805C192.465 167.408 191.195 166.166 191.444 165.031C191.692 163.897 193.365 163.3 195.18 163.697C196.995 164.095 198.264 165.337 198.016 166.471Z" fill="#F14A64"/>
<path d="M174.047 161.846C173.798 162.98 172.125 163.577 170.31 163.18C168.495 162.782 167.225 161.54 167.474 160.406C167.722 159.271 169.395 158.674 171.211 159.072C173.026 159.469 174.295 160.711 174.047 161.846Z" fill="#F14A64"/>
<path d="M146.819 186.94C146.489 186.94 134.048 150.388 126.121 142.13C118.194 133.873 105.753 136.846 104.212 154.682C102.67 172.517 113.68 207.859 114.01 208.079C114.341 208.299 146.819 186.94 146.819 186.94Z" fill="#CE7E5A"/>
<path d="M132.199 156.679C130.906 155.105 127.935 156.218 126.367 156.822C124.603 157.501 122.868 158.319 121.274 159.338C119.738 160.321 118.282 161.47 117.027 162.796C116.399 163.458 115.86 164.189 115.361 164.953C114.889 165.675 114.279 166.504 114.117 167.364C114.013 167.916 114.585 168.489 115.129 168.142C115.812 167.705 116.325 167.02 116.919 166.471C117.545 165.893 118.213 165.362 118.865 164.813C120.104 163.771 121.458 162.859 122.889 162.1C124.312 161.344 125.788 160.784 127.359 160.42C128.188 160.227 129.031 160.088 129.867 159.929C130.865 159.739 131.921 159.552 132.441 158.548C132.785 157.884 132.658 157.237 132.199 156.679Z" fill="#985F47"/>
<path d="M139.939 175.659C138.988 175.031 137.83 175.325 136.793 175.545C135.906 175.734 135.023 175.952 134.158 176.225C132.328 176.802 130.538 177.533 128.818 178.382C127.141 179.21 125.635 180.202 124.167 181.359C123.456 181.918 122.776 182.488 122.172 183.163C121.656 183.74 121.043 184.346 121.171 185.174C121.197 185.34 121.36 185.461 121.507 185.509C122.214 185.742 122.928 185.24 123.532 184.925C124.293 184.528 125.024 184.088 125.777 183.677C127.283 182.857 128.851 182.095 130.424 181.411C131.904 180.768 133.448 180.256 135.006 179.842C135.838 179.621 136.673 179.414 137.516 179.241C138.47 179.045 139.598 178.982 140.263 178.175C140.94 177.353 140.861 176.268 139.939 175.659Z" fill="#985F47"/>
<path d="M113.355 143.606C113.362 143.434 113.326 143.275 113.248 143.126C113.198 142.972 113.112 142.839 112.991 142.726C112.907 142.661 112.823 142.596 112.739 142.531C112.545 142.419 112.335 142.362 112.111 142.361L112.068 142.356L112.042 142.355C111.926 142.371 111.81 142.386 111.693 142.402L111.597 142.437L111.503 142.475C111.364 142.532 111.217 142.576 111.096 142.666C110.947 142.778 110.799 142.891 110.655 143.009L110.566 143.081L110.523 143.12L110.293 143.417L110.274 143.445C110.188 143.565 110.107 143.689 110.032 143.817C109.964 143.933 109.904 144.058 109.875 144.189C109.848 144.31 109.833 144.472 109.82 144.596L109.813 144.691C109.808 144.757 109.804 144.822 109.803 144.887C109.789 145.32 110.048 145.743 110.417 145.958C110.798 146.181 111.29 146.185 111.67 145.958L111.838 145.863L111.929 145.816L111.975 145.791C112.071 145.717 112.167 145.642 112.264 145.568L112.278 145.55C112.375 145.438 112.471 145.326 112.575 145.221C112.629 145.165 112.657 145.122 112.714 145.048C112.764 144.983 112.811 144.927 112.854 144.862L112.916 144.767L113.037 144.592C113.079 144.534 113.105 144.472 113.136 144.407C113.195 144.281 113.276 144.141 113.306 144.015L113.309 143.996L113.355 143.651V143.606Z" fill="#E79074"/>
<path d="M116.83 143.646C116.725 143.485 116.557 143.317 116.359 143.284L116.202 143.259C116.001 143.226 115.841 143.197 115.64 143.264C115.542 143.297 115.446 143.345 115.351 143.388C115.281 143.42 115.21 143.449 115.141 143.483C115.072 143.516 115.014 143.567 114.953 143.613C114.831 143.707 114.709 143.8 114.588 143.894C114.361 144.068 114.408 144.019 114.235 144.246L114.165 144.337L114.044 144.498L113.965 144.683C113.956 144.752 113.947 144.821 113.938 144.89C113.938 145.063 114 145.226 114.105 145.362C114.19 145.472 114.288 145.548 114.416 145.601C114.477 145.636 114.543 145.655 114.613 145.655C114.716 145.678 114.82 145.674 114.923 145.641C114.996 145.63 115.07 145.619 115.143 145.608C115.295 145.587 115.398 145.541 115.549 145.475C115.685 145.416 115.821 145.356 115.956 145.298C116.022 145.269 116.088 145.244 116.146 145.202L116.331 145.065C116.413 145.003 116.502 144.944 116.578 144.875C116.725 144.743 116.79 144.589 116.854 144.409L116.909 144.253C116.972 144.076 116.93 143.802 116.83 143.646Z" fill="#E79074"/>
<path d="M117.364 139.655L117.348 139.628L117.338 139.614C117.283 139.511 117.208 139.43 117.112 139.368C117.028 139.291 116.928 139.238 116.814 139.211C116.737 139.178 116.653 139.166 116.564 139.173L116.512 139.168L116.443 139.165L116.305 139.181C116.184 139.187 116.072 139.222 115.967 139.289L115.866 139.348C115.722 139.444 115.586 139.548 115.495 139.701C115.411 139.841 115.376 139.999 115.372 140.16L115.373 140.216C115.378 140.285 115.383 140.363 115.4 140.425L115.403 140.445C115.428 140.533 115.472 140.609 115.537 140.674L115.619 140.722L115.593 140.701L115.622 140.724L115.765 140.807L115.692 140.776C115.779 140.843 115.866 140.903 115.985 140.937C116.097 140.969 116.197 140.967 116.306 140.97L116.426 140.98C116.566 140.989 116.648 140.947 116.766 140.916C116.847 140.895 116.935 140.858 117.01 140.819C117.159 140.741 117.252 140.627 117.343 140.49C117.391 140.417 117.421 140.369 117.449 140.263C117.502 140.057 117.473 139.838 117.364 139.655Z" fill="#E79074"/>
<path d="M115.745 140.819L115.686 140.774L115.648 140.758L115.745 140.819Z" fill="#E79074"/>
<path d="M115.619 140.722L115.687 140.773L115.693 140.776L115.622 140.723L115.619 140.722Z" fill="#E79074"/>
<path d="M119.863 141.607C119.81 141.517 119.738 141.445 119.648 141.392L119.532 141.336L119.467 141.306L119.441 141.294L119.428 141.288C119.345 141.235 119.256 141.207 119.16 141.202C119.096 141.185 119.033 141.185 118.968 141.202C118.903 141.203 118.843 141.219 118.786 141.252L118.676 141.302L118.62 141.335L118.503 141.403C118.325 141.508 118.213 141.703 118.213 141.91C118.213 142.118 118.325 142.313 118.503 142.417L118.614 142.482L118.676 142.519L118.7 142.533L118.872 142.605C118.968 142.636 119.064 142.64 119.16 142.618C119.225 142.618 119.286 142.602 119.342 142.569L119.434 142.53L119.467 142.514L119.525 142.487L119.648 142.429C119.738 142.376 119.81 142.304 119.863 142.213C119.918 142.12 119.945 142.019 119.946 141.91C119.945 141.802 119.918 141.701 119.863 141.607Z" fill="#E79074"/>
<path d="M122.158 208.693C122.158 208.693 128.465 174.398 130.83 170.752C133.195 167.105 143.74 165.43 143.74 165.43L145.415 156.856L155.763 158.433L154.876 166.711C154.876 166.711 161.873 168.781 164.632 176.566C167.392 184.351 162.07 216.281 162.07 216.281L122.158 208.693Z" fill="white"/>
<path d="M145.81 153.604C143.906 153.794 142.163 160.798 144.233 161.389C146.302 161.981 154.285 163.36 155.96 163.36C157.635 163.36 158.916 156.167 156.65 155.279C154.383 154.392 147.781 153.407 145.81 153.604Z" fill="#537EE4"/>
<path d="M130.633 181.493C131.693 179.093 140.981 178.734 146.401 181.986C151.821 185.238 159.508 182.38 162.07 184.647C162.07 184.647 162.267 203.667 160.099 212.142L126.001 209.481C126.001 209.481 127.283 189.082 130.633 181.493Z" fill="#C4ECF6"/>
<path d="M146.478 154.94C146.408 154.849 146.273 154.84 146.171 154.859C145.907 154.908 145.799 155.163 145.682 155.376C145.569 155.584 145.487 155.801 145.41 156.024C145.248 156.495 145.104 156.97 144.987 157.454C144.757 158.4 144.485 159.43 144.718 160.397C144.787 160.682 145.251 160.773 145.382 160.484C145.779 159.607 145.83 158.626 146.046 157.696C146.155 157.228 146.271 156.761 146.406 156.299C146.524 155.89 146.764 155.308 146.478 154.94Z" fill="#1A203F"/>
<path d="M148.564 155.217C148.04 155.257 147.957 155.888 147.861 156.3C147.755 156.763 147.663 157.231 147.563 157.695C147.467 158.145 147.371 158.593 147.275 159.043C147.172 159.524 147.007 160.031 147.152 160.519C147.241 160.815 147.674 160.985 147.895 160.715C148.233 160.304 148.29 159.804 148.388 159.299C148.479 158.831 148.569 158.363 148.659 157.896C148.75 157.428 148.849 156.961 148.929 156.492C148.969 156.254 149.024 156.01 149.009 155.769C148.995 155.53 148.865 155.194 148.564 155.217Z" fill="#1A203F"/>
<path d="M151.459 155.817C151.362 155.541 151.026 155.428 150.803 155.644C150.523 155.915 150.468 156.393 150.377 156.757C150.278 157.153 150.196 157.549 150.125 157.949C150.053 158.353 149.981 158.759 149.933 159.167C149.885 159.571 149.824 160.007 149.966 160.398C150.082 160.721 150.52 160.811 150.71 160.495C150.919 160.15 150.956 159.751 151.014 159.359C151.07 158.97 151.113 158.58 151.173 158.192C151.232 157.804 151.295 157.416 151.357 157.028C151.416 156.66 151.587 156.179 151.459 155.817Z" fill="#1A203F"/>
<path d="M153.866 156.12C153.741 155.903 153.472 155.9 153.296 156.046C152.967 156.321 152.929 156.848 152.857 157.245C152.778 157.686 152.704 158.128 152.633 158.57C152.495 159.44 152.251 160.386 152.406 161.263C152.441 161.458 152.661 161.599 152.849 161.599C153.068 161.599 153.212 161.452 153.291 161.263C153.465 160.847 153.5 160.396 153.553 159.951C153.604 159.523 153.655 159.094 153.711 158.666C153.767 158.253 153.827 157.839 153.889 157.426C153.953 157.008 154.09 156.508 153.866 156.12Z" fill="#1A203F"/>
<path d="M156.39 157.725C156.371 157.272 156.429 156.489 155.983 156.23C155.915 156.19 155.813 156.183 155.746 156.23C155.343 156.515 155.425 157.174 155.4 157.617C155.374 158.12 155.359 158.622 155.319 159.124C155.284 159.576 155.25 160.031 155.169 160.477C155.129 160.693 155.093 160.911 155.041 161.125C154.976 161.394 154.951 161.605 154.977 161.881C155.002 162.149 155.263 162.331 155.517 162.19C156.434 161.681 156.357 160.255 156.385 159.34C156.402 158.803 156.413 158.261 156.39 157.725Z" fill="#1A203F"/>
<path d="M139.034 169.705C138.817 169.335 138.459 169.175 138.049 169.14C137.585 169.099 137.122 169.414 136.743 169.656C136.408 169.868 136.093 170.106 135.781 170.351C135.286 170.742 134.832 171.184 134.426 171.668C133.926 172.264 133.524 172.872 133.226 173.59C133.107 173.872 133.01 174.152 132.957 174.455C132.873 174.945 132.902 175.655 133.563 175.683C133.96 175.699 134.216 175.387 134.446 175.111C134.569 174.964 134.691 174.819 134.805 174.664L134.832 174.626L134.84 174.616L134.983 174.441L135.106 174.297C135.172 174.219 135.235 174.139 135.294 174.056L135.297 174.052L135.366 173.965L135.514 173.789C135.706 173.564 135.898 173.34 136.104 173.127C136.301 172.923 136.508 172.729 136.723 172.544C136.831 172.451 136.941 172.362 137.052 172.272L137.063 172.264L137.251 172.128C137.482 171.965 137.72 171.812 137.965 171.67C138.373 171.435 138.77 171.28 139.034 170.857C139.248 170.514 139.236 170.05 139.034 169.705Z" fill="#C4ECF6"/>
<path d="M142.65 168.26C142.54 167.836 142.135 167.528 141.698 167.528C141.5 167.528 141.278 167.599 141.108 167.695C141.006 167.753 140.909 167.819 140.81 167.88C140.653 167.977 140.479 168.068 140.347 168.195L140.238 168.307C140.124 168.428 140.039 168.552 139.995 168.714C139.975 168.785 139.97 168.885 139.961 168.969C139.962 169.11 139.997 169.242 140.068 169.364C140.137 169.481 140.231 169.575 140.349 169.644C140.489 169.732 140.66 169.79 140.828 169.783L140.954 169.768C141.08 169.753 141.19 169.749 141.304 169.706L141.445 169.653C141.69 169.56 141.941 169.475 142.174 169.353C142.096 169.386 142.018 169.419 141.94 169.452C142.106 169.384 142.261 169.331 142.388 169.193L142.407 169.169L142.41 169.166C142.526 169.05 142.606 168.913 142.65 168.755C142.694 168.59 142.694 168.425 142.65 168.26Z" fill="#C4ECF6"/>
<path d="M160.959 174.096L161.121 174.222H161.121L160.959 174.096Z" fill="#C4ECF6"/>
<path d="M162.127 175.755C162.043 175.563 161.957 175.377 161.846 175.199C161.742 175.031 161.636 174.864 161.524 174.702C161.445 174.591 161.362 174.482 161.277 174.376L161.12 174.222C160.921 174.067 160.704 173.937 160.452 173.887C160.309 173.858 160.166 173.866 160.026 173.908C159.794 173.979 159.661 174.142 159.636 174.384L159.664 174.581C159.676 174.644 159.672 174.616 159.654 174.495C159.65 174.564 159.661 174.629 159.687 174.69C159.767 174.878 159.774 174.896 159.71 174.747L159.73 174.807L159.761 174.937C159.802 175.12 159.873 175.294 159.923 175.475C159.989 175.712 160.035 175.956 160.105 176.191C160.14 176.313 160.179 176.439 160.222 176.558C160.269 176.687 160.317 176.821 160.388 176.938C160.452 177.042 160.551 177.148 160.63 177.25C160.579 177.183 160.528 177.118 160.476 177.051C160.565 177.166 160.64 177.272 160.755 177.36C160.859 177.44 160.98 177.511 161.111 177.54C161.412 177.606 161.8 177.559 162.012 177.301C162.161 177.119 162.259 176.965 162.292 176.729C162.304 176.636 162.31 176.555 162.307 176.464C162.298 176.177 162.238 176.009 162.127 175.755Z" fill="#C4ECF6"/>
<path d="M140.389 184.447C138.99 184.447 138.987 186.621 140.389 186.621C141.789 186.621 141.791 184.447 140.389 184.447Z" fill="#8CA9ED"/>
<path d="M133.589 188.17C131.529 188.17 131.525 191.372 133.589 191.372C135.65 191.372 135.653 188.17 133.589 188.17Z" fill="#8CA9ED"/>
<path d="M142.513 199.646C142.481 199.532 142.424 199.434 142.341 199.35L142.205 199.246C142.101 199.185 141.988 199.154 141.868 199.154C141.775 199.151 141.689 199.17 141.61 199.212C141.527 199.239 141.455 199.285 141.395 199.35C141.329 199.411 141.283 199.483 141.256 199.566C141.214 199.646 141.195 199.731 141.199 199.823L141.222 200.001C141.254 200.115 141.311 200.213 141.395 200.297L141.53 200.401C141.634 200.462 141.747 200.492 141.868 200.493C141.96 200.496 142.046 200.477 142.125 200.435C142.209 200.408 142.28 200.362 142.341 200.297C142.406 200.236 142.452 200.164 142.479 200.081C142.521 200.001 142.541 199.916 142.537 199.823L142.513 199.646Z" fill="#8CA9ED"/>
<path d="M149.904 192.699C149.829 192.43 149.692 192.196 149.495 191.998C149.388 191.915 149.281 191.833 149.173 191.75C148.926 191.606 148.658 191.533 148.371 191.533C148.153 191.524 147.948 191.57 147.759 191.67C147.562 191.733 147.392 191.843 147.248 191.998C147.093 192.142 146.983 192.312 146.919 192.51C146.819 192.699 146.774 192.903 146.782 193.122C146.801 193.263 146.82 193.404 146.839 193.544C146.915 193.814 147.051 194.048 147.248 194.246C147.355 194.328 147.462 194.412 147.57 194.494C147.818 194.638 148.085 194.711 148.371 194.711C148.59 194.72 148.795 194.674 148.984 194.575C149.181 194.51 149.351 194.401 149.495 194.246C149.65 194.102 149.76 193.931 149.824 193.735C149.923 193.545 149.969 193.341 149.961 193.122C149.942 192.981 149.923 192.84 149.904 192.699Z" fill="#8CA9ED"/>
<path d="M157.441 187.532C157.393 187.358 157.304 187.207 157.177 187.079C157.108 187.026 157.039 186.973 156.97 186.919C156.809 186.826 156.637 186.78 156.452 186.779C156.31 186.773 156.178 186.803 156.056 186.867C155.929 186.908 155.819 186.979 155.726 187.079C155.626 187.172 155.555 187.283 155.514 187.41C155.449 187.532 155.42 187.664 155.425 187.805C155.437 187.896 155.449 187.987 155.462 188.078C155.51 188.252 155.598 188.403 155.726 188.531C155.795 188.585 155.864 188.638 155.934 188.691C156.093 188.784 156.266 188.831 156.452 188.831C156.592 188.837 156.725 188.807 156.847 188.743C156.974 188.702 157.085 188.631 157.177 188.531C157.277 188.438 157.348 188.328 157.39 188.201C157.453 188.078 157.483 187.946 157.478 187.805C157.465 187.714 157.453 187.623 157.441 187.532Z" fill="#8CA9ED"/>
<path d="M155.862 194.818C155.001 194.818 154.999 196.156 155.862 196.156C156.723 196.156 156.724 194.818 155.862 194.818Z" fill="#8CA9ED"/>
<path d="M241.266 227.378C241.266 227.378 246.547 182.354 244.906 178.553C243.265 174.751 205.324 168.316 200.214 171.339C195.104 174.362 189.233 214.633 188.72 218.417C188.206 222.2 240.622 232.011 241.266 227.378Z" fill="#537EE4"/>
<path d="M232.751 174.1C236.615 174.854 232.499 182.349 227.242 183.745C221.986 185.142 218.799 179.341 218.799 179.341C218.799 179.341 214.886 182.756 210.58 180.644C206.274 178.532 206.566 171.352 209.892 170.703C218.036 173.99 232.751 174.1 232.751 174.1Z" fill="white"/>
<path d="M232.751 174.1C231.544 176.026 229.329 177.314 227.121 178.066C224.869 178.833 222.444 179.215 220.098 178.824C218.146 178.499 216.309 177.65 214.651 176.569C213.201 175.623 211.851 174.473 210.918 173.015C210.46 172.297 210.126 171.515 209.893 170.703C216.675 171.14 225.601 172.501 232.751 174.1Z" fill="#1A203F"/>
<path d="M216.289 184.754C216.388 184.598 216.508 184.465 216.641 184.346L216.645 184.344C216.89 184.118 217.175 183.966 217.499 183.887C217.749 183.817 217.997 183.814 218.243 183.877C218.503 183.896 218.743 183.98 218.962 184.13C219.245 184.311 219.466 184.549 219.626 184.845L219.628 184.849L219.731 185.118L219.803 185.311L219.806 185.321L219.807 185.326V185.328L219.86 185.827V185.838C219.849 186.193 219.749 186.521 219.562 186.822C219.378 187.109 219.137 187.333 218.837 187.495C218.536 187.655 218.215 187.73 217.875 187.723C217.52 187.712 217.192 187.612 216.891 187.424C216.604 187.241 216.379 186.999 216.218 186.7C216.059 186.399 215.983 186.079 215.99 185.739C216.001 185.384 216.101 185.055 216.289 184.754Z" fill="#1A203F"/>
<path d="M214.287 199.593C214.386 199.437 214.506 199.304 214.64 199.185L214.643 199.182C214.888 198.958 215.173 198.805 215.497 198.726C215.747 198.657 215.996 198.653 216.242 198.715C216.501 198.735 216.741 198.82 216.96 198.969C217.244 199.15 217.465 199.388 217.624 199.683L217.626 199.688L217.729 199.957L217.802 200.15L217.805 200.16L217.805 200.164L217.806 200.167L217.858 200.666V200.677C217.847 201.032 217.747 201.36 217.56 201.662C217.376 201.949 217.135 202.173 216.836 202.334C216.535 202.493 216.214 202.57 215.874 202.562C215.519 202.551 215.191 202.451 214.889 202.263C214.602 202.08 214.378 201.839 214.217 201.539C214.057 201.238 213.981 200.918 213.989 200.577C214 200.222 214.099 199.894 214.287 199.593Z" fill="#1A203F"/>
<path d="M224.125 196.153C224.966 195.466 236.474 196.957 237.679 197.861C238.884 198.764 237.177 209.306 235.972 210.812C234.768 212.318 229.245 213.422 228.041 213.824C226.836 214.225 222.92 209.206 222.117 208.001C221.314 206.796 223.021 197.057 224.125 196.153Z" fill="white"/>
<path d="M112.359 189.555C104.804 192.814 96.3397 188.894 98.2115 205.629C99.7074 219.006 108.725 222.914 121.277 219.447C133.828 215.978 136.851 206.487 133.333 196.986C128.378 183.61 120.782 185.921 112.359 189.555Z" fill="#F14A64"/>
<path d="M114.335 191.624C114.147 191.174 113.877 190.72 113.661 190.259C113.571 190.068 113.49 189.874 113.403 189.683L113.195 189.229C113.024 188.803 112.879 188.364 112.759 187.921C112.64 187.486 112.567 187.046 112.476 186.605L112.471 186.583V186.581C112.461 186.492 112.45 186.404 112.439 186.316C112.408 186.049 112.379 185.783 112.361 185.515C112.333 185.067 112.328 184.619 112.348 184.172C112.357 183.964 112.373 183.754 112.393 183.546C112.396 183.521 112.405 183.441 112.413 183.374C112.429 183.281 112.452 183.135 112.457 183.107C112.5 182.873 112.556 182.641 112.592 182.405C112.583 182.463 112.702 181.579 112.653 181.956C112.604 182.321 112.718 181.611 112.716 181.43C112.701 180.275 111.787 179.245 110.575 179.407C108.843 179.64 108.578 181.504 108.431 182.923C108.229 184.867 108.49 186.896 109.197 188.718C109.628 189.829 110.14 190.912 110.878 191.853C111.572 192.735 112.426 193.772 113.661 193.664C113.992 193.635 114.419 193.426 114.472 193.047C114.546 192.52 114.536 192.104 114.335 191.624Z" fill="#1A203F"/>
<path d="M110.212 185.84C110.212 185.84 102.863 177.995 95.4316 185.921C95.4316 185.921 103.358 194.014 110.212 185.84Z" fill="#4AC1A6"/>
<path d="M109.488 185.737C109.278 185.338 108.821 185.245 108.415 185.111C107.867 184.93 107.306 184.792 106.738 184.694C105.711 184.517 104.667 184.46 103.625 184.482C102.488 184.507 101.356 184.637 100.234 184.813C99.5967 184.913 98.9632 185.031 98.3318 185.161C97.8474 185.261 97.2685 185.271 96.9045 185.63C96.8422 185.69 96.88 185.779 96.9514 185.808C97.3651 185.972 97.811 185.805 98.2373 185.728C98.7938 185.628 99.3503 185.531 99.9082 185.441C101.102 185.246 102.306 185.105 103.517 185.079C104.574 185.056 105.634 185.132 106.672 185.338C107.167 185.436 107.657 185.56 108.135 185.719C108.55 185.856 108.94 186.117 109.38 186.003C109.498 185.973 109.542 185.838 109.488 185.737Z" fill="#149B8E"/>
<path d="M105.823 194.151C105.64 193.914 105.439 193.807 105.161 193.693C104.849 193.567 104.471 193.608 104.171 193.735C104.041 193.79 103.918 193.847 103.793 193.913C103.653 193.987 103.515 194.064 103.38 194.146C102.988 194.384 102.615 194.654 102.31 194.997C102.015 195.328 101.73 195.689 101.521 196.081C101.482 196.155 101.445 196.23 101.412 196.307C101.35 196.446 101.269 196.598 101.227 196.744C101.179 196.911 101.168 197.111 101.148 197.27C101.113 197.555 101.153 197.838 101.259 198.105C101.329 198.354 101.455 198.57 101.637 198.754C101.82 198.936 102.037 199.062 102.286 199.132C102.773 199.266 103.369 199.137 103.717 198.754C103.887 198.567 104.054 198.381 104.177 198.157C104.251 198.022 104.312 197.879 104.369 197.736C104.487 197.483 104.631 197.246 104.797 197.023C104.956 196.824 105.115 196.626 105.269 196.425C105.188 196.53 105.107 196.635 105.026 196.739C105.158 196.568 105.297 196.403 105.444 196.244C105.513 196.169 105.585 196.096 105.656 196.021C105.94 195.721 106.118 195.345 106.097 194.923C106.083 194.634 106.001 194.38 105.823 194.151Z" fill="#F9A86F"/>
<path d="M103.017 200.953L103.003 200.855C102.973 200.647 102.865 200.47 102.758 200.293C102.675 200.152 102.563 200.04 102.422 199.956C102.314 199.888 102.198 199.851 102.072 199.845C101.948 199.817 101.823 199.823 101.698 199.862C101.539 199.907 101.401 199.987 101.283 200.103L101.174 200.225C101.099 200.307 101.024 200.398 100.964 200.493C100.9 200.593 100.864 200.719 100.824 200.835C100.802 200.897 100.777 200.959 100.761 201.023C100.747 201.127 100.733 201.23 100.719 201.335L100.722 201.366L100.728 201.419L100.737 201.524C100.751 201.625 100.765 201.725 100.778 201.826C100.814 201.974 100.882 202.103 100.982 202.212C101.032 202.297 101.1 202.366 101.185 202.416C101.295 202.516 101.424 202.584 101.572 202.619C101.822 202.693 101.925 202.653 102.176 202.619C102.368 202.565 102.536 202.468 102.677 202.327C102.819 202.185 102.916 202.018 102.97 201.826C103.019 201.664 103.071 201.511 103.066 201.335C103.062 201.208 103.035 201.079 103.017 200.953Z" fill="#F9A86F"/>
<path d="M189.537 288.065L245.467 270.229L246.568 201.968L189.537 205.712V288.065Z" fill="#985F47"/>
<path d="M189.537 205.712V288.065H97.9363L97.7158 205.712H189.537Z" fill="#CE7E5A"/>
<path d="M97.7158 205.712H189.537L175.004 234.777L80.981 233.236L97.7158 205.712Z" fill="#E79074"/>
<path d="M158.055 257.898C158.055 267.144 150.56 274.639 141.315 274.639C132.069 274.639 124.574 267.144 124.574 257.898C124.574 248.653 132.069 241.157 141.315 241.157C150.56 241.157 158.055 248.653 158.055 257.898Z" fill="white"/>
<path d="M154.875 257.898C154.875 265.388 148.804 271.459 141.315 271.459C133.825 271.459 127.754 265.388 127.754 257.898C127.754 250.409 133.825 244.337 141.315 244.337C148.804 244.337 154.875 250.409 154.875 257.898Z" fill="#F14A64"/>
<path d="M150.277 254.517H144.696V248.935C144.696 248.4 144.262 247.965 143.726 247.965H138.903C138.368 247.965 137.933 248.4 137.933 248.935V254.517H132.352C131.816 254.517 131.382 254.951 131.382 255.487V260.309C131.382 260.845 131.816 261.279 132.352 261.279H137.933V266.86C137.933 267.396 138.368 267.831 138.903 267.831H143.726C144.262 267.831 144.696 267.396 144.696 266.86V261.279H150.277C150.813 261.279 151.247 260.845 151.247 260.309V255.487C151.247 254.951 150.813 254.517 150.277 254.517Z" fill="white"/>
<path d="M182.629 277H186.427V285.918H182.629V277Z" fill="#713D34"/>
<path d="M176.519 277H180.317V285.918H176.519V277Z" fill="#713D34"/>
<path d="M246.171 226.582L209.395 235.248L189.537 208.96V205.712L210.126 233.016L246.171 226.582Z" fill="#1A203F"/>
<path d="M189.537 205.712L210.126 233.016L261.321 223.877L246.568 201.968L189.537 205.712Z" fill="#E79074"/>
<path d="M97.7158 233.51L176.936 237.64L189.537 208.96V205.712L175.004 234.777L97.7158 233.51Z" fill="#1A203F"/>
<path d="M147.194 219.444C146.809 219.146 146.332 219.14 145.904 219.353C145.17 219.717 144.683 220.336 144.195 220.971C143.802 221.481 143.424 222.002 143.061 222.534C142.709 223.049 142.357 223.569 142.072 224.125C141.89 224.483 141.672 224.858 141.568 225.245C141.449 225.684 141.408 226.085 141.506 226.535C141.612 227.023 142.248 227.42 142.73 227.231C142.949 227.144 143.161 227.065 143.348 226.92C143.488 226.813 143.607 226.688 143.731 226.563C144.007 226.289 144.207 225.949 144.428 225.63C144.794 225.1 145.13 224.552 145.488 224.016C145.837 223.497 146.199 222.989 146.575 222.489L146.708 222.314C146.759 222.247 146.743 222.267 146.716 222.301C146.862 222.117 147.003 221.936 147.122 221.733C147.325 221.388 147.494 221.05 147.61 220.665C147.745 220.218 147.552 219.72 147.194 219.444Z" fill="#F14A64"/>
<path d="M150.959 220.524C150.278 220.696 149.706 221.302 149.27 221.822C148.836 222.338 148.385 222.867 148.037 223.444C147.749 223.92 147.468 224.409 147.239 224.916C147.079 225.27 146.955 225.637 146.872 226.018C146.77 226.49 146.836 226.932 146.972 227.384C147.193 228.117 148.035 228.478 148.71 228.092C149.099 227.869 149.428 227.636 149.698 227.261C149.849 227.051 150.009 226.834 150.139 226.611C150.42 226.129 150.653 225.621 150.942 225.142C151.221 224.68 151.468 224.198 151.756 223.74C152.14 223.13 152.543 222.52 152.613 221.784C152.696 220.91 151.714 220.333 150.959 220.524Z" fill="#F14A64"/>
<path d="M157.531 220.153C157.115 219.933 156.54 219.955 156.207 220.324C155.31 221.313 154.698 222.513 154.085 223.689C153.808 224.221 153.549 224.755 153.306 225.303C152.95 226.104 152.553 227.457 153.515 228.02C154.464 228.575 155.427 227.548 155.835 226.781C156.116 226.252 156.377 225.719 156.625 225.174C157.176 223.957 157.804 222.711 158.033 221.387C158.113 220.921 157.985 220.392 157.531 220.153Z" fill="#F14A64"/>
<path d="M163.008 221.64C162.822 221.05 162.235 220.704 161.627 220.856C160.826 221.054 160.36 221.862 159.98 222.526C159.662 223.082 159.342 223.639 159.076 224.221C158.479 225.524 157.764 226.852 158.121 228.323C158.252 228.863 158.943 229.148 159.415 228.849C160.593 228.104 161.049 226.843 161.65 225.654C161.93 225.1 162.176 224.528 162.446 223.967C162.784 223.268 163.261 222.442 163.008 221.64Z" fill="#F14A64"/>
<path d="M167.147 222.053C166.946 221.521 166.36 221.193 165.822 221.514C165.433 221.746 165.164 222.042 164.991 222.457C164.878 222.728 164.767 223 164.654 223.271C164.43 223.814 164.206 224.356 163.982 224.899C163.76 225.434 163.56 225.996 163.4 226.552C163.224 227.164 163.197 227.812 163.247 228.44C163.275 228.8 163.448 229.117 163.797 229.258C164.118 229.387 164.526 229.339 164.773 229.073C165.249 228.561 165.642 228.024 165.905 227.372C166.121 226.834 166.324 226.275 166.485 225.719C166.648 225.159 166.803 224.597 166.962 224.036C167.149 223.376 167.405 222.737 167.147 222.053Z" fill="#F14A64"/>
<path d="M172.345 222.345C172.26 221.857 171.91 221.458 171.392 221.434C170.585 221.397 170.13 222.195 169.799 222.804C169.499 223.358 169.246 223.931 168.993 224.507C168.473 225.691 167.945 226.886 167.656 228.152C167.498 228.843 167.609 229.9 168.294 230.294C169.006 230.705 169.952 229.943 170.278 229.336C170.597 228.742 170.793 228.047 171.037 227.419C171.257 226.855 171.405 226.257 171.588 225.681C171.802 225.009 172.023 224.344 172.211 223.665C172.336 223.212 172.428 222.818 172.345 222.345Z" fill="#F14A64"/>
<path d="M176.562 223.546C176.396 222.788 175.523 222.574 174.908 222.873C174.18 223.227 173.855 224.123 173.486 224.8C173.16 225.397 172.814 225.986 172.514 226.595C172.212 227.206 171.911 227.822 171.634 228.444C171.475 228.799 171.31 229.198 171.209 229.578C171.069 230.112 171.191 230.556 171.414 231.038C171.587 231.414 172.084 231.547 172.454 231.461C173.334 231.256 173.804 230.537 174.206 229.785C174.525 229.186 174.827 228.565 175.109 227.949C175.393 227.326 175.65 226.689 175.92 226.06C176.268 225.25 176.76 224.453 176.562 223.546Z" fill="#F14A64"/>
<path d="M165.426 194.702C160.047 196.156 148.135 209.852 143.684 218.829C142.876 220.459 143.965 222.392 145.775 222.573L175.58 225.554C176.77 225.673 177.921 225.104 178.546 224.084C181.141 219.846 188.091 208.806 191.63 206.152C196.033 202.85 189.868 188.096 165.426 194.702Z" fill="#F14A64"/>
<path d="M180.122 213.224C178.398 213.245 176.925 214.292 175.235 214.467C173.577 214.64 171.911 214.127 170.618 213.083C169.529 212.202 168.637 211.068 167.328 210.49C165.934 209.874 164.502 210.172 163.179 210.819C161.605 211.59 160.224 212.386 158.398 212.218C156.59 212.052 155.343 210.912 153.944 209.887C152.862 209.095 151.703 208.58 150.428 208.489C150.073 208.944 149.726 209.403 149.382 209.862C149.467 209.848 149.548 209.827 149.635 209.817C151.291 209.61 152.595 210.402 153.877 211.341C155.133 212.26 156.401 213.062 157.96 213.34C159.404 213.597 160.831 213.419 162.18 212.853C163.523 212.288 165.046 211.203 166.561 211.709C167.86 212.141 168.814 213.361 169.837 214.212C170.943 215.133 172.246 215.744 173.674 215.958C175.277 216.199 176.71 215.837 178.227 215.349C179.155 215.051 180.107 214.75 181.055 215.137C181.877 215.472 182.586 216.098 183.281 216.664C183.635 216.135 183.995 215.602 184.358 215.071C183.071 214.208 181.713 213.205 180.122 213.224Z" fill="#F9A86F"/>
<path d="M160.807 204.122C162.313 203.694 163.687 202.617 165.3 202.619C167.708 202.621 169.357 205.017 171.248 206.171C172.266 206.792 173.423 207.15 174.619 207.001C176.289 206.795 177.629 205.758 179.376 206.053C181.203 206.361 182.846 207.46 184.322 208.522C185.082 209.07 185.807 209.663 186.501 210.293C186.768 210.536 187.025 210.769 187.294 210.97C187.753 210.363 188.205 209.787 188.642 209.251C188.027 208.541 187.177 207.964 186.481 207.437C185.183 206.455 183.795 205.55 182.318 204.861C180.797 204.151 179.157 203.701 177.473 203.981C176.111 204.206 174.826 205.255 173.413 205.055C172.288 204.896 171.292 204.134 170.395 203.493C169.459 202.824 168.524 202.091 167.475 201.605C166.323 201.071 165.116 200.936 163.877 201.241C162.387 201.608 161.069 202.469 159.583 202.845C158.098 203.222 156.671 203.125 155.333 202.707C155.05 203.013 154.767 203.322 154.484 203.637C155.296 203.986 156.15 204.232 156.988 204.353C158.26 204.537 159.567 204.474 160.807 204.122Z" fill="#F9A86F"/>
<path d="M206.517 278.106C205.332 277.925 204.298 278.832 203.471 279.557C202.745 280.193 202.128 280.958 201.586 281.763C201.574 281.687 201.567 281.609 201.554 281.532C201.346 280.239 201.096 278.951 200.823 277.669C200.534 276.314 199.972 275.084 199.582 273.768C199.483 273.435 198.927 273.48 198.953 273.853C199.047 275.197 198.901 276.564 198.978 277.918C199.051 279.184 199.091 280.449 199.111 281.716C199.116 282.038 199.125 282.358 199.132 282.679C198.634 282.106 198.114 281.55 197.552 281.049C197.137 280.678 196.71 280.322 196.285 279.964C195.83 279.582 195.385 279.141 194.865 278.851C194.593 278.701 194.202 278.664 193.934 278.851L193.755 278.988L193.748 278.995C193.452 279.29 193.407 279.753 193.604 280.112C194.065 280.953 194.852 281.665 195.467 282.398C196.084 283.132 196.73 283.846 197.29 284.625C198.345 286.093 199.143 287.755 199.536 289.525C199.715 290.335 199.943 291.86 201.141 291.571C202.21 291.313 202.28 289.851 202.215 288.969C202.197 288.732 202.166 288.501 202.128 288.271C202.205 287.62 202.155 286.933 202.093 286.281C202.371 285.356 202.705 284.46 203.165 283.606C203.65 282.704 204.247 281.882 204.875 281.076C205.505 280.267 206.494 279.526 206.732 278.484C206.765 278.336 206.688 278.132 206.517 278.106Z" fill="#149B8E"/>
<path d="M239.956 273.155C239.869 272.063 239.764 270.945 239.508 269.878C239.268 268.879 239.018 267.845 238.598 266.905C238.394 266.447 238.171 265.997 237.941 265.552C237.83 265.339 237.742 265.112 237.535 264.971C237.41 264.886 237.282 264.875 237.162 264.792L237.044 264.84C236.984 265.026 236.861 265.108 236.83 265.315C236.798 265.525 236.849 265.734 236.873 265.943C236.931 266.441 236.959 266.94 237.008 267.439C237.099 268.387 237.258 269.324 237.33 270.276C237.361 270.688 237.4 271.099 237.437 271.51C237.158 271.195 236.852 270.906 236.51 270.647C235.961 270.23 235.35 269.907 234.702 269.674C234.381 269.557 234.045 269.454 233.702 269.431C233.401 269.411 233.065 269.355 232.846 269.596L232.833 269.693C232.955 269.961 233.223 270.029 233.467 270.171C233.731 270.326 234.007 270.454 234.266 270.617C234.765 270.931 235.2 271.32 235.591 271.781L235.697 271.911L235.778 272.018C235.876 272.151 235.975 272.283 236.067 272.42C236.24 272.677 236.394 272.946 236.526 273.225L236.577 273.337L236.63 273.467C236.709 273.677 236.779 273.887 236.866 274.095C236.804 273.948 236.843 274.042 236.879 274.134C236.904 274.201 236.927 274.269 236.951 274.336C237.066 274.657 237.207 274.874 237.496 275.067C237.596 275.135 237.71 275.167 237.826 275.176C237.93 275.512 238.076 275.818 238.25 276.158C238.467 276.584 239.107 276.549 239.334 276.158C239.635 275.636 239.83 275.209 239.903 274.601C239.962 274.111 239.994 273.648 239.956 273.155Z" fill="#149B8E"/>
<path d="M111.14 282.803C110.742 282.787 110.443 283.035 110.14 283.296C109.879 283.45 109.701 283.67 109.495 283.924C109.253 284.222 109.004 284.523 108.791 284.843C108.63 285.083 108.484 285.338 108.345 285.596C108.272 285.238 108.2 284.88 108.127 284.523C107.93 283.55 107.739 282.579 107.487 281.618C107.352 281.106 107.241 280.577 107.081 280.072C106.948 279.653 106.81 279.159 106.477 278.862C106.297 278.703 106.019 278.722 105.89 278.938C105.429 279.708 105.708 280.995 105.751 281.854C105.8 282.843 105.912 283.823 106.018 284.808C106.058 285.179 106.098 285.55 106.138 285.921C105.62 285.314 105.018 284.771 104.408 284.259C104.066 283.971 103.716 283.695 103.359 283.427C103.183 283.295 103.019 283.166 102.815 283.08C102.568 282.976 102.411 283.027 102.164 283.001C101.911 282.973 101.726 283.27 101.791 283.491C101.81 283.373 101.812 283.368 101.797 283.474V283.626C101.806 283.744 101.841 283.853 101.893 283.959C101.994 284.166 102.146 284.33 102.298 284.499C102.564 284.798 102.822 285.104 103.071 285.418C103.554 286.025 103.968 286.681 104.403 287.323C104.85 287.982 105.259 288.667 105.627 289.374C106.054 290.198 106.399 291.187 107.162 291.754C107.482 291.992 107.999 291.945 108.325 291.754C108.666 291.555 108.823 291.234 108.877 290.865L108.931 290.753C108.99 290.565 109.022 290.369 109.043 290.172L109.11 290.024C109.228 289.68 109.33 289.332 109.458 288.991C109.585 288.651 109.695 288.308 109.814 287.964C109.869 287.804 109.928 287.643 109.988 287.485C110.018 287.405 110.049 287.326 110.08 287.247L110.144 287.088C110.414 286.445 110.727 285.815 111.031 285.188C111.114 285.015 111.204 284.846 111.29 284.674C111.385 284.485 111.433 284.271 111.486 284.103C111.591 283.772 111.695 283.516 111.621 283.211C111.762 282.906 111.408 282.636 111.14 282.803Z" fill="#149B8E"/>
<path d="M161.278 283.609C161.004 284.087 160.699 284.559 160.45 285.051C160.195 285.556 159.995 286.103 159.791 286.63C159.628 287.047 159.474 287.468 159.331 287.893C159.252 287.67 159.174 287.448 159.095 287.225C158.858 286.555 158.617 285.884 158.403 285.207C158.189 284.533 158.041 283.84 157.834 283.165C157.761 282.93 157.435 281.617 156.961 281.925C156.488 282.232 156.531 283.112 156.543 283.612C156.559 284.31 156.638 285.014 156.728 285.706C156.751 285.891 156.782 286.073 156.809 286.255C156.319 285.79 155.781 285.375 155.192 285.03C154.605 284.686 153.929 284.454 153.261 284.327C152.932 284.264 152.581 284.244 152.246 284.251C151.94 284.258 151.603 284.368 151.303 284.441C151.24 284.456 151.222 284.556 151.284 284.587C151.528 284.706 151.727 284.854 151.953 284.999C152.202 285.159 152.483 285.293 152.741 285.442C153.28 285.754 153.755 286.084 154.221 286.413C154.439 286.565 154.551 286.655 154.778 286.858C154.999 287.055 155.209 287.264 155.407 287.484C155.501 287.588 155.591 287.696 155.681 287.804L155.709 287.838L155.84 288.017C156.011 288.259 156.157 288.513 156.31 288.766C156.452 289.005 156.591 289.253 156.741 289.487C157.026 289.932 157.569 290.214 158.043 290.004C158.291 290.288 158.629 290.457 159.02 290.35C159.13 290.319 159.235 290.256 159.333 290.181C159.533 290.294 159.803 290.245 159.987 290.098C160.42 289.753 160.539 289.004 160.637 288.492C160.736 287.977 160.846 287.465 160.97 286.955C161.093 286.447 161.251 285.948 161.373 285.44C161.504 284.896 161.607 284.353 161.765 283.814C161.851 283.524 161.427 283.345 161.278 283.609Z" fill="#149B8E"/>
<path d="M68.2003 262.488C68.1437 262.414 68.016 262.366 67.907 262.395C67.006 262.627 66.5945 263.495 66.2461 264.13C65.8225 264.903 65.483 265.684 65.1994 266.495L65.1885 266.532C64.8874 265.878 64.5678 265.229 64.2442 264.58C63.8314 263.752 63.4324 262.919 62.9679 262.106C62.7406 261.709 62.514 261.315 62.2572 260.929C62.0171 260.568 61.8375 260.23 61.3723 260.02C61.2438 259.962 61.0262 259.987 60.9605 260.105C60.5635 260.817 61.0325 261.854 61.2283 262.579C61.4617 263.444 61.7642 264.296 62.0515 265.152C62.3332 265.99 62.6075 266.826 62.9419 267.652C62.8079 267.565 62.678 267.472 62.5429 267.388C61.8588 266.963 61.1394 266.517 60.3543 266.21C59.9379 266.048 59.5215 265.899 59.0747 265.794C58.8603 265.744 58.6005 265.655 58.3752 265.703C58.216 265.738 57.9664 265.839 57.9708 265.992C57.9773 266.219 58.0394 266.347 58.2503 266.502C58.3924 266.606 58.5289 266.715 58.6694 266.82C58.9387 267.023 59.2322 267.215 59.5176 267.404C60.1172 267.801 60.7062 268.198 61.252 268.641C61.5192 268.857 61.7767 269.081 62.0256 269.31C62.1563 269.431 62.2835 269.554 62.41 269.677L62.451 269.717L62.5224 269.79C62.5976 269.865 62.6745 269.94 62.7513 270.016L62.8757 270.138L63.0043 270.271C63.124 270.397 63.241 270.525 63.3553 270.654C63.6723 271.012 63.9924 271.494 64.5912 271.577C64.7335 271.597 64.8798 271.6 65.0211 271.585C65.4015 271.856 65.9762 271.937 66.3828 271.6C67.1935 270.929 67.1392 270.04 67.2622 269.174C67.3642 268.454 67.4949 267.735 67.6313 267.02C67.7765 266.262 67.9575 265.506 68.1276 264.751C68.2818 264.067 68.6813 263.117 68.2003 262.488Z" fill="#149B8E"/>
<path d="M270.338 259.998L270.326 259.995C270.221 259.915 270.099 259.865 269.939 259.848C269.775 259.832 269.62 259.835 269.457 259.865C269.207 259.911 268.957 259.99 268.716 260.067C268.444 260.154 268.181 260.273 267.926 260.409L267.997 260.26C268.354 259.551 268.77 258.871 269.182 258.193C269.392 257.847 269.628 257.521 269.847 257.181C269.962 257.002 270.054 256.797 270.051 256.577C270.049 256.413 270.004 256.335 270.018 256.208L269.925 256.115C269.791 256.129 269.826 256.136 269.84 256.138L269.8 256.135C269.724 256.131 269.644 256.089 269.563 256.089C269.343 256.091 269.115 256.193 268.949 256.328C268.617 256.598 268.305 256.9 268.002 257.202C267.369 257.831 266.833 258.549 266.34 259.292C266.182 259.532 266.044 259.781 265.902 260.028C265.752 259.057 265.588 258.077 265.328 257.13C265.045 256.098 264.725 255.058 264.33 254.062C264.192 253.714 263.704 251.907 263.066 252.408C262.76 252.65 262.878 252.995 262.927 253.333C262.999 253.835 263.058 254.337 263.132 254.839C263.284 255.862 263.371 256.889 263.5 257.915C263.594 258.673 263.671 259.432 263.734 260.194L263.697 260.149C263.345 259.745 262.981 259.352 262.605 258.971C262.208 258.571 261.652 258.152 261.092 258.048C260.698 257.975 260.39 258.276 260.468 258.672C260.562 259.153 260.859 259.613 261.158 260C261.313 260.2 261.478 260.393 261.634 260.591L261.746 260.733L261.772 260.768C261.846 260.865 261.919 260.962 261.991 261.06C262.565 261.837 263.048 262.669 263.594 263.464C263.942 263.971 264.349 264.746 265.051 264.655C265.259 264.779 265.507 264.795 265.759 264.674C266.204 264.461 266.454 264.076 266.634 263.642L266.662 263.621C266.835 263.463 266.997 263.296 267.168 263.136C267.347 262.968 267.533 262.809 267.724 262.655L267.74 262.644L267.866 262.55C267.965 262.477 268.066 262.407 268.168 262.338C268.558 262.079 268.977 261.876 269.376 261.633C269.789 261.381 270.421 261.167 270.566 260.671C270.726 260.425 270.644 260.088 270.338 259.998Z" fill="#149B8E"/>
<path d="M218.616 308.681C218.544 308.704 218.473 308.727 218.402 308.751H218.427C218.213 308.785 218.027 308.882 217.826 309.027C217.58 309.205 217.355 309.394 217.139 309.608C216.925 309.82 216.731 310.05 216.53 310.276C216.496 310.077 216.471 309.875 216.432 309.679C216.253 308.757 216.034 307.843 215.795 306.935C215.55 306.011 215.234 305.132 214.937 304.229C214.871 304.025 214.529 304.046 214.545 304.282C214.663 306.115 214.626 307.994 214.556 309.831C214.528 310.577 214.504 311.325 214.495 312.073C214.339 311.928 214.187 311.779 214.025 311.64C213.872 311.509 213.716 311.379 213.557 311.253C213.355 311.094 213.132 310.972 212.907 310.849C212.554 310.655 212.146 310.419 211.73 310.426L211.67 310.401C211.416 310.293 211.203 310.558 211.378 310.778L211.411 310.82C211.486 311.151 211.719 311.437 211.913 311.709C212.159 312.051 212.398 312.388 212.666 312.714C212.723 312.784 212.78 312.854 212.837 312.925C212.874 312.971 213.049 313.175 212.902 313.008C213.023 313.146 213.127 313.307 213.233 313.458C214.005 314.549 216.182 316.614 216.726 314.096C216.759 313.943 216.778 313.779 216.791 313.613C216.869 313.468 216.947 313.322 217.03 313.179C217.279 312.754 217.515 312.32 217.78 311.905C217.908 311.703 218.041 311.505 218.18 311.311C218.244 311.219 218.31 311.129 218.377 311.039L218.478 310.905C218.373 311.044 218.492 310.888 218.513 310.862C218.692 310.637 218.868 310.411 219.032 310.175C219.094 310.085 219.162 309.999 219.213 309.902C219.27 309.812 219.302 309.714 219.307 309.609L219.314 309.551L219.368 309.434C219.543 308.999 219.027 308.55 218.616 308.681Z" fill="#149B8E"/>
<path d="M122.048 306.812C121.845 306.508 121.518 306.585 121.205 306.624C120.848 306.667 120.533 306.747 120.198 306.873C119.603 307.096 119.043 307.436 118.509 307.785C118.587 307.53 118.664 307.274 118.757 307.023C118.988 306.4 119.301 305.821 119.573 305.217C119.729 304.869 119.902 304.537 120.009 304.17C120.051 304.026 120.113 303.881 120.144 303.735C120.185 303.54 120.154 303.371 120.233 303.18L120.155 303.12C119.992 303.213 119.852 303.216 119.684 303.275C119.53 303.328 119.387 303.435 119.25 303.519C118.925 303.722 118.671 303.964 118.411 304.244C117.868 304.83 117.435 305.541 117.046 306.235C116.983 306.347 116.93 306.465 116.87 306.579C116.66 305.833 116.422 305.096 116.199 304.375C115.895 303.389 115.57 302.425 115.159 301.477C114.781 300.604 114.454 299.5 113.689 298.887C113.467 298.709 113.069 298.735 112.999 299.069C112.803 300.014 113.161 300.97 113.348 301.893C113.55 302.889 113.787 303.875 114.008 304.867C114.203 305.747 114.341 306.652 114.496 307.553C114.2 307.219 113.898 306.888 113.593 306.562C113.093 306.027 112.601 305.452 112.049 304.97C111.45 304.447 110.81 304.004 110.124 303.605C109.532 303.26 108.901 303.939 109.211 304.518C109.554 305.16 109.912 305.777 110.34 306.368C110.806 307.01 111.342 307.607 111.832 308.233C111.884 308.3 111.937 308.367 111.989 308.434L112.031 308.489C112.146 308.638 112.259 308.787 112.373 308.937C112.63 309.277 112.887 309.618 113.153 309.952C113.271 310.101 113.388 310.25 113.506 310.4C114.968 312.269 116.524 312.65 118.193 310.745C118.62 310.259 119.077 309.8 119.561 309.372C120.086 308.909 120.483 308.671 121.026 308.206C121.26 308.005 121.481 307.812 121.693 307.587C121.864 307.404 122.239 307.1 122.048 306.812Z" fill="#149B8E"/>
<path d="M283.919 284.368L283.917 284.371C284.014 284.215 283.944 284.303 283.919 284.368Z" fill="#149B8E"/>
<path d="M284.71 281.922C284.615 281.951 284.512 282.004 284.416 282.019C284.314 282.035 284.213 282.02 284.109 282.041C283.885 282.087 283.654 282.218 283.451 282.323C283.113 282.498 282.827 282.778 282.571 283.066C282.495 282.717 282.412 282.368 282.332 282.018C282.179 281.343 282.044 280.661 281.871 279.991C281.689 279.29 281.384 278.637 281.248 277.927C281.201 277.687 280.829 277.748 280.828 277.984C280.828 278.716 280.65 279.43 280.603 280.162C280.56 280.834 280.555 281.511 280.532 282.185C280.516 282.645 280.494 283.108 280.487 283.571C280.323 283.364 280.163 283.155 279.991 282.954C279.844 282.782 279.66 282.673 279.469 282.559C279.381 282.507 279.293 282.446 279.197 282.412L279.045 282.383L278.97 282.311C278.828 282.175 278.598 282.348 278.698 282.521L278.754 282.587L278.732 282.719C278.732 282.825 278.77 282.936 278.795 283.038C278.846 283.247 278.887 283.446 278.988 283.638C279.179 283.999 279.381 284.353 279.563 284.72C279.739 285.076 279.897 285.44 280.068 285.798C280.618 286.949 282.735 287.995 283.332 286.266C283.365 286.172 283.39 286.075 283.422 285.979C283.488 285.779 283.525 285.57 283.581 285.366C283.635 285.174 283.703 284.988 283.767 284.8C283.798 284.707 283.828 284.613 283.861 284.52L283.91 284.384C284.013 284.218 284.078 284.017 284.172 283.843C284.29 283.628 284.403 283.427 284.492 283.197L284.506 283.163L284.573 283.015C284.624 282.907 284.689 282.8 284.719 282.685C284.739 282.606 284.734 282.513 284.764 282.437C284.798 282.353 284.87 282.271 284.921 282.197C285.013 282.061 284.86 281.876 284.71 281.922Z" fill="#149B8E"/>
<path d="M178.999 99.2936L179.164 99.9082C179.434 100.913 180.219 101.699 181.225 101.969L181.84 102.134C181.974 102.17 181.974 102.361 181.84 102.397L181.225 102.562C180.219 102.832 179.434 103.618 179.164 104.623L178.999 105.237C178.963 105.372 178.772 105.372 178.736 105.237L178.571 104.623C178.301 103.618 177.516 102.832 176.51 102.562L175.895 102.397C175.761 102.361 175.761 102.17 175.895 102.134L176.51 101.969C177.516 101.699 178.301 100.913 178.571 99.9082L178.736 99.2936C178.772 99.1585 178.963 99.1585 178.999 99.2936Z" fill="#F9A86F"/>
<path d="M323.998 194.582L324.163 195.197C324.433 196.203 325.218 196.988 326.223 197.258L326.838 197.423C326.973 197.459 326.973 197.65 326.838 197.686L326.223 197.851C325.218 198.122 324.433 198.906 324.163 199.912L323.998 200.527C323.962 200.661 323.771 200.661 323.735 200.527L323.57 199.912C323.299 198.906 322.514 198.122 321.509 197.851L320.894 197.686C320.76 197.65 320.76 197.459 320.894 197.423L321.509 197.258C322.514 196.988 323.299 196.203 323.57 195.197L323.735 194.582C323.771 194.448 323.962 194.448 323.998 194.582Z" fill="#F9A86F"/>
<path d="M41.7081 184.344L41.873 184.958C42.1428 185.963 42.9284 186.749 43.9339 187.019L44.5483 187.184C44.6828 187.22 44.6828 187.411 44.5483 187.447L43.9339 187.613C42.9284 187.882 42.1428 188.668 41.873 189.673L41.7081 190.288C41.672 190.422 41.4808 190.422 41.4448 190.288L41.2796 189.673C41.0097 188.668 40.2244 187.882 39.219 187.613L38.6043 187.447C38.4698 187.411 38.4698 187.22 38.6043 187.184L39.219 187.019C40.2244 186.749 41.0097 185.963 41.2796 184.958L41.4448 184.344C41.4808 184.209 41.672 184.209 41.7081 184.344Z" fill="#F9A86F"/>
<path d="M110.721 112.865L110.934 113.655C111.281 114.948 112.292 115.959 113.586 116.306L114.376 116.519C114.549 116.565 114.549 116.811 114.376 116.857L113.586 117.07C112.292 117.417 111.281 118.427 110.934 119.721L110.721 120.512C110.675 120.685 110.429 120.685 110.383 120.512L110.17 119.721C109.823 118.427 108.813 117.417 107.519 117.07L106.728 116.857C106.555 116.811 106.555 116.565 106.728 116.519L107.519 116.306C108.813 115.959 109.823 114.948 110.17 113.655L110.383 112.865C110.429 112.691 110.675 112.691 110.721 112.865Z" fill="#F9A86F"/>
<path d="M260.84 155.637L261.052 156.428C261.399 157.721 262.41 158.732 263.704 159.079L264.494 159.292C264.668 159.338 264.668 159.584 264.494 159.63L263.704 159.843C262.41 160.19 261.399 161.2 261.052 162.494L260.84 163.285C260.793 163.458 260.547 163.458 260.501 163.285L260.288 162.494C259.941 161.2 258.931 160.19 257.637 159.843L256.846 159.63C256.674 159.584 256.674 159.338 256.846 159.292L257.637 159.079C258.931 158.732 259.941 157.721 260.288 156.428L260.501 155.637C260.547 155.464 260.793 155.464 260.84 155.637Z" fill="#F9A86F"/>
</svg>
