<svg width="375" height="291" viewBox="0 0 375 291" fill="none" xmlns="http://www.w3.org/2000/svg">
<path d="M184.482 26.4646C127.132 23.6671 96.3645 -8.5701 56.0215 24.3414C15.6788 57.2529 -8.73926 210.662 95.8335 258.967C204.688 309.25 291.709 261.621 328.867 212.255C366.025 162.887 360.716 68.9312 321.435 32.3042C282.154 -4.32285 228.01 28.5879 184.482 26.4646Z" fill="#CAD7F7"/>
<path d="M304.436 64.4457L304.058 64.2803L304.235 63.8687L304.618 64.0355L304.436 64.4457ZM308.447 66.4063C307.804 66.0593 307.137 65.7163 306.462 65.3859L306.658 64.9833C307.339 65.316 308.012 65.6621 308.66 66.0118L308.447 66.4063ZM312.283 68.6865C311.67 68.2857 311.032 67.8885 310.389 67.5061L310.619 67.121C311.267 67.5065 311.91 67.9073 312.529 68.3117L312.283 68.6865ZM315.905 71.291C315.327 70.8336 314.727 70.3817 314.124 69.9482L314.386 69.5841C314.994 70.0212 315.6 70.4777 316.183 70.939L315.905 71.291ZM319.267 74.2199C318.738 73.7111 318.184 73.2045 317.622 72.7144L317.916 72.3768C318.484 72.8713 319.044 73.3829 319.579 73.8967L319.267 74.2199ZM322.32 77.469C321.843 76.9055 321.344 76.3459 320.836 75.8048L321.163 75.4981C321.676 76.0447 322.18 76.6105 322.662 77.1794L322.32 77.469ZM325.007 81.0239C324.596 80.4133 324.161 79.8026 323.712 79.2095L324.069 78.9387C324.523 79.539 324.964 80.1559 325.379 80.7737L325.007 81.0239ZM327.277 84.8572C327.199 84.7061 327.119 84.555 327.039 84.4053C326.77 83.9004 326.487 83.3965 326.197 82.9078L326.583 82.6796C326.876 83.1741 327.163 83.6834 327.435 84.1945C327.516 84.3461 327.596 84.499 327.675 84.6523L327.277 84.8572ZM329.006 88.9496C328.787 88.2722 328.524 87.5728 328.225 86.8707L328.638 86.6949C328.942 87.4091 329.209 88.1215 329.433 88.8115L329.006 88.9496ZM320.841 91.3527L320.734 90.9174C321.452 90.7403 322.212 90.6313 322.993 90.5941L323.014 91.042C322.262 91.0779 321.532 91.1823 320.841 91.3527ZM327.391 91.519C326.655 91.3357 325.923 91.2016 325.216 91.1205L325.267 90.6753C325.993 90.7582 326.744 90.8959 327.5 91.0842L327.391 91.519ZM329.879 93.2801C329.856 92.9492 329.821 92.6139 329.776 92.2754C329.687 92.2413 329.597 92.2077 329.508 92.175L329.663 91.754L329.7 91.7679C329.663 91.5433 329.621 91.3173 329.575 91.0909L330.014 91.0008C330.08 91.3191 330.136 91.637 330.183 91.953C330.372 92.0279 330.559 92.105 330.745 92.1844C331.082 92.3283 331.415 92.4789 331.745 92.6363L331.553 93.0407C331.228 92.886 330.9 92.7381 330.569 92.5968C330.464 92.552 330.358 92.5076 330.252 92.4641C330.284 92.7278 330.308 92.9896 330.327 93.2483L329.879 93.2801ZM317.015 93.3626L316.712 93.0322C317.287 92.5054 317.918 92.0611 318.587 91.7118L318.795 92.1091C318.161 92.4408 317.561 92.8623 317.015 93.3626ZM335.385 95.2833C334.776 94.8565 334.148 94.4521 333.515 94.0817L333.742 93.6948C334.385 94.0714 335.024 94.4826 335.642 94.9165L335.385 95.2833ZM314.669 96.9865L314.241 96.8534C314.463 96.1374 314.795 95.4393 315.226 94.7785L315.602 95.0237C315.193 95.6496 314.879 96.3095 314.669 96.9865ZM329.915 97.7666L329.482 97.6487C329.677 96.9385 329.807 96.2104 329.869 95.4846L330.315 95.5227C330.251 96.2755 330.117 97.0304 329.915 97.7666ZM338.804 98.1213C338.275 97.6061 337.718 97.1058 337.15 96.6341L337.437 96.2889C338.014 96.7682 338.579 97.2766 339.116 97.7998L338.804 98.1213ZM314.444 101.392C314.39 101.27 314.339 101.146 314.292 101.019C314.071 100.419 313.948 99.7859 313.924 99.1376L314.373 99.1215C314.394 99.7223 314.508 100.309 314.713 100.864C314.756 100.981 314.803 101.096 314.854 101.209L314.444 101.392ZM341.736 101.461C341.293 100.87 340.821 100.289 340.335 99.7339L340.672 99.438C341.166 100.001 341.645 100.592 342.095 101.192L341.736 101.461ZM327.921 101.848L327.564 101.576C328 101.006 328.386 100.377 328.711 99.7066L329.115 99.9021C328.776 100.6 328.375 101.255 327.921 101.848ZM317.681 104.581C316.962 104.238 316.323 103.8 315.782 103.278L316.092 102.956C316.599 103.444 317.198 103.855 317.874 104.176L317.681 104.581ZM324.39 104.711L324.205 104.303C324.858 104.007 325.479 103.62 326.051 103.151L326.336 103.497C325.733 103.991 325.078 104.4 324.39 104.711ZM344.111 105.215C343.766 104.561 343.392 103.914 342.997 103.291L343.375 103.052C343.776 103.684 344.157 104.341 344.508 105.006L344.111 105.215ZM321.234 105.377C320.782 105.377 320.324 105.339 319.874 105.265L319.947 104.823C320.668 104.941 321.411 104.961 322.119 104.877L322.17 105.322C321.863 105.359 321.548 105.377 321.234 105.377ZM345.863 109.298C345.628 108.598 345.362 107.9 345.071 107.222L345.482 107.045C345.779 107.734 346.05 108.444 346.288 109.156L345.863 109.298ZM346.913 113.611C346.886 113.433 346.856 113.256 346.825 113.079C346.729 112.531 346.612 111.978 346.48 111.432L346.915 111.326C347.051 111.88 347.169 112.444 347.267 113.002C347.299 113.181 347.328 113.362 347.356 113.543L346.913 113.611ZM347.663 118.048L347.215 118.041C347.217 117.903 347.218 117.764 347.218 117.626C347.218 117.026 347.198 116.418 347.157 115.82L347.604 115.789C347.645 116.398 347.667 117.016 347.667 117.627C347.666 117.768 347.665 117.908 347.663 118.048ZM347.23 122.542L346.789 122.463C346.918 121.736 347.02 120.995 347.09 120.261L347.537 120.304C347.465 121.05 347.361 121.802 347.23 122.542ZM346.095 126.911L345.671 126.765C345.913 126.066 346.129 125.349 346.314 124.636L346.748 124.748C346.56 125.473 346.34 126.201 346.095 126.911ZM344.295 131.05L343.899 130.84C344.246 130.187 344.571 129.513 344.864 128.837L345.276 129.015C344.977 129.702 344.648 130.387 344.295 131.05ZM341.863 134.854L341.506 134.582C341.952 133.995 342.38 133.382 342.777 132.759L343.156 133.001C342.751 133.633 342.317 134.257 341.863 134.854ZM338.838 138.207L338.532 137.879C339.069 137.377 339.592 136.844 340.089 136.294L340.421 136.594C339.917 137.154 339.384 137.696 338.838 138.207Z" fill="#537EE4"/>
<path d="M223.435 45.7976C222.734 45.5815 222.012 45.464 221.29 45.4483L221.3 45C222.063 45.0166 222.826 45.1408 223.567 45.3685L223.435 45.7976ZM217.228 46.6929L216.954 46.3378C217.558 45.8729 218.252 45.5219 219.017 45.295L219.144 45.725C218.432 45.9361 217.788 46.2616 217.228 46.6929ZM163.528 47.734C163.143 47.7268 162.762 47.7223 162.373 47.7232C162.014 47.7232 161.654 47.7263 161.295 47.7326L161.287 47.2843C161.66 47.2776 162.024 47.2722 162.406 47.2749C162.783 47.2749 163.16 47.2784 163.536 47.2856L163.528 47.734ZM156.835 47.9707L156.796 47.5241C157.538 47.4573 158.293 47.4035 159.039 47.3636L159.063 47.812C158.323 47.851 157.573 47.9048 156.835 47.9707ZM167.987 47.9823C167.247 47.9133 166.498 47.8582 165.76 47.8169L165.785 47.3695C166.528 47.4107 167.283 47.4668 168.029 47.5358L167.987 47.9823ZM226.962 48.1989C226.552 47.6371 226.026 47.1399 225.398 46.7216L225.647 46.3486C226.318 46.7965 226.883 47.33 227.324 47.9344L226.962 48.1989ZM152.403 48.5244L152.332 48.0819C153.071 47.9631 153.82 47.8559 154.559 47.7636L154.614 48.2087C153.881 48.3002 153.137 48.4065 152.403 48.5244ZM172.414 48.5629C171.687 48.4392 170.944 48.3276 170.207 48.2307L170.265 47.786C171.007 47.8837 171.756 47.9962 172.49 48.1213L172.414 48.5629ZM148.02 49.387L147.919 48.9503C148.644 48.7813 149.384 48.6221 150.118 48.4777L150.205 48.9176C149.476 49.061 148.741 49.2189 148.02 49.387ZM176.784 49.4816C176.068 49.3013 175.336 49.1328 174.608 48.9799L174.7 48.541C175.433 48.6952 176.171 48.8656 176.893 49.0471L176.784 49.4816ZM214.779 50.2128L214.354 50.0693C214.606 49.3233 214.95 48.6315 215.376 48.0128L215.745 48.267C215.343 48.8512 215.018 49.5062 214.779 50.2128ZM143.708 50.5513L143.576 50.1227C144.292 49.9026 145.019 49.6927 145.737 49.4991L145.854 49.9317C145.141 50.1245 144.419 50.333 143.708 50.5513ZM181.078 50.7181C180.345 50.4836 179.625 50.2639 178.939 50.0658L179.064 49.6349C179.754 49.8344 180.478 50.055 181.215 50.2908L181.078 50.7181ZM139.487 52.012L139.325 51.5937C140.021 51.3251 140.732 51.0655 141.438 50.8212L141.585 51.2453C140.884 51.4874 140.178 51.7457 139.487 52.012ZM185.312 52.1703C184.609 51.9156 183.906 51.6659 183.201 51.4238L183.347 50.9996C184.054 51.2426 184.76 51.4928 185.464 51.7484L185.312 52.1703ZM228.261 52.3666L227.821 52.281C227.893 51.9102 227.929 51.5368 227.929 51.17C227.929 51.0333 227.924 50.8956 227.914 50.7575C227.898 50.5491 227.87 50.3419 227.829 50.142L228.269 50.0528C228.313 50.2711 228.344 50.4971 228.361 50.7244C228.372 50.8732 228.378 51.0221 228.378 51.17C228.378 51.565 228.338 51.9676 228.261 52.3666ZM253.79 52.9374L253.601 52.5307C254.305 52.2052 255.003 51.908 255.677 51.6475L255.839 52.0653C255.174 52.3227 254.485 52.6164 253.79 52.9374ZM189.509 53.7368C188.811 53.4713 188.112 53.2068 187.413 52.945L187.57 52.5253C188.27 52.7872 188.969 53.0517 189.669 53.3176L189.509 53.7368ZM135.377 53.7619L135.187 53.3557C135.862 53.04 136.553 52.7316 137.24 52.4384L137.416 52.8508C136.733 53.1418 136.047 53.4485 135.377 53.7619ZM213.945 54.598C213.885 54.1335 213.854 53.6646 213.854 53.2037C213.854 52.9051 213.867 52.6051 213.892 52.3128L214.339 52.3514C214.315 52.6307 214.302 52.9176 214.302 53.2041C214.302 53.6453 214.332 54.0945 214.39 54.5397L213.945 54.598ZM249.834 55.002L249.611 54.6123C250.308 54.2142 250.952 53.8596 251.583 53.5287L251.791 53.9259C251.166 54.2541 250.525 54.6061 249.834 55.002ZM193.705 55.3239C193.005 55.0629 192.306 54.7989 191.606 54.5335L191.765 54.1143C192.464 54.3792 193.163 54.6433 193.862 54.9033L193.705 55.3239ZM131.4 55.7969L131.181 55.4055C131.832 55.0428 132.5 54.6859 133.166 54.3451L133.37 54.7442C132.709 55.0827 132.045 55.4368 131.4 55.7969ZM226.078 56.3577L225.758 56.043C226.279 55.5144 226.72 54.9302 227.068 54.3066L227.459 54.5249C227.092 55.184 226.627 55.8005 226.078 56.3577ZM197.932 56.8374C197.225 56.5976 196.518 56.3497 195.812 56.0959L195.964 55.6736C196.667 55.9269 197.371 56.1735 198.076 56.4129L197.932 56.8374ZM245.993 57.3006L245.758 56.9182C246.396 56.5272 247.034 56.1367 247.674 55.7516L247.905 56.1354C247.266 56.52 246.629 56.9096 245.993 57.3006ZM127.579 58.1094L127.333 57.7346C127.958 57.3252 128.598 56.9217 129.236 56.5353L129.468 56.9186C128.835 57.3024 128.199 57.7032 127.579 58.1094ZM202.222 58.1766C201.533 57.9834 200.808 57.7678 200.066 57.5355L200.2 57.1078C200.938 57.3382 201.658 57.553 202.342 57.7449L202.222 58.1766ZM222.225 58.7676L222.067 58.3484C222.781 58.0789 223.447 57.7574 224.044 57.3925L224.278 57.7749C223.657 58.1547 222.966 58.4887 222.225 58.7676ZM215.481 58.8765C215.077 58.2421 214.74 57.5503 214.48 56.8195L214.902 56.6693C215.151 57.3683 215.473 58.0296 215.86 58.6353L215.481 58.8765ZM206.596 59.2289C205.884 59.089 205.144 58.9271 204.397 58.7465L204.502 58.3107C205.243 58.4896 205.976 58.6505 206.682 58.7891L206.596 59.2289ZM242.149 59.618L241.924 59.2302C242.244 59.0446 242.562 58.8572 242.879 58.6685C243.203 58.4761 243.525 58.282 243.847 58.0874L244.079 58.4703C243.756 58.6662 243.433 58.8608 243.108 59.0536C242.79 59.2432 242.47 59.4315 242.149 59.618ZM217.858 59.775L217.757 59.3356L217.805 59.3293C218.576 59.2365 219.277 59.1186 219.948 58.9693L220.045 59.4073C219.36 59.5593 218.645 59.6795 217.858 59.775ZM211.054 59.8673C210.323 59.8041 209.57 59.7167 208.815 59.6077L208.879 59.1639C209.626 59.2719 210.371 59.358 211.093 59.4203L211.054 59.8673ZM214.082 59.9996H214.066C213.812 59.9996 213.559 59.9969 213.306 59.9911L213.316 59.5427C213.571 59.5486 213.828 59.5481 214.081 59.5517C214.568 59.5517 215.06 59.54 215.543 59.5176L215.564 59.966C215.074 59.9884 214.576 59.9996 214.082 59.9996ZM123.936 60.694L123.664 60.3381C124.257 59.8839 124.866 59.4347 125.474 59.0029L125.734 59.3683C125.129 59.7969 124.525 60.243 123.936 60.694ZM238.177 61.736L237.984 61.3312C238.629 61.0231 239.279 60.6923 239.973 60.3206L240.185 60.7156C239.485 61.0904 238.828 61.4244 238.177 61.736ZM218.695 62.0875C218.054 61.6584 217.459 61.1742 216.927 60.6479L217.242 60.3291C217.754 60.8353 218.327 61.3015 218.945 61.7149L218.695 62.0875ZM233.995 63.4249L233.858 62.9985C234.538 62.7784 235.241 62.5215 235.947 62.2341L236.116 62.6493C235.4 62.9407 234.687 63.2016 233.995 63.4249ZM120.498 63.5419L120.199 63.2079C120.756 62.7102 121.33 62.2162 121.905 61.74L122.191 62.0857C121.62 62.5578 121.05 63.0483 120.498 63.5419ZM222.833 63.9476C222.089 63.7432 221.369 63.4868 220.691 63.1846L220.873 62.7752C221.531 63.068 222.229 63.3173 222.951 63.5154L222.833 63.9476ZM229.587 64.4161L229.532 63.971C230.248 63.8844 230.983 63.7557 231.716 63.5885L231.816 64.0261C231.068 64.196 230.317 64.3274 229.587 64.4161ZM227.322 64.5493C226.562 64.5462 225.8 64.4946 225.059 64.3964L225.117 63.9521C225.84 64.0476 226.583 64.0978 227.324 64.101L227.322 64.5493ZM117.288 66.6435L116.964 66.3332C117.48 65.7948 118.014 65.2586 118.551 64.7394L118.863 65.0618C118.33 65.5774 117.8 66.1091 117.288 66.6435Z" fill="#537EE4"/>
<path d="M83.2418 58.4689C82.5093 58.4164 81.761 58.3954 81.0221 58.4079L81.0145 57.9596C81.7668 57.9475 82.5285 57.9677 83.2741 58.0219L83.2418 58.4689ZM76.6078 58.8679L76.5239 58.4272C77.2673 58.286 78.0196 58.1748 78.7598 58.0972L78.8064 58.5429C78.0788 58.6195 77.339 58.7285 76.6078 58.8679ZM87.623 59.1804C86.9043 58.9979 86.1726 58.846 85.4486 58.7281L85.5203 58.2855C86.2578 58.4052 87.002 58.5604 87.7333 58.746L87.623 59.1804ZM72.3199 60.0376L72.1701 59.6149C72.8852 59.3615 73.6102 59.1338 74.324 58.9379L74.4423 59.3705C73.7389 59.5628 73.0251 59.7879 72.3199 60.0376ZM91.823 60.6254C91.1375 60.3268 90.4408 60.0551 89.7521 59.8175L89.8983 59.3938C90.5982 59.635 91.3061 59.9112 92.0023 60.2143L91.823 60.6254ZM68.2351 61.8036L68.0315 61.4042C68.7094 61.0585 69.3958 60.7353 70.0715 60.442L70.2499 60.8536C69.5828 61.1428 68.9049 61.4624 68.2351 61.8036ZM95.7621 62.6909C95.1219 62.2977 94.4713 61.9269 93.8284 61.5893L94.0369 61.1921C94.6888 61.5346 95.3478 61.9103 95.997 62.3089L95.7621 62.6909ZM64.3839 64.0494L64.1379 63.675C64.7739 63.2571 65.4186 62.8572 66.0535 62.4865L66.2799 62.8734C65.6513 63.2406 65.0135 63.636 64.3839 64.0494ZM60.7725 66.6739L60.4926 66.3238C61.0834 65.8521 61.6862 65.3926 62.2848 64.9573L62.5485 65.3195C61.9555 65.7513 61.3578 66.2068 60.7725 66.6739ZM57.3951 69.598L57.0888 69.2702C57.642 68.7533 58.2046 68.2463 58.7615 67.7634L59.0553 68.1023C58.5024 68.5812 57.9441 69.0846 57.3951 69.598ZM54.2418 72.7655L53.9135 72.4602C54.4279 71.9065 54.9529 71.3609 55.4734 70.8381L55.7912 71.1542C55.2742 71.6738 54.7527 72.2158 54.2418 72.7655ZM51.3054 76.1375L50.9583 75.8541C51.431 75.2744 51.9189 74.6956 52.4085 74.1334L52.7466 74.4275C52.2602 74.9866 51.7753 75.5618 51.3054 76.1375ZM48.5926 79.6901L48.2275 79.43C48.4038 79.183 48.5816 78.9373 48.7606 78.693C49.0182 78.3415 49.286 77.9837 49.5635 77.6201L49.92 77.8922C49.6441 78.2531 49.3781 78.6091 49.1222 78.9579C48.9439 79.2009 48.7676 79.4448 48.5926 79.6901ZM46.1198 83.4113L45.7385 83.175C46.131 82.541 46.5392 81.904 46.9523 81.2821L47.3259 81.5305C46.9154 82.1479 46.5098 82.7809 46.1198 83.4113ZM43.893 87.2849L43.4972 87.0742C43.8497 86.4129 44.2161 85.7511 44.5863 85.1069L44.9751 85.3302C44.6072 85.9699 44.2431 86.6281 43.893 87.2849ZM41.9187 91.2935L41.5103 91.1083C41.8194 90.4269 42.1429 89.7431 42.4716 89.0756L42.874 89.2737C42.547 89.9373 42.2257 90.6165 41.9187 91.2935ZM40.2034 95.4195L39.7843 95.2608C40.05 94.5601 40.3294 93.8571 40.6143 93.1711L41.0285 93.3433C40.7453 94.0248 40.4677 94.7233 40.2034 95.4195ZM38.7528 99.646L38.3243 99.5138C38.5439 98.8018 38.778 98.0822 39.0204 97.3761L39.4446 97.5213C39.2036 98.2234 38.9709 98.9381 38.7528 99.646ZM37.5731 103.956L37.137 103.851C37.3106 103.128 37.4987 102.395 37.6963 101.673L38.1289 101.791C37.9323 102.509 37.7455 103.237 37.5731 103.956ZM36.6696 108.332L36.2279 108.255C36.3544 107.524 36.4957 106.78 36.6472 106.046L37.0863 106.137C36.9356 106.866 36.7955 107.605 36.6696 108.332ZM36.0495 112.757L35.6038 112.709C35.6824 111.973 35.7754 111.222 35.8798 110.477L36.3238 110.539C36.2201 111.279 36.1276 112.026 36.0495 112.757ZM35.7176 117.212L35.2696 117.194C35.3005 116.452 35.3442 115.697 35.3997 114.949L35.8469 114.982C35.7917 115.725 35.7481 116.476 35.7176 117.212ZM35.3031 121.7C35.252 120.986 35.2257 120.248 35.2229 119.445L35.6712 119.443C35.674 120.236 35.6999 120.964 35.75 121.668L35.3031 121.7ZM44.6968 123.247L44.4942 122.847C45.2252 122.477 45.9655 122.244 46.694 122.153L46.749 122.598C46.072 122.682 45.3814 122.9 44.6968 123.247ZM50.7065 123.849C50.159 123.345 49.5418 122.985 48.8726 122.778L49.0049 122.35C49.7385 122.576 50.4131 122.97 51.0099 123.519L50.7065 123.849ZM41.3329 126.032L40.9917 125.742C41.5099 125.134 42.0502 124.592 42.5973 124.128L42.8871 124.47C42.3583 124.918 41.8355 125.444 41.3329 126.032ZM36.0619 126.158C35.8588 125.462 35.6912 124.718 35.5635 123.946L36.0057 123.873C36.1306 124.627 36.2943 125.353 36.4924 126.032L36.0619 126.158ZM52.5673 127.644C52.5003 126.94 52.2975 126.225 51.9811 125.576L52.3839 125.379C52.724 126.076 52.9417 126.845 53.0135 127.602L52.5673 127.644ZM38.8737 129.718L38.481 129.502C38.7194 129.07 38.9659 128.641 39.2201 128.218C39.3518 127.998 39.4898 127.778 39.6336 127.559L40.0083 127.805C39.8681 128.019 39.7332 128.234 39.6045 128.448C39.353 128.867 39.1096 129.291 38.8737 129.718ZM37.9905 130.264C37.5896 129.698 37.2365 129.096 36.9409 128.476L36.8527 128.289L37.2603 128.102L37.3455 128.284C37.6301 128.88 37.9703 129.46 38.3565 130.006L37.9905 130.264ZM51.68 131.939L51.3287 131.661C51.7897 131.079 52.132 130.443 52.3464 129.769L52.7737 129.905C52.5427 130.631 52.1748 131.315 51.68 131.939ZM41.2752 133.403C40.6429 133.01 40.0372 132.536 39.4758 131.995L39.7866 131.672C40.3255 132.191 40.9061 132.645 41.5121 133.023L41.2752 133.403ZM36.9472 133.736L36.5327 133.565C36.8181 132.873 37.1271 132.181 37.4504 131.506L37.8544 131.7C37.5348 132.367 37.2294 133.052 36.9472 133.736ZM47.8959 134.466L47.7684 134.036C48.4639 133.83 49.1246 133.522 49.7318 133.119L49.9797 133.492C49.3352 133.92 48.6341 134.248 47.8959 134.466ZM45.6133 134.767C44.8571 134.746 44.0959 134.614 43.3504 134.374L43.4879 133.947C44.1928 134.174 44.912 134.299 45.6256 134.319L45.6133 134.767ZM35.4752 137.943L35.0444 137.817C35.2532 137.098 35.4838 136.376 35.7304 135.671L36.1537 135.819C35.9096 136.516 35.6816 137.231 35.4752 137.943ZM34.4694 142.284L34.0276 142.207C34.1572 141.469 34.3083 140.726 34.4767 139.999L34.9136 140.1C34.7467 140.82 34.5975 141.554 34.4694 142.284ZM33.9399 146.709L33.4924 146.681C33.5407 145.933 33.6101 145.178 33.6991 144.436L34.1443 144.49C34.0563 145.224 33.9875 145.971 33.9399 146.709ZM33.4496 151.186C33.4213 150.568 33.4067 149.941 33.4067 149.322L33.4087 148.933L33.857 148.937L33.8551 149.322C33.8551 149.934 33.8693 150.555 33.8977 151.165L33.4496 151.186ZM33.9109 155.669C33.8619 155.365 33.8166 155.059 33.7745 154.753C33.7147 154.315 33.6621 153.874 33.6164 153.434L34.0626 153.388C34.1073 153.824 34.1595 154.258 34.219 154.692C34.2602 154.995 34.305 155.296 34.3535 155.597L33.9109 155.669ZM34.8759 160.071C34.6745 159.348 34.4915 158.613 34.3316 157.884L34.7695 157.788C34.9276 158.509 35.1087 159.236 35.3076 159.951L34.8759 160.071ZM36.3216 164.338C36.0425 163.642 35.7796 162.931 35.54 162.224L35.9647 162.08C36.2017 162.779 36.4616 163.483 36.7376 164.171L36.3216 164.338ZM38.2229 168.424C37.8705 167.762 37.532 167.083 37.2168 166.407L37.623 166.217C37.9349 166.887 38.27 167.558 38.6187 168.213L38.2229 168.424ZM40.5558 172.278C40.1332 171.658 39.7231 171.02 39.3369 170.382L39.7205 170.15C40.1024 170.781 40.5082 171.412 40.9262 172.026L40.5558 172.278ZM43.2963 175.854C42.8096 175.287 42.332 174.698 41.8766 174.104L42.2325 173.831C42.6828 174.419 43.1553 175.001 43.6364 175.563L43.2963 175.854ZM46.1472 178.85C45.6949 178.422 45.2451 177.976 44.811 177.523L45.1341 177.212C45.5635 177.66 46.0082 178.101 46.4555 178.524L46.1472 178.85Z" fill="#537EE4"/>
<path d="M95.11 58.3511L97.2464 62.743C97.3585 62.9734 97.2544 63.2509 97.0186 63.3514L91.8713 65.5419C91.4534 65.7199 91.5341 66.3346 91.9833 66.3987L106.946 68.5315C107.388 68.5947 107.641 68.0414 107.302 67.7487L95.8063 57.8157C95.4378 57.497 94.8971 57.9126 95.11 58.3511Z" fill="#537EE4"/>
<path d="M56.7292 71.4837C56.7292 77.7999 51.6087 82.9203 45.2925 82.9203C38.9762 82.9203 33.8555 77.7999 33.8555 71.4837C33.8555 65.1671 38.9762 60.0471 45.2925 60.0471C51.6087 60.0471 56.7292 65.1671 56.7292 71.4837Z" fill="#537EE4"/>
<path d="M56.7298 71.4837V86.7541C56.7298 87.1536 56.2468 87.3535 55.9645 87.0711L50.5986 81.7054L56.7298 71.4837Z" fill="#537EE4"/>
<path d="M47.2378 71.4837C47.2378 72.5575 46.367 73.4282 45.2933 73.4282C44.2193 73.4282 43.3486 72.5575 43.3486 71.4837C43.3486 70.4095 44.2193 69.5393 45.2933 69.5393C46.367 69.5393 47.2378 70.4095 47.2378 71.4837Z" fill="#FCD3D7"/>
<path d="M53.9624 71.4837C53.9624 72.5575 53.0916 73.4282 52.0179 73.4282C50.944 73.4282 50.0732 72.5575 50.0732 71.4837C50.0732 70.4095 50.944 69.5393 52.0179 69.5393C53.0916 69.5393 53.9624 70.4095 53.9624 71.4837Z" fill="#FCD3D7"/>
<path d="M40.5122 71.4837C40.5122 72.5575 39.6414 73.4282 38.5677 73.4282C37.4938 73.4282 36.623 72.5575 36.623 71.4837C36.623 70.4095 37.4938 69.5393 38.5677 69.5393C39.6414 69.5393 40.5122 70.4095 40.5122 71.4837Z" fill="#FCD3D7"/>
<path d="M328.878 74.428H305.562C303.086 74.428 301.079 72.4208 301.079 69.9446V61.6122C301.079 59.1361 303.086 57.1289 305.562 57.1289H328.878C331.354 57.1289 333.361 59.1361 333.361 61.6122V69.9446C333.361 72.4208 331.354 74.428 328.878 74.428Z" fill="#537EE4"/>
<path d="M307.414 74.4279V79.5587C307.414 79.9954 307.975 80.1743 308.228 79.8178L312.052 74.4279H307.414Z" fill="#537EE4"/>
<path d="M319.166 65.7786C319.166 66.8524 318.295 67.7231 317.221 67.7231C316.147 67.7231 315.276 66.8524 315.276 65.7786C315.276 64.7044 316.147 63.8342 317.221 63.8342C318.295 63.8342 319.166 64.7044 319.166 65.7786Z" fill="#FCD3D7"/>
<path d="M328.132 65.7786C328.132 66.8524 327.26 67.7231 326.187 67.7231C325.113 67.7231 324.242 66.8524 324.242 65.7786C324.242 64.7044 325.113 63.8342 326.187 63.8342C327.26 63.8342 328.132 64.7044 328.132 65.7786Z" fill="#FCD3D7"/>
<path d="M310.198 65.7786C310.198 66.8524 309.327 67.7231 308.253 67.7231C307.179 67.7231 306.309 66.8524 306.309 65.7786C306.309 64.7044 307.179 63.8342 308.253 63.8342C309.327 63.8342 310.198 64.7044 310.198 65.7786Z" fill="#FCD3D7"/>
<path d="M334.437 245.19H39.2873C30.1564 229.53 37.4449 204.308 47.1153 193.749C52.1038 188.302 57.7276 183.238 61.1535 176.695C66.6756 166.148 65.3064 153.366 62.4912 141.799C59.6761 130.232 55.5297 118.729 55.9262 106.831C56.3224 94.9331 62.7634 82.1456 74.2292 78.9432C76.2759 78.3715 78.3369 78.1294 80.4086 78.1294C86.1496 78.1294 91.9708 79.9891 97.7808 81.8484C103.591 83.7081 109.389 85.5673 115.085 85.5673C117.414 85.5669 119.726 85.2562 122.014 84.5075C134.318 80.4809 139.963 65.5988 151.642 60.0143C155.135 58.3443 158.845 57.6462 162.63 57.6462C170.458 57.6462 178.6 60.6362 185.769 64.2031C196.403 69.4953 207.018 76.1886 218.895 76.3975C219.088 76.4011 219.279 76.4029 219.472 76.4029C232.052 76.402 243.394 69.2079 255.075 64.4291C260.813 62.0816 267.363 60.4569 273.596 60.4569C280.245 60.4569 286.535 62.3053 291.093 67.0963C301.255 77.7779 296.497 96.0526 303.968 108.763C310.093 119.184 323.777 124.656 326.823 136.353C331.02 152.467 312.013 166.949 313.823 183.502C314.696 191.479 320.285 198.064 325.942 203.755C331.599 209.447 337.79 215.114 340.477 222.676C343.164 230.238 342.462 245.19 334.437 245.19Z" fill="#7598E9"/>
<path d="M285.248 85.4476V197.393C285.248 199.37 283.639 200.98 281.661 200.98H95.3323C93.3551 200.98 91.7456 199.37 91.7456 197.393V85.4476C91.7456 83.466 93.3551 81.8609 95.3323 81.8609H281.661C283.639 81.8609 285.248 83.466 285.248 85.4476Z" fill="#7598E9"/>
<path d="M281.661 77.3757H95.3323C90.8754 77.3757 87.2622 80.9885 87.2622 85.4454V197.394C87.2622 201.85 90.8754 205.464 95.3323 205.464H281.661C286.118 205.464 289.731 201.85 289.731 197.394V85.4454C289.731 80.9885 286.118 77.3757 281.661 77.3757ZM281.661 81.8591C283.639 81.8591 285.248 83.4678 285.248 85.4454V197.394C285.248 199.372 283.639 200.981 281.661 200.981H95.3323C93.3547 200.981 91.7456 199.372 91.7456 197.394V85.4454C91.7456 83.4678 93.3547 81.8591 95.3323 81.8591H281.661Z" fill="white"/>
<path d="M224.555 231.546C218.061 229.229 213.127 223.03 211.624 215.299L211.527 205.464H188.497H165.307L165.371 215.299C163.868 223.03 158.934 229.229 152.439 231.546C147.301 233.379 143.791 238.916 143.791 245.189H188.497H233.204C233.204 238.916 229.694 233.379 224.555 231.546Z" fill="white"/>
<path d="M211.526 205.464L211.623 215.299L171.571 205.464H211.526Z" fill="#DDD7DB"/>
<path d="M271.014 97.3958V188.05C271.014 191.022 268.602 193.43 265.633 193.43H111.361C108.393 193.43 105.98 191.022 105.98 188.05V97.3958C105.98 94.4278 108.393 92.0158 111.361 92.0158H265.633C268.602 92.0158 271.014 94.4278 271.014 97.3958Z" fill="white"/>
<path d="M271.014 97.3959V99.2341H105.98V97.3959C105.98 94.4279 108.393 92.0158 111.361 92.0158H265.633C268.602 92.0158 271.014 94.4279 271.014 97.3959Z" fill="#DDD7DB"/>
<path d="M264.565 95.6249C264.565 96.2736 264.039 96.8 263.39 96.8C262.741 96.8 262.215 96.2736 262.215 95.6249C262.215 94.9757 262.741 94.4498 263.39 94.4498C264.039 94.4498 264.565 94.9757 264.565 95.6249Z" fill="white"/>
<path d="M260.082 95.6249C260.082 96.2736 259.556 96.8 258.907 96.8C258.258 96.8 257.731 96.2736 257.731 95.6249C257.731 94.9757 258.258 94.4498 258.907 94.4498C259.556 94.4498 260.082 94.9757 260.082 95.6249Z" fill="white"/>
<path d="M255.599 95.6249C255.599 96.2736 255.073 96.8 254.424 96.8C253.775 96.8 253.249 96.2736 253.249 95.6249C253.249 94.9757 253.775 94.4498 254.424 94.4498C255.073 94.4498 255.599 94.9757 255.599 95.6249Z" fill="white"/>
<path d="M193.602 126.932C202.284 121.92 210.842 115.875 220.786 114.609C229.869 113.454 239.411 116.716 245.885 123.19C252.358 129.664 255.62 139.207 254.463 148.289C253.143 158.662 246.366 167.808 237.769 173.76C229.172 179.711 218.892 182.786 208.591 184.584C192.441 187.402 175.781 187.279 159.673 184.222C152.346 182.831 145.043 180.802 138.587 177.067C132.131 173.333 126.542 167.747 123.89 160.776C119.834 150.113 123.774 136.958 133.026 130.281C139.976 125.264 149.448 124.244 157.463 127.096C161.057 128.376 163.033 130.734 166.03 132.787C169.37 135.075 174.055 134.36 177.779 133.552C183.392 132.335 188.656 129.789 193.602 126.932Z" fill="#F1EDF0"/>
<path d="M261.941 126.097C261.941 128.224 260.216 129.949 258.089 129.949C255.963 129.949 254.238 128.224 254.238 126.097C254.238 123.971 255.963 122.246 258.089 122.246C260.216 122.246 261.941 123.971 261.941 126.097Z" fill="#F1EDF0"/>
<path d="M254.221 171.553C254.221 173.016 253.036 174.201 251.574 174.201C250.111 174.201 248.925 173.016 248.925 171.553C248.925 170.091 250.111 168.905 251.574 168.905C253.036 168.905 254.221 170.091 254.221 171.553Z" fill="#F1EDF0"/>
<path d="M141.96 184.819C141.96 186.282 140.774 187.467 139.312 187.467C137.849 187.467 136.664 186.282 136.664 184.819C136.664 183.357 137.849 182.172 139.312 182.172C140.774 182.172 141.96 183.357 141.96 184.819Z" fill="#F1EDF0"/>
<path d="M119.931 142.194C119.931 143.656 118.746 144.842 117.284 144.842C115.821 144.842 114.636 143.656 114.636 142.194C114.636 140.731 115.821 139.545 117.284 139.545C118.746 139.545 119.931 140.731 119.931 142.194Z" fill="#F1EDF0"/>
<path d="M265.77 162.626C265.77 165.444 263.485 167.728 260.667 167.728C257.849 167.728 255.565 165.444 255.565 162.626C255.565 159.808 257.849 157.523 260.667 157.523C263.485 157.523 265.77 159.808 265.77 162.626Z" fill="#F1EDF0"/>
<path d="M132.505 178.382C132.505 181.2 130.221 183.484 127.403 183.484C124.585 183.484 122.3 181.2 122.3 178.382C122.3 175.563 124.585 173.279 127.403 173.279C130.221 173.279 132.505 175.563 132.505 178.382Z" fill="#F1EDF0"/>
<path d="M151.536 144.762L154.412 146.571C155.746 147.411 156.447 148.969 156.189 150.525L155.713 153.396C155.648 153.786 155.714 154.186 155.9 154.535L158.458 159.326C158.974 160.292 160.228 160.574 161.108 159.922L176.756 148.329C177.793 147.562 178.434 146.373 178.507 145.086C178.571 143.961 178.195 142.855 177.459 142.001L173.513 137.431L151.536 144.762Z" fill="#645AB2"/>
<path d="M176.756 148.329L161.107 159.922L180.456 186.256C181.363 187.491 182.572 188.472 183.968 189.106C187.149 190.55 190.739 190.822 194.101 189.873L194.681 189.709C197.08 189.032 199.226 187.664 200.853 185.775C203.16 183.095 203.662 179.304 202.133 176.116H202.133C201.174 174.119 199.506 172.551 197.453 171.718C192.659 169.772 188.447 166.626 185.221 162.581L183.103 159.925C181.627 158.075 180.374 156.057 179.37 153.912L176.756 148.329Z" fill="#645AB2"/>
<path d="M176.756 148.329L161.107 159.922L164.426 164.438L176.756 148.329Z" fill="#544EAA"/>
<path d="M226.019 140.586C217.643 137.466 208.698 124.851 204.038 108.338C199.393 91.8768 200.404 76.4791 205.87 69.4169C206.255 68.9165 206.662 68.4615 207.091 68.0517C208.263 66.9197 209.598 66.1194 211.086 65.6988L202.456 68.1347C192.697 70.8888 189.54 89.9799 195.409 110.773C201.276 131.567 213.946 146.187 223.706 143.433L232.335 140.998C230.847 141.418 229.291 141.433 227.702 141.085C227.146 140.962 226.587 140.799 226.019 140.586Z" fill="#F69F2A"/>
<path d="M239.385 98.3629C242.524 109.487 243.08 120.123 241.426 128.03C239.985 134.907 236.875 139.717 232.335 140.998C225.665 142.88 217.636 136.649 211.348 125.873C208.436 120.886 205.895 114.918 204.038 108.338C202.065 101.348 201.114 94.5448 201.089 88.4959C201.04 76.5513 204.61 67.5267 211.086 65.6988C215.828 64.361 221.258 67.1281 226.263 72.7131C231.554 78.6177 236.369 87.675 239.385 98.3629Z" fill="#776DBE"/>
<path d="M230.594 110.063L207.711 118.664C206.311 115.453 205.068 111.988 204.038 108.338C203.007 104.684 202.255 101.08 201.77 97.6115L225.773 92.9806C223.56 93.6051 222.843 97.9347 224.175 102.655C225.506 107.371 228.38 110.688 230.594 110.063Z" fill="#645AB2"/>
<path d="M232.194 100.39C233.525 105.109 232.81 109.44 230.595 110.065C228.38 110.69 225.506 107.372 224.174 102.653C222.842 97.9356 223.559 93.6042 225.773 92.9793C227.988 92.3543 230.863 95.6724 232.194 100.39Z" fill="#544EAA"/>
<path d="M142.079 146.847C142.444 146.986 142.809 147.088 143.169 147.159L129.799 145.081L129.798 145.076C126.169 144.875 121.91 139.476 119.829 132.102C118.788 128.413 118.47 124.86 118.783 121.971C119.099 119.082 120.051 116.857 121.544 115.826L131.853 107.061C131.727 107.175 131.607 107.293 131.489 107.42C131.429 107.488 131.364 107.557 131.306 107.63C130.996 107.987 130.714 108.389 130.453 108.835C130.398 108.92 130.349 109.013 130.301 109.106C130.083 109.503 129.887 109.931 129.708 110.386C129.624 110.601 129.542 110.824 129.467 111.051C129.353 111.391 129.247 111.742 129.155 112.108C129.123 112.229 129.094 112.354 129.064 112.478C129.034 112.603 129.004 112.728 128.978 112.852C128.946 112.987 128.923 113.119 128.895 113.253C128.871 113.381 128.845 113.504 128.825 113.631C128.756 114.028 128.694 114.437 128.644 114.856C128.619 115.063 128.595 115.276 128.576 115.49C128.554 115.725 128.537 115.962 128.516 116.201C128.51 116.329 128.505 116.456 128.497 116.579C128.469 117.025 128.458 117.48 128.453 117.943C128.42 121.358 128.939 125.226 130.064 129.213C131.188 133.196 132.768 136.766 134.576 139.656L134.578 139.661C134.705 139.867 134.837 140.067 134.966 140.264C135.087 140.444 135.208 140.624 135.327 140.8L135.375 140.87C135.445 140.967 135.514 141.064 135.583 141.161C135.708 141.34 135.842 141.516 135.97 141.69C136.097 141.859 136.228 142.027 136.359 142.191C136.534 142.416 136.711 142.632 136.892 142.842C137.065 143.044 137.239 143.246 137.418 143.438C137.956 144.023 138.499 144.544 139.049 145.005C139.14 145.081 139.231 145.158 139.322 145.23C139.412 145.303 139.507 145.374 139.595 145.442C140.336 146.001 141.078 146.435 141.807 146.742C141.898 146.782 141.991 146.816 142.079 146.847Z" fill="#F69F2A"/>
<path d="M147.3 144.432C143.104 142.043 138.852 135.594 136.536 127.387C134.365 119.694 134.453 112.43 136.389 108.063C136.704 107.346 137.073 106.706 137.487 106.16C138.284 105.106 139.255 104.385 140.389 104.065L133.917 105.891C128.58 107.397 126.854 117.84 130.064 129.213C133.274 140.587 140.202 148.583 145.54 147.077L152.012 145.25C150.877 145.57 149.673 145.463 148.442 144.981C148.066 144.836 147.683 144.65 147.3 144.432Z" fill="#776DBE"/>
<path d="M194.907 75.985C191.593 84.0157 191.527 97.0219 195.408 110.773C199.289 124.525 206.143 135.574 213.166 140.686L213.169 140.695L201.197 140.235L195.894 140.031C193.963 139.957 192.031 139.924 190.104 139.932C188.366 139.933 186.634 139.97 184.908 140.043C181.604 140.17 178.314 140.413 175.034 140.775C167.266 141.626 159.569 143.122 152.025 145.246L152.012 145.25C150.877 145.57 149.673 145.463 148.442 144.981C148.066 144.836 147.683 144.65 147.299 144.432C143.104 142.043 138.852 135.594 136.536 127.387C134.365 119.694 134.453 112.43 136.389 108.063C136.703 107.346 137.072 106.706 137.487 106.16C138.284 105.106 139.255 104.385 140.389 104.065C147.522 102.052 154.479 99.4833 161.19 96.392C161.578 96.2127 161.969 96.032 162.355 95.8486C165.341 94.4426 168.277 92.9291 171.157 91.3151C172.67 90.469 174.166 89.5952 175.644 88.6932C177.293 87.6876 178.927 86.6438 180.539 85.5696L184.946 82.6303L194.907 75.981L194.907 75.985Z" fill="#FAB23E"/>
<path d="M186.779 113.209C190.041 124.768 195.4 134.417 201.198 140.235L195.895 140.031C193.964 139.957 192.031 139.924 190.105 139.932C185.279 134.041 180.941 125.538 178.149 115.644C175.357 105.75 174.611 96.2382 175.645 88.6931C177.294 87.6875 178.928 86.6438 180.54 85.5696L184.946 82.6303C183.045 90.6201 183.518 101.653 186.779 113.209Z" fill="#8B81C8"/>
<path d="M173.834 116.862C176.457 126.156 180.436 134.215 184.909 140.043C181.604 140.17 178.314 140.413 175.034 140.775C171.072 135.12 167.58 127.715 165.205 119.297C162.829 110.879 161.934 102.741 162.356 95.8486C165.341 94.4426 168.278 92.9291 171.158 91.3151C170.391 98.6216 171.212 107.572 173.834 116.862Z" fill="#8B81C8"/>
<path d="M226.263 72.7131C219.471 72.4822 212.583 74.9153 207.531 79.4807C204.769 81.9744 202.58 85.0796 201.089 88.4959C201.04 76.5513 204.61 67.5267 211.086 65.6989C215.828 64.361 221.258 67.1281 226.263 72.7131Z" fill="#645AB2"/>
<path d="M248.091 78.9396L250.821 64.0064L258.169 66.0235L259.915 55.2531L268.088 61.281L261.588 71.4766L254.533 69.3506L248.091 78.9396Z" fill="#FAB23E"/>
<path d="M254.931 116.468L269.886 113.863L270.536 121.454L281.245 119.366L278.418 129.12L266.603 126.549L266.156 119.194L254.931 116.468Z" fill="#FAB23E"/>
<path d="M268.088 94.4233L279.753 81.3251L285.792 87.7292L293.985 78.1482L298.431 89.0065L285.891 95.1649L280.205 88.829L268.088 94.4233Z" fill="#FAB23E"/>
<path d="M286.113 239.04L286.551 234.549H280.459L281.11 239.476L281.942 242.278L284.424 242.78L285.753 241.628L286.113 239.04Z" fill="#F36359"/>
<path d="M286.732 245.189H273.082C272.581 245.189 272.176 244.784 272.176 244.283V243.6C272.176 243.247 272.38 242.927 272.7 242.778L280.128 239.333C280.455 239.182 280.839 239.238 281.109 239.476L282.829 240.994C283.18 241.304 283.708 241.296 284.049 240.976L286.112 239.04C286.28 238.883 286.502 238.795 286.732 238.795C287.232 238.795 287.638 239.201 287.638 239.701V244.283C287.638 244.784 287.232 245.189 286.732 245.189Z" fill="#363339"/>
<path d="M319.739 239.04L320.177 234.549H314.085L314.736 239.476L315.567 242.278L318.05 242.78L319.379 241.628L319.739 239.04Z" fill="#F36359"/>
<path d="M320.358 245.189H306.708C306.207 245.189 305.802 244.784 305.802 244.283V243.6C305.802 243.247 306.006 242.927 306.326 242.778L313.754 239.333C314.081 239.182 314.465 239.238 314.735 239.476L316.455 240.994C316.806 241.304 317.334 241.296 317.675 240.976L319.738 239.04C319.906 238.883 320.128 238.795 320.358 238.795C320.858 238.795 321.264 239.201 321.264 239.701V244.283C321.264 244.784 320.858 245.189 320.358 245.189Z" fill="#363339"/>
<path d="M325.507 162.201L319.278 175.306H302.902L301.693 163.09L325.507 162.201Z" fill="#363339"/>
<path d="M325.507 162.201C327.983 174.408 325.905 187.309 319.448 197.96C322.885 211.521 323.455 223.337 321.328 237.165H313.08C309.896 223.849 308.213 212.618 307.735 198.935C307.326 187.23 308.936 175.491 311.306 164.02L325.507 162.201Z" fill="#363339"/>
<path d="M301.693 163.09C297.264 173.963 292.479 185.185 289.044 196.412C284.732 210.51 280.644 222.226 278.711 236.841H287.638C294.466 223.732 299.8 212.437 301 197.705C307.086 189.956 312.002 181.29 315.532 172.09C311.219 169.163 306.006 166.017 301.693 163.09Z" fill="#363339"/>
<path d="M307.78 187.994L307.756 187.992C307.665 187.979 307.601 187.894 307.613 187.802L310.754 165.16C310.767 165.069 310.849 165.002 310.944 165.017C311.036 165.03 311.1 165.115 311.087 165.207L307.946 187.849C307.935 187.933 307.863 187.994 307.78 187.994Z" fill="#5A5D5F"/>
<path d="M311.289 176.882C309.812 176.882 308.491 175.746 307.922 174.531C307.176 172.938 307.342 171.08 307.531 169.821C307.582 169.484 307.633 169.156 307.684 168.831C307.871 167.651 308.047 166.536 308.143 165.183C308.149 165.091 308.233 165.02 308.322 165.027C308.415 165.034 308.485 165.114 308.478 165.207C308.381 166.574 308.205 167.696 308.017 168.884C307.965 169.208 307.914 169.535 307.864 169.871C307.681 171.086 307.519 172.878 308.226 174.388C308.814 175.643 310.263 176.809 311.799 176.493C311.892 176.475 311.979 176.533 311.998 176.624C312.016 176.715 311.958 176.804 311.867 176.822C311.673 176.862 311.48 176.881 311.289 176.882Z" fill="#5A5D5F"/>
<path d="M325.714 172.805L325.622 172.778C322.783 170.932 320.841 167.689 320.553 164.315C320.545 164.222 320.613 164.141 320.706 164.133C320.795 164.122 320.88 164.194 320.888 164.286C321.167 167.56 323.051 170.705 325.805 172.496C325.883 172.547 325.906 172.65 325.855 172.728C325.822 172.778 325.768 172.805 325.714 172.805Z" fill="#5A5D5F"/>
<path d="M299.499 170.703C299.445 170.703 299.39 170.676 299.358 170.627C299.307 170.55 299.328 170.445 299.406 170.394C301.593 168.949 303.362 166.825 304.387 164.412C304.423 164.327 304.521 164.287 304.607 164.323C304.692 164.359 304.732 164.458 304.695 164.543C303.646 167.017 301.833 169.194 299.592 170.674L299.499 170.703Z" fill="#5A5D5F"/>
<path d="M312.6 166.659C308.899 166.659 305.198 166.272 301.584 165.494C301.494 165.475 301.436 165.386 301.456 165.295C301.475 165.205 301.56 165.146 301.655 165.166C309.494 166.851 317.744 166.693 325.512 164.708C325.604 164.686 325.694 164.74 325.717 164.83C325.74 164.92 325.686 165.011 325.596 165.034C321.358 166.117 316.979 166.659 312.6 166.659Z" fill="#5A5D5F"/>
<path d="M320.206 236.686L320.178 236.684C320.086 236.669 320.025 236.583 320.04 236.491C322.199 223.419 321.406 211.601 317.468 198.172C317.454 198.128 317.46 198.081 317.482 198.041C323.41 187.615 325.892 175.315 324.471 163.407C324.46 163.315 324.526 163.232 324.618 163.22C324.708 163.208 324.794 163.275 324.805 163.367C326.231 175.322 323.747 187.67 317.81 198.146C321.747 211.597 322.536 223.444 320.371 236.546C320.358 236.628 320.287 236.686 320.206 236.686Z" fill="#5A5D5F"/>
<path d="M286.489 236.512L286.405 236.489C286.324 236.442 286.297 236.339 286.345 236.259C294.638 222.114 298.561 210.319 299.463 196.821C299.465 196.779 299.485 196.739 299.516 196.709C302.572 193.865 305.074 190.532 306.951 186.804C306.992 186.721 307.093 186.688 307.177 186.73C307.259 186.771 307.292 186.872 307.251 186.956C305.366 190.699 302.857 194.048 299.794 196.91C298.879 210.436 294.942 222.26 286.634 236.429C286.603 236.482 286.547 236.512 286.489 236.512Z" fill="#5A5D5F"/>
<path d="M314.016 199.063H308.128C308.035 199.063 307.959 198.988 307.959 198.895C307.959 198.802 308.035 198.727 308.128 198.727H314.016C314.108 198.727 314.184 198.802 314.184 198.895C314.184 198.988 314.108 199.063 314.016 199.063Z" fill="#5A5D5F"/>
<path d="M294.424 198.348L294.377 198.34L289.219 196.818C289.13 196.792 289.079 196.699 289.106 196.609C289.132 196.521 289.223 196.468 289.315 196.496L294.472 198.018C294.561 198.044 294.612 198.138 294.586 198.227C294.564 198.3 294.497 198.348 294.424 198.348Z" fill="#5A5D5F"/>
<path d="M281.168 109.515C280.839 108.053 281.141 106.48 281.92 105.2C281.459 104.576 281.146 103.843 281.012 103.079C280.975 102.867 280.973 102.605 281.154 102.488C281.34 102.368 281.584 102.489 281.767 102.614C282.687 103.242 283.537 104.073 283.851 105.142C284.049 105.811 284.022 106.526 283.939 107.218C283.858 107.911 283.839 108.598 283.707 109.297C282.884 109.443 282.002 109.562 281.168 109.515Z" fill="#F36359"/>
<path d="M279.589 111.928C278.452 110.956 277.578 109.709 277.042 108.313C277.592 107.261 278.359 106.36 279.312 105.652C278.699 104.701 278.174 103.693 277.745 102.646C277.682 102.492 277.62 102.333 277.617 102.167C277.613 102 277.679 101.823 277.821 101.736C277.97 101.646 278.169 101.676 278.317 101.767C278.467 101.857 278.578 101.998 278.683 102.137C280.442 104.437 281.997 106.893 283.324 109.466C282.34 110.576 280.974 111.397 279.589 111.928Z" fill="#F36359"/>
<path d="M278.54 108.992C278.682 109.056 278.826 109.121 278.981 109.14C279.136 109.158 279.306 109.121 279.412 109.007C279.505 108.909 279.538 108.767 279.531 108.632C279.525 108.497 279.495 108.364 279.453 108.235C279.635 108.281 279.822 108.328 280.009 108.31C280.196 108.291 280.387 108.195 280.467 108.025C280.567 107.812 280.47 107.562 280.367 107.35C280.045 106.686 279.664 106.05 279.232 105.452C279.117 105.292 278.988 105.127 278.802 105.061C278.58 104.982 278.317 105.074 278.164 105.255C278.012 105.435 277.961 105.688 277.996 105.922C277.733 105.802 277.383 105.863 277.18 106.068C276.977 106.274 276.92 106.61 277.044 106.871C276.886 106.795 276.668 106.868 276.545 106.992C276.422 107.116 276.37 107.298 276.373 107.473C276.377 107.648 276.431 107.818 276.495 107.98C276.73 108.572 277.109 109.096 277.524 109.579C277.644 109.718 277.772 109.859 277.938 109.939C278.104 110.019 278.318 110.024 278.459 109.906C278.575 109.808 278.619 109.646 278.61 109.495C278.601 109.344 278.595 109.132 278.54 108.992Z" fill="#F36359"/>
<path d="M279.923 108.493C279.676 108.493 279.421 108.386 279.204 108.19C279.017 108.022 278.881 107.816 278.758 107.62C278.421 107.085 278.116 106.522 277.851 105.947C277.812 105.862 277.849 105.762 277.933 105.723C278.017 105.685 278.117 105.721 278.156 105.806C278.415 106.368 278.713 106.918 279.042 107.441C279.153 107.618 279.274 107.801 279.429 107.94C279.586 108.082 279.77 108.158 279.927 108.156C280.099 108.155 280.259 108.055 280.31 107.92C280.378 107.739 280.273 107.512 280.149 107.294C279.761 106.609 279.336 105.937 278.887 105.295C278.834 105.219 278.853 105.114 278.929 105.061C279.006 105.008 279.11 105.026 279.163 105.102C279.618 105.752 280.048 106.434 280.442 107.128C280.605 107.418 280.741 107.728 280.625 108.037C280.526 108.302 280.24 108.49 279.931 108.493H279.923Z" fill="#EC5141"/>
<path d="M278.13 110.188C277.983 110.188 277.84 110.138 277.733 110.039C277.665 109.976 277.661 109.87 277.724 109.801C277.788 109.733 277.894 109.73 277.962 109.792C278.04 109.866 278.185 109.871 278.289 109.807C278.396 109.74 278.471 109.607 278.485 109.458C278.497 109.319 278.461 109.16 278.379 108.999C278.301 108.843 278.193 108.702 278.079 108.552L276.873 106.97C276.816 106.896 276.831 106.79 276.904 106.734C276.978 106.677 277.084 106.692 277.14 106.766L278.347 108.348C278.465 108.504 278.587 108.664 278.68 108.848C278.791 109.068 278.838 109.284 278.82 109.488C278.797 109.744 278.664 109.97 278.466 110.093C278.362 110.156 278.245 110.188 278.13 110.188Z" fill="#EC5141"/>
<path d="M278.996 109.31C278.831 109.31 278.67 109.249 278.557 109.134C278.492 109.068 278.492 108.962 278.558 108.896C278.624 108.831 278.731 108.831 278.796 108.897C278.872 108.974 279.011 108.996 279.119 108.948C279.23 108.899 279.319 108.782 279.345 108.649C279.372 108.519 279.343 108.367 279.269 108.233C279.223 108.152 279.252 108.05 279.333 108.004C279.413 107.96 279.516 107.987 279.562 108.069C279.677 108.275 279.717 108.504 279.676 108.715C279.627 108.955 279.466 109.163 279.255 109.256C279.173 109.292 279.083 109.31 278.996 109.31Z" fill="#EC5141"/>
<path d="M278.767 110.381C278.724 110.381 278.68 110.364 278.647 110.33C278.582 110.264 278.583 110.158 278.65 110.093C279.25 109.509 280.106 109.183 280.941 109.221C280.793 108.102 280.941 106.964 281.372 105.918C281.407 105.833 281.508 105.792 281.591 105.827C281.677 105.863 281.718 105.961 281.683 106.046C281.255 107.085 281.12 108.268 281.304 109.378C281.313 109.431 281.296 109.483 281.26 109.522C281.223 109.56 281.17 109.578 281.118 109.573C280.323 109.475 279.466 109.769 278.885 110.334C278.852 110.366 278.81 110.381 278.767 110.381Z" fill="#EC5141"/>
<path d="M335.746 168.466C335.373 169.329 335.093 170.233 334.914 171.155C334.862 171.418 334.82 171.695 334.911 171.946C335.005 172.202 335.227 172.394 335.474 172.51C335.72 172.626 336.03 172.71 336.298 172.759C336.345 173.032 336.393 173.309 336.509 173.56C336.626 173.811 336.823 174.038 337.085 174.129C337.474 174.265 337.932 174.054 338.257 173.8C338.498 173.907 338.779 173.92 339.029 173.836C339.279 173.751 339.509 173.611 339.636 173.38C339.882 173.5 340.17 173.529 340.434 173.459C340.698 173.39 340.948 173.227 341.102 173.003C341.415 173.171 341.867 173.095 342.099 172.827C342.005 170.988 341.519 169.171 340.682 167.531C339.011 167.454 337.28 167.801 335.746 168.466Z" fill="#F36359"/>
<path d="M325.509 162.203C323.415 163.225 321.007 163.925 318.501 164.342H318.497C318.326 164.373 318.156 164.4 317.981 164.422H317.976C314.605 164.933 311.086 164.947 307.938 164.561H307.929C307.669 164.53 307.409 164.494 307.158 164.458H307.154C305.1 164.162 303.231 163.696 301.693 163.091C301.298 159.679 301.092 156.285 301.083 152.9C301.079 152.752 301.079 152.609 301.079 152.465C301.079 150.86 301.123 149.26 301.213 147.659C301.218 147.547 301.222 147.435 301.231 147.323C301.366 145.018 301.59 142.714 301.908 140.405C301.921 140.297 301.939 140.185 301.957 140.073C302.011 139.683 302.065 139.289 302.128 138.898L307.414 129.134H316.82L321.24 129.95L321.725 130.039L324.464 130.546C324.612 134.971 324.634 139.549 323.733 143.879V143.884C323.424 145.39 323.002 146.865 322.437 148.296C322.621 148.986 322.81 149.685 322.993 150.394L323.087 150.744C324.096 154.617 325.042 158.697 325.509 162.203Z" fill="#4B84CD"/>
<path d="M341.107 167.628L334.956 168.968C334.498 168.045 334.072 167.112 333.669 166.166C333.62 166.054 333.575 165.947 333.53 165.835C332.481 163.328 331.62 160.746 330.966 158.11C330.934 157.993 330.907 157.877 330.88 157.76C330.472 156.074 330.154 154.362 329.921 152.64C327.581 149.905 325.509 146.986 323.734 143.884V143.879C322.954 142.521 322.232 141.127 321.568 139.692C321.6 139.396 321.636 139.096 321.676 138.795C321.712 138.513 321.757 138.226 321.801 137.943C321.963 136.926 322.174 135.904 322.461 134.908C322.537 134.648 322.613 134.393 322.703 134.142V134.137C322.788 133.882 322.878 133.63 322.976 133.384V133.379C323.366 132.362 323.855 131.407 324.465 130.546C325.805 131.465 326.971 132.613 327.912 133.935L330.979 138.239L331.185 138.522L334.512 143.189C335.678 144.821 336.61 146.61 337.283 148.497C337.323 148.6 337.359 148.704 337.39 148.811C337.435 148.928 337.471 149.044 337.511 149.165C337.798 150.053 338.022 150.954 338.193 151.869L341.107 167.628Z" fill="#4B84CD"/>
<path d="M307.415 129.134L302.129 138.898L288.481 126.699L286.701 123.879L286.517 123.588L281.545 115.715L281.362 115.423L278.981 111.653L284.401 108.721C288.862 112.186 292.718 116.513 295.56 121.391C295.78 121.472 296 121.557 296.215 121.646C296.332 121.687 296.444 121.736 296.556 121.785C299.981 123.216 302.877 125.309 305.72 127.686C305.809 127.762 305.904 127.838 305.993 127.919C306.469 128.313 306.939 128.721 307.415 129.134Z" fill="#4B84CD"/>
<path d="M322.976 133.384V133.379C322.823 132.155 322.379 131.021 321.725 130.039L321.241 129.95C322.119 131.133 322.653 132.572 322.702 134.137V134.142C322.707 134.222 322.707 134.303 322.707 134.384C322.707 135.67 322.379 136.881 321.801 137.943C320.537 140.27 318.066 141.857 315.237 141.857C311.117 141.857 307.763 138.504 307.763 134.384C307.763 132.339 308.588 130.483 309.924 129.134H309.463C308.198 130.523 307.427 132.366 307.427 134.384C307.427 138.688 310.929 142.194 315.237 142.194C317.905 142.194 320.263 140.844 321.675 138.795C322.536 137.54 323.043 136.02 323.043 134.384C323.043 134.043 323.02 133.711 322.976 133.384Z" fill="#68A0DB"/>
<path d="M337.283 148.497C336.812 148.614 336.314 148.677 335.803 148.677C332.423 148.677 329.67 145.928 329.67 142.548C329.67 141.01 330.244 139.598 331.185 138.522L330.979 138.239C329.957 139.383 329.333 140.894 329.333 142.548C329.333 146.112 332.234 149.013 335.803 149.013C336.35 149.013 336.884 148.946 337.39 148.811C337.359 148.704 337.323 148.6 337.283 148.497Z" fill="#68A0DB"/>
<path d="M333.476 156.958C332.516 156.958 331.62 157.253 330.88 157.76C330.907 157.877 330.934 157.993 330.965 158.11C331.669 157.599 332.539 157.294 333.476 157.294C335.83 157.294 337.748 159.208 337.748 161.566C337.748 163.902 335.861 165.803 333.53 165.835C333.574 165.947 333.619 166.054 333.669 166.166C336.121 166.068 338.085 164.041 338.085 161.566C338.085 159.024 336.018 156.958 333.476 156.958Z" fill="#68A0DB"/>
<path d="M322.003 150.663C322.37 150.663 322.733 150.69 323.088 150.744L322.993 150.394C322.671 150.349 322.339 150.327 322.003 150.327C317.797 150.327 314.376 153.747 314.376 157.953C314.376 160.679 315.816 163.077 317.977 164.422H317.981C318.156 164.4 318.326 164.373 318.497 164.342C316.242 163.1 314.713 160.701 314.713 157.953C314.713 153.936 317.981 150.663 322.003 150.663Z" fill="#68A0DB"/>
<path d="M305.49 150.909C303.822 150.909 302.285 151.492 301.079 152.465C301.079 152.609 301.079 152.752 301.083 152.9C302.262 151.869 303.805 151.246 305.49 151.246C309.189 151.246 312.202 154.254 312.202 157.953C312.202 161.078 310.05 163.709 307.158 164.458C307.409 164.494 307.669 164.53 307.929 164.561H307.938C310.619 163.566 312.538 160.979 312.538 157.953C312.538 154.07 309.373 150.909 305.49 150.909Z" fill="#68A0DB"/>
<path d="M305.719 127.686C304.971 129.909 302.863 131.514 300.393 131.514C297.29 131.514 294.771 128.99 294.771 125.888C294.771 124.269 295.457 122.812 296.555 121.785C296.443 121.736 296.331 121.687 296.214 121.646C295.116 122.727 294.435 124.229 294.435 125.888C294.435 129.174 297.107 131.851 300.393 131.851C302.966 131.851 305.163 130.21 305.993 127.919C305.903 127.838 305.809 127.762 305.719 127.686Z" fill="#68A0DB"/>
<path d="M283.325 115.029C282.63 115.029 281.966 115.168 281.361 115.424L281.545 115.715C282.096 115.486 282.697 115.365 283.325 115.365C285.934 115.365 288.059 117.486 288.059 120.1C288.059 121.481 287.463 122.722 286.517 123.588L286.701 123.879C287.741 122.947 288.395 121.597 288.395 120.1C288.395 117.302 286.118 115.029 283.325 115.029Z" fill="#68A0DB"/>
<path d="M301.958 140.073C301.94 140.185 301.922 140.297 301.908 140.405C303.446 140.777 304.594 142.167 304.594 143.817C304.594 145.704 303.096 147.242 301.231 147.323C301.222 147.435 301.218 147.547 301.213 147.659C303.276 147.592 304.93 145.892 304.93 143.817C304.93 141.996 303.661 140.468 301.958 140.073Z" fill="#68A0DB"/>
<path d="M323.754 144.101C323.697 144.101 323.641 144.072 323.61 144.019C322.633 142.393 322.123 140.53 322.136 138.632C322.136 138.54 322.212 138.465 322.304 138.465H322.305C322.398 138.466 322.473 138.542 322.472 138.634C322.46 140.47 322.953 142.272 323.898 143.847C323.945 143.926 323.919 144.029 323.841 144.077L323.754 144.101Z" fill="#356EBF"/>
<path d="M329.902 152.841C329.846 152.841 329.791 152.813 329.759 152.762C329.71 152.683 329.733 152.58 329.812 152.53C330.712 151.963 331.689 151.537 332.717 151.262C332.809 151.238 332.899 151.292 332.922 151.381C332.947 151.471 332.893 151.563 332.804 151.587C331.808 151.853 330.862 152.266 329.991 152.815L329.902 152.841Z" fill="#356EBF"/>
<path d="M319.123 154.361L319.08 154.356C312.755 152.679 307.404 147.828 305.117 141.697C305.084 141.61 305.128 141.514 305.216 141.481C305.301 141.449 305.399 141.493 305.432 141.58C307.682 147.611 312.945 152.381 319.166 154.031C319.256 154.054 319.31 154.146 319.285 154.236C319.266 154.311 319.197 154.361 319.123 154.361Z" fill="#356EBF"/>
<path d="M313.921 157.59C311.419 157.59 308.953 156.943 306.772 155.715C306.691 155.669 306.662 155.567 306.708 155.486C306.753 155.404 306.857 155.377 306.936 155.422C309.122 156.654 311.606 157.289 314.112 157.252C314.19 157.265 314.281 157.326 314.282 157.418C314.283 157.511 314.209 157.587 314.116 157.589C314.051 157.59 313.986 157.59 313.921 157.59Z" fill="#356EBF"/>
<path d="M311.729 133.154C311.039 133.154 310.369 133.059 309.743 132.867C308.112 132.37 306.785 131.207 306.193 129.758C306.157 129.672 306.199 129.574 306.285 129.539C306.37 129.504 306.469 129.545 306.504 129.631C307.058 130.987 308.305 132.077 309.841 132.546C311.221 132.967 312.833 132.896 314.38 132.347C315.698 131.879 317.022 131.056 318.314 129.899C318.384 129.838 318.489 129.843 318.552 129.913C318.614 129.982 318.608 130.088 318.538 130.15C317.213 131.335 315.851 132.181 314.492 132.664C313.576 132.99 312.635 133.154 311.729 133.154Z" fill="#356EBF"/>
<path d="M302.122 139.766L302.102 139.765C302.01 139.754 301.944 139.67 301.955 139.578C302.175 137.743 302.583 135.924 303.166 134.172C303.195 134.084 303.29 134.037 303.379 134.065C303.467 134.095 303.515 134.19 303.485 134.278C302.909 136.008 302.507 137.805 302.289 139.618C302.279 139.704 302.206 139.766 302.122 139.766Z" fill="#356EBF"/>
<path d="M292.472 123.496C292.415 123.496 292.359 123.467 292.328 123.414C292.28 123.335 292.306 123.232 292.385 123.184L295.5 121.307C295.578 121.259 295.683 121.285 295.73 121.365C295.778 121.444 295.753 121.547 295.673 121.595L292.558 123.472L292.472 123.496Z" fill="#356EBF"/>
<path d="M322.389 146.18L322.337 146.172C322.249 146.143 322.201 146.048 322.23 145.96C322.46 145.259 322.661 144.537 322.828 143.816C322.849 143.726 322.935 143.666 323.03 143.69C323.12 143.71 323.177 143.801 323.156 143.892C322.986 144.623 322.782 145.354 322.549 146.064C322.526 146.136 322.46 146.18 322.389 146.18ZM322.013 150.425C321.938 150.425 321.871 150.375 321.851 150.3C321.684 149.665 321.51 149.033 321.329 148.403L321.337 148.288L321.443 148.042C321.48 147.957 321.58 147.918 321.664 147.954C321.749 147.991 321.789 148.09 321.752 148.175L321.668 148.368C321.844 148.981 322.013 149.596 322.176 150.214C322.199 150.304 322.146 150.396 322.056 150.419L322.013 150.425ZM323.047 154.788C322.969 154.788 322.899 154.733 322.883 154.654C322.728 153.924 322.566 153.196 322.393 152.471C322.372 152.38 322.428 152.289 322.519 152.268C322.608 152.247 322.7 152.303 322.721 152.393C322.893 153.122 323.057 153.852 323.212 154.585C323.231 154.676 323.173 154.765 323.082 154.784L323.047 154.788ZM323.876 159.194C323.795 159.194 323.724 159.136 323.71 159.053C323.588 158.317 323.458 157.582 323.321 156.849C323.303 156.758 323.364 156.67 323.455 156.653C323.548 156.634 323.634 156.696 323.651 156.787C323.789 157.523 323.919 158.26 324.042 158.998C324.057 159.089 323.995 159.176 323.903 159.192L323.876 159.194ZM324.339 162.27C324.256 162.27 324.184 162.208 324.172 162.125C324.134 161.838 324.094 161.551 324.052 161.265C324.039 161.173 324.102 161.087 324.194 161.074C324.288 161.058 324.371 161.125 324.384 161.216C324.426 161.504 324.467 161.792 324.506 162.079C324.518 162.171 324.454 162.256 324.362 162.269L324.339 162.27Z" fill="#356EBF"/>
<path d="M306.184 114.431C305.503 113.498 304.489 111.648 304.621 110.498C303.627 109.383 303.183 107.737 303.367 106.249C303.956 106.851 304.855 107.137 305.677 106.966C305.127 106.118 304.89 105.07 305.02 104.066C305.823 104.965 307.076 105.434 308.268 105.283C307.67 104.707 307.285 103.831 307.265 102.998C308.536 103.672 309.962 104.047 311.398 104.087C312.513 104.117 313.625 103.948 314.742 103.963C315.857 103.977 317.022 104.199 317.89 104.905C318.758 105.611 319.225 106.898 318.731 107.905C319.267 107.639 319.936 107.836 320.296 108.316C320.656 108.796 320.756 109.424 320.775 110.026C320.86 112.771 319.379 115.511 317.042 116.93C313.401 115.44 310.029 115.25 306.184 114.431Z" fill="#363339"/>
<path d="M316.307 111.412V120.926L311.434 125.122C310.855 125.616 310.12 125.889 309.362 125.889C307.609 125.889 306.184 124.468 306.184 122.715V111.107L310.456 108.722L316.307 111.412Z" fill="#F36359"/>
<path d="M316.817 129.135C315.576 130.556 313.845 131.269 312.114 131.269C310.384 131.269 308.653 130.556 307.412 129.135L307.636 128.256L308.402 125.239L310.442 124.127L316.307 120.926L316.817 129.135Z" fill="#F36359"/>
<path d="M318.364 117.019C318.364 118.155 317.444 119.075 316.309 119.075C315.173 119.075 314.253 118.155 314.253 117.019C314.253 115.884 315.173 114.963 316.309 114.963C317.444 114.963 318.364 115.884 318.364 117.019Z" fill="#F36359"/>
<path d="M308.839 119.836L308.829 119.835C308.529 119.808 308.247 119.589 308.112 119.276C308.006 119.029 307.984 118.731 308.047 118.391C308.086 118.187 308.149 117.989 308.21 117.797C308.234 117.724 308.257 117.652 308.279 117.579C308.492 116.864 308.572 116.094 308.509 115.35C308.504 115.289 308.55 115.234 308.612 115.229C308.672 115.228 308.728 115.27 308.733 115.332C308.798 116.113 308.718 116.891 308.493 117.643C308.471 117.717 308.447 117.791 308.424 117.866C308.364 118.051 308.303 118.242 308.268 118.433C308.213 118.728 308.23 118.981 308.318 119.187C308.42 119.422 308.633 119.593 308.849 119.612C308.911 119.617 308.956 119.671 308.951 119.733C308.945 119.792 308.897 119.836 308.839 119.836Z" fill="#363339"/>
<path d="M310.525 116.595C310.328 116.595 310.167 116.434 310.167 116.238V115.698C310.167 115.502 310.328 115.341 310.525 115.341C310.722 115.341 310.882 115.502 310.882 115.698V116.238C310.882 116.434 310.722 116.595 310.525 116.595Z" fill="#363339"/>
<path d="M307.311 116.595C307.115 116.595 306.954 116.434 306.954 116.238V115.698C306.954 115.502 307.115 115.341 307.311 115.341C307.507 115.341 307.668 115.502 307.668 115.698V116.238C307.668 116.434 307.507 116.595 307.311 116.595Z" fill="#363339"/>
<path d="M312.492 114.187C312.409 114.412 311.818 114.401 311.172 114.163C310.525 113.925 310.068 113.549 310.15 113.324C310.233 113.1 310.825 113.111 311.472 113.349C312.118 113.587 312.575 113.962 312.492 114.187Z" fill="#363339"/>
<path d="M306.349 114.187C306.432 114.412 307.023 114.401 307.669 114.163C308.316 113.925 308.773 113.549 308.69 113.324C308.607 113.1 308.016 113.111 307.369 113.349C306.723 113.587 306.266 113.962 306.349 114.187Z" fill="#363339"/>
<path d="M315.115 121.953C314.581 123.67 313.783 125.356 312.447 126.553C311.152 127.723 309.376 128.337 307.637 128.256L308.286 125.701C308.623 125.822 308.986 125.889 309.363 125.889C310.121 125.889 310.856 125.616 311.434 125.122L315.115 121.953Z" fill="#EC5141"/>
<path d="M313.854 118.353C313.854 118.752 313.19 119.075 312.369 119.075C311.548 119.075 310.883 118.752 310.883 118.353C310.883 117.955 311.548 117.632 312.369 117.632C313.19 117.632 313.854 117.955 313.854 118.353Z" fill="#EC5141"/>
<path d="M307.577 118.352C307.577 118.738 306.959 119.047 306.184 119.07V117.635C306.959 117.658 307.577 117.967 307.577 118.352Z" fill="#EC5141"/>
<path d="M315.237 118.474C315.177 118.474 315.128 118.427 315.125 118.367C315.099 117.722 315.314 117.063 315.715 116.559C316.117 116.053 316.71 115.695 317.343 115.575C317.404 115.563 317.463 115.603 317.474 115.664C317.486 115.725 317.446 115.783 317.385 115.795C316.804 115.906 316.259 116.235 315.89 116.698C315.523 117.161 315.325 117.766 315.349 118.358C315.352 118.42 315.304 118.472 315.242 118.474H315.237Z" fill="#363339"/>
<path d="M315.29 117.84L315.226 117.819C315.175 117.784 315.163 117.714 315.198 117.663C315.424 117.342 315.754 117.119 316.126 117.036C316.502 116.952 316.909 117.015 317.242 117.206C317.296 117.237 317.315 117.305 317.284 117.359C317.253 117.412 317.185 117.431 317.131 117.4C316.845 117.237 316.498 117.184 316.175 117.255C315.858 117.326 315.576 117.517 315.382 117.792L315.29 117.84Z" fill="#363339"/>
<path d="M310.989 120.854C310.562 120.716 310.112 120.929 309.787 121.198C309.603 121.351 309.455 121.539 309.337 121.745C309.153 121.692 308.965 121.659 308.77 121.676C308.401 121.707 308.053 121.897 307.897 122.245C307.518 123.092 308.571 123.571 309.237 123.641C309.999 123.722 310.765 123.381 311.233 122.778C311.478 122.463 311.659 122.066 311.608 121.659C311.564 121.304 311.34 120.967 310.989 120.854Z" fill="white"/>
<path d="M317.233 111.554C317.157 112.733 317.13 113.926 317.067 115.11C316.834 115.011 316.578 114.962 316.309 114.962C315.511 114.962 314.816 115.419 314.475 116.087C314.121 115.011 314.583 113.043 314.677 111.962C312.117 110.425 308.849 110.173 306.078 111.281C306.231 110.761 306.302 110.147 306.455 109.631C307.777 108.631 309.387 108.004 311.041 107.932C313.44 107.829 315.399 110.008 317.233 111.554Z" fill="#363339"/>
<path d="M89.1465 239.04L88.7085 234.549H94.8005L94.1495 239.476L93.3179 242.278L90.8359 242.78L89.5061 241.628L89.1465 239.04Z" fill="#F36359"/>
<path d="M88.5267 245.189H102.177C102.678 245.189 103.083 244.784 103.083 244.283V243.6C103.083 243.247 102.878 242.927 102.558 242.778L95.1303 239.333C94.8039 239.182 94.4192 239.238 94.1493 239.476L92.4295 240.994C92.0789 241.304 91.5507 241.296 91.21 240.976L89.1463 239.04C88.9786 238.883 88.7567 238.795 88.5267 238.795C88.0263 238.795 87.6206 239.201 87.6206 239.701V244.283C87.6206 244.784 88.0263 245.189 88.5267 245.189Z" fill="#363339"/>
<path d="M34.9848 189.722L39.4966 189.627L39.0321 195.701L34.1689 194.677L31.4378 193.634L31.1265 191.121L32.3766 189.883L34.9848 189.722Z" fill="#F36359"/>
<path d="M28.9008 188.635L27.8596 202.245C27.8213 202.744 28.1948 203.18 28.6938 203.218L29.3751 203.27C29.7267 203.297 30.0621 203.117 30.2344 202.809L34.2364 195.666C34.412 195.352 34.3856 194.964 34.1688 194.677L32.7858 192.846C32.504 192.473 32.5521 191.947 32.8971 191.631L34.9847 189.722C35.1548 189.566 35.2591 189.352 35.2766 189.123C35.3148 188.624 34.9413 188.188 34.4423 188.15L29.8733 187.8C29.3744 187.762 28.939 188.136 28.9008 188.635Z" fill="#363339"/>
<path d="M86.2535 163.346L60.7744 161.329L65.3246 176.199L80.1758 176.481L86.2535 163.346Z" fill="#363339"/>
<path d="M87.2627 236.841H96.3931C96.121 223.786 95.3171 210.541 93.8322 197.567C92.515 186.056 88.6552 174.682 86.254 163.346C80.9878 166.017 76.8554 170.109 73.7148 175.11C75.3697 183.903 78.4627 192.295 82.7556 200.145C81.5383 212.516 82.6027 225.318 87.2627 236.841Z" fill="#363339"/>
<path d="M36.0601 196.406C43.5002 199.397 51.2799 201.679 59.1952 202.989C60.531 203.21 61.8986 203.177 63.2156 202.863L63.2953 202.844C67.0116 201.957 69.9272 199.056 70.822 195.342C72.4733 188.491 73.6963 181.611 74.5168 174.552L60.7743 161.329C58.0976 170.509 57.3454 179.951 58.399 189.456C51.4767 188.329 44.404 188.079 37.4192 188.713C36.9788 191.215 36.5005 193.904 36.0601 196.406Z" fill="#363339"/>
<path d="M73.6754 177.709C72.3945 177.709 71.1163 177.609 69.8632 177.408C69.7717 177.394 69.7094 177.308 69.7237 177.216C69.7385 177.124 69.8242 177.063 69.9161 177.076C72.9379 177.56 76.1112 177.449 79.0935 176.758C79.1823 176.737 79.2738 176.793 79.2953 176.884C79.3164 176.974 79.2599 177.065 79.1693 177.086C77.3818 177.5 75.5266 177.709 73.6754 177.709Z" fill="#5A5D5F"/>
<path d="M59.486 170.922C59.4131 170.922 59.3462 170.874 59.3247 170.801C59.2986 170.712 59.3497 170.618 59.4387 170.592C61.0075 170.133 62.4384 169.18 63.468 167.91C64.4974 166.641 65.1335 165.044 65.2587 163.414C65.2659 163.321 65.3462 163.249 65.4394 163.258C65.5322 163.266 65.6013 163.346 65.5941 163.439C65.4636 165.137 64.8013 166.8 63.7292 168.122C62.6571 169.445 61.1669 170.436 59.5333 170.915L59.486 170.922Z" fill="#5A5D5F"/>
<path d="M86.6377 171.146L86.5691 171.131C85.3115 170.568 84.2588 169.589 83.6043 168.375C82.9497 167.162 82.7107 165.744 82.9308 164.384C82.9456 164.292 83.0308 164.23 83.1236 164.244C83.2151 164.259 83.2774 164.346 83.2626 164.437C83.0546 165.725 83.2806 167.067 83.9002 168.216C84.5198 169.364 85.5164 170.291 86.7067 170.825C86.7915 170.862 86.8291 170.962 86.7915 171.047C86.7632 171.109 86.7018 171.146 86.6377 171.146Z" fill="#5A5D5F"/>
<path d="M74.4918 177.568L74.4711 177.567C74.3788 177.556 74.3138 177.472 74.325 177.38C74.8567 173.104 75.0827 168.753 74.9966 164.448C74.9948 164.356 75.0688 164.278 75.1616 164.277C75.2521 164.268 75.3311 164.349 75.3328 164.442C75.4194 168.762 75.1925 173.129 74.6585 177.421C74.6482 177.506 74.5756 177.568 74.4918 177.568Z" fill="#5A5D5F"/>
<path d="M74.011 172.617C73.382 172.617 72.7561 172.539 72.1441 172.462C72.0522 172.451 71.9868 172.366 71.9984 172.274C72.0096 172.182 72.0921 172.117 72.1863 172.128C73.1036 172.244 74.0513 172.363 74.9704 172.205C75.9738 172.034 76.7804 171.529 77.1839 170.822C77.5363 170.203 77.5829 169.435 77.6246 168.758L77.8864 164.479C77.8923 164.386 77.9707 164.309 78.0649 164.321C78.1572 164.327 78.2276 164.407 78.2222 164.499L77.9604 168.778C77.9165 169.492 77.8671 170.301 77.4758 170.988C77.0225 171.784 76.1303 172.348 75.0274 172.537C74.6884 172.595 74.3495 172.617 74.011 172.617Z" fill="#5A5D5F"/>
<path d="M76.354 165.767C71.0519 165.767 65.7674 164.852 60.7312 163.036C60.6438 163.005 60.5986 162.908 60.6302 162.821C60.6617 162.733 60.7582 162.688 60.8451 162.72C68.8022 165.588 77.3847 166.194 85.6659 164.473C85.7556 164.457 85.8462 164.513 85.865 164.603C85.8838 164.694 85.8255 164.783 85.7345 164.802C82.6338 165.447 79.4905 165.767 76.354 165.767Z" fill="#5A5D5F"/>
<path d="M89.7352 199.898C89.2949 199.898 88.8533 199.869 88.4135 199.81C88.3211 199.797 88.2566 199.713 88.2691 199.621C88.2812 199.528 88.366 199.465 88.4579 199.476C90.197 199.711 91.9652 199.463 93.5721 198.76C93.6577 198.723 93.7568 198.762 93.7936 198.847C93.8308 198.932 93.7918 199.031 93.707 199.068C92.4499 199.618 91.0977 199.898 89.7352 199.898Z" fill="#5A5D5F"/>
<path d="M60.3371 196.287C60.2727 196.287 60.2112 196.25 60.1833 196.187C59.1679 193.897 58.5037 191.474 58.2096 188.985C58.199 188.893 58.2648 188.809 58.3571 188.798C58.446 188.784 58.5331 188.854 58.5438 188.945C58.8338 191.401 59.4888 193.792 60.4907 196.051C60.5284 196.135 60.4902 196.235 60.4053 196.273L60.3371 196.287Z" fill="#5A5D5F"/>
<path d="M88.1093 236.207C88.0421 236.207 87.9784 236.166 87.9524 236.099C83.5932 224.784 82.1361 212.271 83.7371 199.91C80.1504 193.069 77.2326 185.842 75.0649 178.429C75.0389 178.34 75.0896 178.246 75.1788 178.22C75.2685 178.195 75.3617 178.245 75.3877 178.334C77.5541 185.743 80.4719 192.966 84.0595 199.802L84.0774 199.902C82.4728 212.224 83.9209 224.699 88.2662 235.978C88.2994 236.065 88.2564 236.162 88.1698 236.196L88.1093 236.207Z" fill="#5A5D5F"/>
<path d="M57.9907 190.965L57.9637 190.963C51.4534 189.911 44.8102 189.509 38.2199 189.776C38.13 189.78 38.0487 189.707 38.0451 189.614C38.0414 189.521 38.1134 189.443 38.2062 189.44C44.8202 189.176 51.4852 189.575 58.0171 190.631C58.1089 190.646 58.1712 190.732 58.1564 190.823C58.143 190.906 58.0716 190.965 57.9907 190.965Z" fill="#5A5D5F"/>
<path d="M86.2535 163.346C84.0835 163.754 81.8822 164.01 79.6809 164.117C79.5688 164.126 79.4522 164.131 79.3401 164.131C77.1971 164.225 75.045 164.176 72.9065 163.987C72.7899 163.978 72.6733 163.965 72.5568 163.952C68.5442 163.57 64.5765 162.696 60.7744 161.329C60.9898 159.679 61.2319 158.051 61.5322 156.433C61.7564 155.227 62.0164 154.03 62.3349 152.824C62.3615 152.716 62.393 152.609 62.4243 152.497C62.5723 151.936 62.7382 151.371 62.9175 150.802C62.9489 150.694 62.9848 150.582 63.0252 150.475C63.2179 149.869 63.4287 149.26 63.6618 148.645C63.8634 148.112 64.0786 147.574 64.3118 147.031C64.0743 146.48 63.8634 145.915 63.6751 145.341C63.6392 145.233 63.6033 145.121 63.5678 145.009C63.4869 144.745 63.4107 144.48 63.3389 144.216C62.6396 141.62 62.4063 138.872 62.5769 136.155C62.5769 136.029 62.5857 135.904 62.5993 135.778C62.7382 133.882 63.0788 131.999 63.5856 130.201L70.342 129.111H79.7481L83.4514 130.353L83.7787 130.465L85.0385 130.887C85.4734 134.89 85.8007 138.903 86.0248 142.916C86.0652 143.601 86.0966 144.287 86.1279 144.969C86.1369 145.085 86.1414 145.202 86.1459 145.319L86.1504 145.431C86.1549 145.552 86.1593 145.673 86.1638 145.798V145.803C86.4194 151.645 86.4463 157.491 86.2535 163.346Z" fill="#F03959"/>
<path d="M107.474 131.14C107.802 129.677 107.501 128.105 106.721 126.825C107.182 126.201 107.496 125.468 107.629 124.704C107.666 124.492 107.669 124.229 107.488 124.113C107.302 123.993 107.059 124.113 106.875 124.238C105.955 124.866 105.105 125.698 104.79 126.767C104.593 127.436 104.62 128.15 104.702 128.843C104.784 129.536 104.802 130.223 104.934 130.922C105.757 131.068 106.639 131.187 107.474 131.14Z" fill="#F36359"/>
<path d="M109.051 133.552C110.188 132.581 111.063 131.334 111.599 129.938C111.048 128.886 110.282 127.985 109.329 127.277C109.941 126.325 110.467 125.318 110.896 124.271C110.959 124.117 111.021 123.958 111.024 123.791C111.028 123.625 110.962 123.447 110.82 123.361C110.67 123.27 110.472 123.301 110.323 123.391C110.174 123.482 110.063 123.624 109.957 123.762C108.199 126.062 106.644 128.518 105.317 131.091C106.301 132.201 107.667 133.022 109.051 133.552Z" fill="#F36359"/>
<path d="M110.101 130.616C109.959 130.68 109.815 130.746 109.66 130.764C109.505 130.782 109.336 130.746 109.229 130.632C109.136 130.534 109.103 130.391 109.11 130.257C109.116 130.122 109.146 129.988 109.189 129.86C109.006 129.906 108.819 129.953 108.632 129.934C108.445 129.916 108.254 129.821 108.174 129.65C108.074 129.437 108.171 129.187 108.274 128.975C108.596 128.311 108.976 127.674 109.409 127.076C109.524 126.917 109.653 126.752 109.839 126.686C110.061 126.606 110.324 126.699 110.477 126.879C110.629 127.06 110.68 127.313 110.645 127.547C110.908 127.427 111.258 127.487 111.461 127.693C111.664 127.899 111.721 128.234 111.597 128.496C111.755 128.42 111.973 128.493 112.096 128.617C112.219 128.741 112.271 128.923 112.268 129.098C112.264 129.273 112.21 129.443 112.146 129.605C111.911 130.197 111.532 130.72 111.118 131.203C110.998 131.343 110.87 131.483 110.704 131.564C110.538 131.643 110.323 131.649 110.182 131.53C110.066 131.433 110.022 131.27 110.031 131.119C110.04 130.969 110.046 130.757 110.101 130.616Z" fill="#F36359"/>
<path d="M108.718 130.118H108.71C108.401 130.115 108.115 129.927 108.016 129.662C107.9 129.352 108.035 129.042 108.2 128.753C108.592 128.061 109.022 127.38 109.478 126.727C109.531 126.651 109.636 126.632 109.712 126.686C109.788 126.739 109.807 126.844 109.753 126.92C109.303 127.564 108.879 128.236 108.492 128.919C108.369 129.137 108.264 129.364 108.331 129.544C108.382 129.68 108.542 129.78 108.713 129.781H108.718C108.881 129.781 109.057 129.705 109.212 129.565C109.367 129.427 109.488 129.242 109.599 129.065C109.927 128.542 110.226 127.992 110.485 127.43C110.524 127.346 110.623 127.309 110.708 127.348C110.792 127.387 110.829 127.487 110.79 127.571C110.525 128.146 110.22 128.709 109.883 129.244C109.76 129.441 109.623 129.648 109.437 129.816C109.219 130.011 108.964 130.118 108.718 130.118Z" fill="#EC5141"/>
<path d="M110.511 131.812C110.396 131.812 110.278 131.781 110.175 131.717C109.976 131.595 109.844 131.369 109.821 131.113C109.803 130.908 109.85 130.693 109.961 130.472C110.053 130.289 110.175 130.128 110.294 129.972L111.501 128.391C111.557 128.317 111.663 128.302 111.737 128.359C111.81 128.415 111.824 128.521 111.768 128.595L110.561 130.176C110.447 130.326 110.34 130.467 110.261 130.623C110.18 130.785 110.144 130.944 110.156 131.083C110.17 131.231 110.244 131.365 110.352 131.431C110.457 131.496 110.6 131.489 110.679 131.417C110.748 131.353 110.854 131.358 110.917 131.426C110.98 131.495 110.976 131.601 110.908 131.664C110.801 131.762 110.657 131.812 110.511 131.812Z" fill="#EC5141"/>
<path d="M109.645 130.935C109.557 130.935 109.469 130.917 109.386 130.881C109.175 130.788 109.013 130.58 108.966 130.34C108.923 130.129 108.964 129.899 109.079 129.694C109.125 129.613 109.228 129.584 109.308 129.629C109.389 129.675 109.418 129.777 109.372 129.858C109.297 129.992 109.269 130.143 109.295 130.274C109.322 130.407 109.411 130.524 109.521 130.573C109.63 130.62 109.769 130.599 109.844 130.523C109.91 130.456 110.017 130.456 110.082 130.521C110.148 130.586 110.149 130.693 110.084 130.758C109.971 130.874 109.81 130.935 109.645 130.935Z" fill="#EC5141"/>
<path d="M109.874 132.007C109.831 132.007 109.789 131.99 109.756 131.959C109.175 131.393 108.319 131.101 107.523 131.197C107.469 131.204 107.418 131.185 107.381 131.147C107.345 131.108 107.328 131.055 107.337 131.003C107.521 129.894 107.387 128.71 106.958 127.672C106.923 127.586 106.963 127.487 107.05 127.452C107.136 127.417 107.233 127.457 107.269 127.543C107.694 128.573 107.845 129.738 107.7 130.846C108.534 130.81 109.391 131.134 109.991 131.718C110.057 131.782 110.059 131.889 109.994 131.955C109.961 131.989 109.918 132.007 109.874 132.007Z" fill="#EC5141"/>
<path d="M71.7656 154.149C72.5672 153.971 73.3724 153.793 74.192 153.741C75.0111 153.689 75.8522 153.768 76.6076 154.089C77.5325 154.483 78.27 155.206 78.9838 155.914C79.1326 156.062 79.294 156.268 79.2075 156.46C79.1165 156.66 78.8363 156.663 78.6197 156.623C77.8006 156.474 77.016 156.154 76.3139 155.706C76.0068 155.944 75.6446 156.135 75.2693 156.235C76.7125 157.077 78.1562 157.92 79.5994 158.762C79.767 158.86 79.9388 158.961 80.0558 159.116C80.1728 159.27 80.2221 159.493 80.123 159.659C80.0334 159.81 79.8446 159.878 79.6698 159.872C79.4945 159.865 79.3286 159.797 79.1667 159.73C77.8966 159.203 76.6013 158.775 75.3312 158.248C76.6027 159.074 77.8612 159.919 79.1053 160.785C79.2564 160.89 79.4115 161 79.507 161.158C79.6021 161.315 79.6218 161.533 79.5034 161.674C79.4048 161.791 79.2353 161.826 79.0847 161.801C78.934 161.776 78.7968 161.701 78.6637 161.627C77.2873 160.862 75.9028 160.12 74.5269 159.355C75.7777 160.405 77.029 161.455 78.2799 162.505C78.448 162.646 78.6345 162.843 78.5677 163.053C78.5175 163.21 78.3342 163.292 78.1696 163.281C78.0046 163.269 77.8549 163.186 77.7119 163.104C76.3637 162.333 75.0236 161.519 73.7347 160.653C74.5789 161.481 75.4231 162.309 76.2669 163.138C76.3951 163.263 76.5341 163.435 76.4677 163.601C76.418 163.725 76.2664 163.783 76.1342 163.766C76.0015 163.75 75.884 163.677 75.7715 163.605C73.5751 162.206 71.4939 160.626 69.5562 158.887C70.2986 157.286 71.0231 155.75 71.7656 154.149Z" fill="#F36359"/>
<path d="M72.0461 153.77L69.7999 159.302L65.6842 157.872L65.3658 157.765L61.5326 156.433L55.7804 154.433C55.0542 154.178 54.3906 153.788 53.8302 153.29C53.2652 152.788 52.7944 152.178 52.4582 151.488C51.6018 149.73 51.6872 147.659 52.6823 145.973L55.3724 141.436L55.5426 141.145L58.699 135.818L58.8694 135.531L60.1787 133.326C60.981 131.972 62.1647 130.882 63.586 130.201L64.0836 134.98L64.1239 135.352L64.8277 142.14L63.3393 144.216L61.2232 147.157L63.6622 148.645L72.0461 153.77Z" fill="#F03959"/>
<path d="M109.729 133.81L100.139 147.897C98.9912 149.582 96.9289 150.403 94.9338 149.963C94.1043 149.78 93.3377 149.385 92.701 148.825L86.0253 142.916L84.3306 141.418L85.0389 130.887C86.514 131.586 87.868 132.51 89.0605 133.626L90.1993 134.693L90.4638 134.94L96.2339 140.338L102.789 132.245L103.053 131.913L104.443 130.201L109.729 133.81Z" fill="#F03959"/>
<path d="M75.1363 132.67C73.1435 132.67 71.1318 131.871 69.6926 130.495C69.6254 130.431 69.6231 130.324 69.6872 130.257C69.7513 130.19 69.8576 130.188 69.9249 130.252C71.3855 131.649 73.464 132.422 75.4811 132.325C77.5 132.227 79.4915 131.252 80.8087 129.72C80.8688 129.649 80.975 129.641 81.0459 129.702C81.1163 129.763 81.1243 129.868 81.0638 129.939C79.6874 131.54 77.6067 132.558 75.4977 132.661C75.3775 132.667 75.2569 132.67 75.1363 132.67Z" fill="#E22640"/>
<path d="M86.0957 143.203C86.0109 143.203 85.9379 143.139 85.9289 143.053L85.2681 136.784C85.2582 136.692 85.3254 136.609 85.4178 136.599C85.5093 136.591 85.5926 136.656 85.6025 136.749L86.2634 143.018C86.2728 143.11 86.206 143.193 86.1136 143.202L86.0957 143.203Z" fill="#E22640"/>
<path d="M95.8806 143.739L95.8622 143.738C95.7698 143.728 95.703 143.645 95.7129 143.553L96.068 140.244C96.0783 140.151 96.159 140.084 96.2536 140.094C96.3459 140.105 96.4127 140.187 96.4029 140.279L96.0473 143.589C96.0379 143.676 95.9648 143.739 95.8806 143.739Z" fill="#E22640"/>
<path d="M61.4263 147.241L61.4069 147.24C60.2729 147.108 59.1214 147.094 57.984 147.198C57.8908 147.204 57.8097 147.138 57.8015 147.045C57.7931 146.953 57.8612 146.871 57.9538 146.863C59.1129 146.757 60.2887 146.772 61.4454 146.905C61.5379 146.916 61.6039 146.999 61.5933 147.092C61.5834 147.177 61.5106 147.241 61.4263 147.241Z" fill="#E22640"/>
<path d="M63.4035 144.412C63.3629 144.412 63.322 144.397 63.29 144.368C63.2213 144.305 63.2168 144.199 63.2797 144.131C64.849 142.42 65.9355 140.316 66.422 138.046C66.4412 137.955 66.5323 137.898 66.6219 137.917C66.7125 137.936 66.7703 138.026 66.751 138.116C66.252 140.445 65.1373 142.603 63.5275 144.357C63.4942 144.394 63.4488 144.412 63.4035 144.412Z" fill="#E22640"/>
<path d="M69.7978 159.473L69.7427 159.463L61.4772 156.592C61.3894 156.561 61.343 156.465 61.3737 156.377C61.4042 156.29 61.5005 156.245 61.5875 156.274L69.7023 159.093L71.8382 153.839L63.5737 148.792C63.4945 148.744 63.4693 148.64 63.518 148.561C63.5662 148.482 63.6692 148.456 63.7488 148.505L72.135 153.626C72.2054 153.669 72.2341 153.757 72.2032 153.834L69.9534 159.368C69.9274 159.433 69.8646 159.473 69.7978 159.473Z" fill="#E22640"/>
<path d="M71.7748 149.738C71.6982 149.738 71.6287 149.686 71.6112 149.608C71.5906 149.517 71.647 149.427 71.7376 149.407C76.4936 148.322 80.5219 144.617 82.0005 139.968C82.0287 139.879 82.1233 139.831 82.2117 139.858C82.3 139.887 82.3489 139.981 82.3211 140.07C80.807 144.83 76.6823 148.623 71.8125 149.734L71.7748 149.738Z" fill="#E22640"/>
<path d="M74.5173 152.27C74.4258 152.27 74.3509 152.196 74.3491 152.105C74.3478 152.011 74.4218 151.935 74.5146 151.933C77.7556 151.878 80.9648 150.389 83.0993 147.949C83.1608 147.879 83.2666 147.872 83.3365 147.933C83.4065 147.994 83.4136 148.1 83.3527 148.17C81.1567 150.68 77.8547 152.213 74.52 152.27H74.5173Z" fill="#E22640"/>
<path d="M83.7783 130.465C83.5362 131.801 83.2314 133.146 82.7158 134.42C82.1509 135.823 81.0704 137.724 79.147 138.822C78.2503 139.333 77.2461 139.589 76.2776 139.589C75.3003 139.589 74.3588 139.333 73.5966 138.813C72.7358 138.23 72.1216 137.374 71.5298 136.545C71.3908 136.352 71.2518 136.159 71.1128 135.971C70.512 135.164 69.566 134.065 68.2972 133.846C67.1181 133.639 65.9524 134.227 65.069 134.76C64.8899 134.872 64.7061 134.984 64.5223 135.101C64.3923 135.186 64.2578 135.267 64.1231 135.352C63.63 135.657 63.1191 135.948 62.5765 136.155C62.3478 136.244 62.1104 136.316 61.8682 136.37C60.792 136.607 59.6445 136.379 58.6982 135.818L58.8687 135.531C59.7386 136.052 60.8056 136.258 61.7963 136.043C62.0697 135.98 62.3389 135.895 62.599 135.778C63.1144 135.567 63.603 135.28 64.0829 134.98C64.1681 134.926 64.2578 134.872 64.3428 134.819C64.5266 134.702 64.7105 134.585 64.8988 134.473C65.8314 133.908 67.0643 133.29 68.3555 133.514C69.7409 133.752 70.7452 134.917 71.3818 135.769C71.5208 135.957 71.6643 136.155 71.8032 136.352C72.3771 137.154 72.9734 137.988 73.7849 138.535C75.2061 139.495 77.2909 139.495 78.9811 138.531C80.8193 137.477 81.855 135.648 82.4019 134.294C82.913 133.03 83.2134 131.689 83.451 130.353L83.7783 130.465Z" fill="#F14C71"/>
<path d="M65.6834 157.872L65.3651 157.765C65.5041 157.213 65.5175 156.621 65.383 156.065C65.1096 154.918 64.2129 153.842 62.9171 153.115C62.7289 153.008 62.5361 152.914 62.3345 152.824C61.348 152.371 60.263 152.098 59.214 151.829L59.0974 151.802C58.4203 151.631 57.5774 151.416 56.9588 150.869C55.8739 149.91 55.8558 148.318 55.9409 147.453C55.9859 146.973 56.0756 146.493 56.1606 146.032C56.2863 145.355 56.4163 144.651 56.4119 143.96C56.4028 143.117 56.1248 142.037 55.3716 141.436L55.5418 141.145C56.4119 141.804 56.739 143.019 56.7481 143.956C56.7525 144.682 56.6182 145.399 56.4924 146.094C56.4073 146.547 56.3222 147.022 56.2772 147.484C56.1965 148.287 56.2101 149.757 57.1786 150.618C57.739 151.111 58.5369 151.313 59.1825 151.474L59.2945 151.506C60.3481 151.77 61.4241 152.044 62.424 152.497C62.6481 152.595 62.8679 152.703 63.0832 152.824C64.4548 153.595 65.4144 154.747 65.7103 155.989C65.8582 156.603 65.8403 157.258 65.6834 157.872Z" fill="#F14C71"/>
<path d="M73.2473 149.381C72.7541 150.273 71.8126 150.99 70.5169 151.452C69.9969 151.636 69.4588 151.775 68.9119 151.855L68.4501 151.573C69.1181 151.506 69.7727 151.358 70.4048 151.134C71.2522 150.833 72.382 150.25 72.9559 149.219C73.6777 147.906 73.3011 146.067 72.0771 144.947C70.9922 143.951 69.3199 143.512 67.6072 143.763C66.3653 143.942 65.1055 144.449 63.6752 145.341C63.6393 145.233 63.6034 145.121 63.5679 145.009C65.0113 144.122 66.2936 143.619 67.5579 143.431C69.3737 143.167 71.1446 143.637 72.3013 144.7C73.6418 145.924 74.0453 147.937 73.2473 149.381Z" fill="#F14C71"/>
<path d="M102.954 138.84C102.12 141.517 100.228 143.637 97.8878 144.512C97.1256 144.794 96.3276 144.929 95.5385 144.929C93.6465 144.929 91.8039 144.144 90.6785 142.741C89.5891 141.378 89.1273 139.45 89.4053 137.446C89.5263 136.558 89.7908 135.644 90.1988 134.693L90.4633 134.94C90.0912 135.823 89.8536 136.67 89.737 137.495C89.4725 139.405 89.9119 141.239 90.9431 142.53C92.445 144.409 95.3188 145.112 97.7668 144.193C100.013 143.359 101.829 141.319 102.631 138.742C103.232 136.814 103.281 134.585 102.788 132.245L103.053 131.913C103.627 134.406 103.591 136.787 102.954 138.84Z" fill="#F14C71"/>
<path d="M83.2183 157.37C83.2901 158.231 82.9852 159.15 82.3082 160.109C82.0258 160.513 81.6985 160.889 81.3846 161.257C81.0977 161.593 80.7973 161.943 80.5328 162.306C80.0755 162.934 79.793 163.544 79.681 164.117C79.5689 164.126 79.4523 164.131 79.3402 164.131C79.4478 163.485 79.7572 162.804 80.2593 162.109C80.5328 161.737 80.8377 161.378 81.1291 161.037C81.4384 160.674 81.7568 160.302 82.0347 159.912C82.6624 159.024 82.9493 158.177 82.8821 157.401C82.7924 156.334 82.0572 155.447 81.3443 154.586L81.2277 154.442C80.4566 153.505 79.6003 152.371 79.0802 151.026C78.5332 149.627 78.466 148.197 78.8829 147C79.4837 145.274 81.1829 144.005 83.0121 143.92C84.1374 143.866 85.2583 144.265 86.1281 144.969C86.137 145.086 86.1415 145.202 86.146 145.319L86.1505 145.431C85.3166 144.655 84.1733 144.207 83.03 144.256C81.3308 144.337 79.7572 145.511 79.1968 147.112C78.8067 148.233 78.8784 149.578 79.394 150.905C79.8962 152.205 80.7346 153.313 81.4878 154.227L81.6043 154.371C82.3486 155.272 83.1152 156.204 83.2183 157.37Z" fill="#F14C71"/>
<path d="M70.8545 111.39V120.904L75.7279 125.1C76.3063 125.594 77.0411 125.867 77.7988 125.867C79.5522 125.867 80.978 124.446 80.978 122.693V111.085L76.7048 108.7L70.8545 111.39Z" fill="#F36359"/>
<path d="M70.3433 129.113C71.5852 130.534 73.3153 131.247 75.0463 131.247C76.7769 131.247 78.507 130.534 79.7489 129.113L79.5248 128.234L78.7586 125.217L76.7186 124.105L70.8544 120.904L70.3433 129.113Z" fill="#F36359"/>
<path d="M68.7983 116.997C68.7983 118.133 69.7188 119.053 70.854 119.053C71.9892 119.053 72.9096 118.133 72.9096 116.997C72.9096 115.862 71.9892 114.942 70.854 114.942C69.7188 114.942 68.7983 115.862 68.7983 116.997Z" fill="#F36359"/>
<path d="M78.3221 119.814C78.2647 119.814 78.2163 119.77 78.2109 119.711C78.2055 119.65 78.2508 119.595 78.3122 119.59C78.5319 119.57 78.7404 119.403 78.843 119.165C78.9314 118.96 78.9484 118.706 78.8937 118.411C78.8583 118.221 78.8 118.038 78.7381 117.845C78.7144 117.771 78.6906 117.696 78.6677 117.621C78.4436 116.869 78.3629 116.092 78.4288 115.31C78.4337 115.248 78.4915 115.205 78.5498 115.207C78.6117 115.213 78.6574 115.267 78.652 115.328C78.5897 116.072 78.6695 116.842 78.8829 117.557C78.9049 117.63 78.9282 117.704 78.9515 117.777C79.013 117.968 79.0762 118.166 79.1138 118.37C79.1771 118.709 79.1551 119.007 79.0488 119.254C78.9139 119.566 78.6328 119.786 78.3324 119.813L78.3221 119.814Z" fill="#363339"/>
<path d="M76.6371 116.573C76.8335 116.573 76.9944 116.412 76.9944 116.216V115.676C76.9944 115.48 76.8335 115.319 76.6371 115.319C76.4407 115.319 76.2798 115.48 76.2798 115.676V116.216C76.2798 116.412 76.4407 116.573 76.6371 116.573Z" fill="#363339"/>
<path d="M79.852 116.573C80.0483 116.573 80.2088 116.412 80.2088 116.216V115.676C80.2088 115.48 80.0483 115.319 79.852 115.319C79.6551 115.319 79.4946 115.48 79.4946 115.676V116.216C79.4946 116.412 79.6551 116.573 79.852 116.573Z" fill="#363339"/>
<path d="M74.6704 114.165C74.7533 114.39 75.3447 114.379 75.9912 114.141C76.6377 113.903 77.0945 113.528 77.012 113.302C76.9291 113.078 76.3377 113.089 75.6912 113.327C75.0447 113.565 74.5874 113.94 74.6704 114.165Z" fill="#363339"/>
<path d="M80.8127 114.165C80.7298 114.39 80.1384 114.379 79.4919 114.141C78.8454 113.903 78.3886 113.528 78.4711 113.302C78.554 113.078 79.1453 113.089 79.7919 113.327C80.4388 113.565 80.8957 113.94 80.8127 114.165Z" fill="#363339"/>
<path d="M72.0474 121.931C72.5809 123.648 73.3789 125.334 74.715 126.531C76.0107 127.701 77.7861 128.315 79.5252 128.234L78.8755 125.679C78.5393 125.8 78.1761 125.867 77.7991 125.867C77.0414 125.867 76.3066 125.594 75.7282 125.1L72.0474 121.931Z" fill="#EC5141"/>
<path d="M73.3076 118.332C73.3076 118.73 73.973 119.053 74.7934 119.053C75.6139 119.053 76.2792 118.73 76.2792 118.332C76.2792 117.933 75.6139 117.61 74.7934 117.61C73.973 117.61 73.3076 117.933 73.3076 118.332Z" fill="#EC5141"/>
<path d="M79.584 118.331C79.584 118.716 80.2027 119.025 80.9783 119.048V117.613C80.2027 117.636 79.584 117.945 79.584 118.331Z" fill="#EC5141"/>
<path d="M71.9253 118.452H71.9208C71.8589 118.45 71.811 118.398 71.8132 118.336C71.8374 117.745 71.6397 117.139 71.2716 116.676C70.9035 116.213 70.3588 115.883 69.7778 115.773C69.7168 115.762 69.6769 115.703 69.6885 115.642C69.7002 115.581 69.7585 115.54 69.8195 115.553C70.453 115.673 71.0461 116.031 71.4474 116.537C71.8482 117.042 72.0634 117.701 72.0374 118.345C72.0347 118.405 71.9854 118.452 71.9253 118.452Z" fill="#363339"/>
<path d="M71.871 117.818L71.7791 117.77C71.5859 117.494 71.3043 117.304 70.9864 117.233C70.6654 117.161 70.3166 117.215 70.0306 117.378C69.9772 117.408 69.9082 117.39 69.8777 117.337C69.8468 117.283 69.8656 117.214 69.9194 117.184C70.253 116.993 70.6605 116.931 71.0349 117.014C71.4074 117.097 71.7369 117.32 71.9625 117.641C71.9979 117.692 71.9862 117.762 71.9351 117.797L71.871 117.818Z" fill="#363339"/>
<path d="M78.3516 121.779C77.346 121.779 76.3476 121.384 75.6248 120.676C75.5809 120.633 75.58 120.562 75.623 120.518C75.667 120.474 75.7378 120.473 75.7817 120.516C76.6264 121.344 77.8719 121.715 79.0322 121.489C79.0936 121.477 79.1519 121.516 79.1636 121.577C79.1757 121.638 79.1362 121.697 79.0757 121.709C78.8363 121.756 78.5937 121.779 78.3516 121.779Z" fill="#363339"/>
<path d="M84.3304 108.205C84.3752 109.6 83.492 110.927 82.277 111.608C81.0575 112.29 79.5691 112.37 78.2151 112.039C77.3857 111.837 76.5876 111.492 75.7358 111.433C74.8839 111.38 73.9245 111.711 73.5838 112.491C73.3596 112.998 73.4448 113.581 73.5389 114.128C73.6331 114.675 73.7362 115.249 73.5479 115.769C73.4313 116.092 73.1623 116.374 72.8485 116.495C72.6243 115.603 71.8128 114.944 70.8534 114.944C69.7191 114.944 68.8 115.863 68.8 116.997C68.8 118.131 69.7191 119.055 70.8534 119.055C71.3465 119.055 71.8039 118.876 72.158 118.584C72.158 118.629 72.1625 118.669 72.167 118.71C72.2343 119.234 72.2791 119.817 71.9518 120.23C71.629 120.633 71.0193 120.723 70.5261 120.557C70.0374 120.396 69.6384 120.028 69.2887 119.647C67.4281 117.607 66.4686 114.814 66.5269 112.057C66.5404 111.519 66.5942 110.967 66.8004 110.469C67.0111 109.967 67.3967 109.523 67.9078 109.349C68.4189 109.174 69.069 109.358 69.3649 109.81C68.9928 108.891 69.0824 107.793 69.607 106.945C70.1271 106.098 71.0686 105.529 72.0594 105.448C72.835 105.39 73.5972 105.614 74.3594 105.775C75.1215 105.937 75.942 106.031 76.6593 105.73C77.2915 105.461 77.7667 104.919 78.3585 104.565C78.9504 104.215 79.8201 104.121 80.2371 104.672C80.4747 104.982 80.4882 105.403 80.5285 105.793C80.5733 106.183 80.6899 106.618 81.0351 106.806C81.6359 107.143 82.3308 106.484 83.0213 106.497C83.4158 106.502 83.7834 106.748 84.0076 107.075C84.2273 107.403 84.317 107.806 84.3304 108.205Z" fill="#61353A"/>
<path d="M262.026 203.792C263.358 200.374 265.642 197.332 268.553 195.1C269.596 194.3 270.736 193.594 272 193.23C273.264 192.866 274.667 192.87 275.851 193.442C277.55 194.262 278.553 196.157 278.691 198.038C278.83 199.919 278.22 201.783 277.382 203.473C275.634 207 272.802 209.951 269.424 211.955C267.704 212.975 265.837 213.753 263.897 214.238C263.22 214.406 261.964 214.886 261.3 214.511C260.525 214.074 260.686 212.52 260.663 211.771C260.579 209.056 261.04 206.324 262.026 203.792Z" fill="#42BD80"/>
<path d="M266.635 206.269C262.604 211.079 259.344 216.513 256.996 222.333C256.331 223.98 255.742 225.657 255.228 227.357C255.144 227.634 255.576 227.752 255.659 227.476C257.461 221.527 260.2 215.873 263.751 210.771C264.755 209.329 265.824 207.933 266.952 206.586C267.136 206.366 266.821 206.048 266.635 206.269Z" fill="#28A86C"/>
<path d="M237.095 195.215C236.794 192.911 236.811 190.526 237.519 188.313C238.228 186.1 239.688 184.067 241.75 182.996C244.628 181.502 248.319 182.137 250.901 184.098C253.482 186.06 255.034 189.153 255.664 192.333C256.295 195.513 256.083 198.799 255.675 202.015C255.384 204.306 254.992 206.599 254.18 208.76C253.526 210.503 252.336 213.159 250.626 214.126C249.307 214.872 246.775 212.285 245.838 211.461C242.825 208.81 240.428 205.464 238.875 201.764C237.996 199.672 237.388 197.466 237.095 195.215Z" fill="#42BD80"/>
<path d="M250.516 217.139C250.067 213.366 249.52 209.603 248.876 205.857C248.509 203.723 248.11 201.594 247.681 199.472C247.624 199.189 247.191 199.309 247.248 199.591C248.002 203.315 248.66 207.057 249.22 210.815C249.78 214.57 250.24 218.34 250.603 222.121C250.809 224.258 250.982 226.398 251.124 228.54C251.143 228.827 251.592 228.829 251.573 228.54C251.319 224.732 250.968 220.93 250.516 217.139Z" fill="#28A86C"/>
<path d="M225.674 215.838C223.464 214.435 221.533 212.416 220.783 209.908C220.033 207.399 220.688 204.383 222.773 202.798C224.443 201.53 226.769 201.348 228.772 201.97C230.774 202.592 232.487 203.929 233.925 205.455C236.461 208.147 238.266 211.516 239.133 215.11C239.26 215.637 239.809 217.1 239.54 217.603C239.256 218.134 237.611 218.209 237.065 218.284C235.219 218.537 233.333 218.481 231.503 218.13C229.441 217.735 227.449 216.964 225.674 215.838Z" fill="#42BD80"/>
<path d="M247.389 228.227C246.074 225.403 244.41 222.751 242.454 220.328C240.508 217.915 238.273 215.743 235.811 213.86C234.412 212.79 232.939 211.819 231.405 210.953C231.153 210.81 230.927 211.198 231.179 211.339C233.857 212.852 236.345 214.689 238.582 216.801C240.828 218.922 242.82 221.311 244.494 223.908C245.433 225.363 246.27 226.883 247.002 228.453C247.123 228.714 247.51 228.486 247.389 228.227Z" fill="#28A86C"/>
<path d="M258.426 245.189H244.103L239.619 224.014H262.909L258.426 245.189Z" fill="#FAB23E"/>
<path d="M246.21 228.482H261.964L261.119 232.471L246.21 228.482Z" fill="#F69F2A"/>
<path d="M117.527 225.326C115.076 223.682 112.625 221.977 110.668 219.767C108.711 217.558 107.266 214.77 107.197 211.819C107.181 211.116 107.278 210.337 107.804 209.871C108.519 209.237 109.656 209.497 110.477 209.985C112.159 210.983 113.267 212.696 114.313 214.348C116.467 217.748 118.722 221.035 120.876 224.435C118.765 219.996 116.655 215.555 114.544 211.114C112.248 206.284 109.897 201.173 110.299 195.841C110.38 194.76 110.645 193.574 111.53 192.95C112.676 192.14 114.302 192.669 115.412 193.527C117.49 195.132 118.622 197.649 119.568 200.099C122.514 207.731 124.543 215.757 125.362 223.896C125.252 219.722 125.142 215.527 125.666 211.384C126.189 207.24 127.376 203.116 129.672 199.627C130.207 198.813 130.816 198.023 131.622 197.476C132.428 196.928 133.463 196.649 134.395 196.932C135.693 197.325 136.465 198.663 136.848 199.964C137.476 202.094 137.402 204.382 136.971 206.56C136.539 208.738 135.761 210.83 134.986 212.912C133.579 216.691 132.273 220.481 130.866 224.261C132.388 219.988 135.444 216.279 139.346 213.968C139.893 213.644 140.475 213.341 141.107 213.279C141.74 213.218 142.438 213.448 142.771 213.989C143.186 214.665 142.916 215.541 142.591 216.266C141.05 219.713 138.472 222.69 135.28 224.709L117.527 225.326Z" fill="#42BD80"/>
<path d="M140.504 215.258C137.619 217.942 135.049 220.955 132.85 224.224C132.688 224.464 133.076 224.689 133.237 224.45C135.415 221.212 137.963 218.234 140.821 215.575C141.032 215.379 140.715 215.062 140.504 215.258Z" fill="#28A86C"/>
<path d="M132.601 200.42C131.14 206.604 129.884 212.835 128.84 219.102C128.544 220.877 128.266 222.655 128.003 224.435C127.962 224.718 128.394 224.84 128.436 224.555C129.362 218.269 130.497 212.014 131.841 205.805C132.222 204.046 132.619 202.291 133.033 200.539C133.1 200.258 132.667 200.139 132.601 200.42Z" fill="#28A86C"/>
<path d="M123.548 224.527C122.366 220.888 121.154 217.259 119.909 213.641C118.665 210.024 117.388 206.417 116.08 202.822C115.338 200.782 114.586 198.746 113.823 196.714C113.723 196.446 113.29 196.562 113.391 196.833C114.735 200.415 116.047 204.009 117.328 207.614C118.609 211.219 119.858 214.836 121.075 218.463C121.765 220.52 122.445 222.582 123.116 224.646C123.204 224.919 123.638 224.803 123.548 224.527Z" fill="#28A86C"/>
<path d="M118.677 224.63C116.695 221.587 114.544 218.654 112.235 215.85C111.58 215.055 110.913 214.271 110.233 213.497C110.042 213.279 109.727 213.597 109.916 213.814C112.287 216.515 114.509 219.346 116.564 222.294C117.153 223.139 117.728 223.993 118.29 224.856C118.447 225.097 118.836 224.872 118.677 224.63Z" fill="#28A86C"/>
<path d="M132.891 245.189H118.568L114.084 224.014H137.374L132.891 245.189Z" fill="#FAB23E"/>
<path d="M120.675 228.482H136.428L135.584 232.471L120.675 228.482Z" fill="#F69F2A"/>
<path d="M346.372 245.357H30.6222C30.5294 245.357 30.4541 245.282 30.4541 245.189C30.4541 245.096 30.5294 245.021 30.6222 245.021H346.372C346.465 245.021 346.54 245.096 346.54 245.189C346.54 245.282 346.465 245.357 346.372 245.357Z" fill="#363339"/>
</svg>
